<?xml version="1.0" encoding="utf-8"?>
<svg viewBox="60.8 3.6 169.6 55.4" xmlns="http://www.w3.org/2000/svg">
  <g id="g1017" transform="matrix(0.35419, 0, 0, 0.35419, 64.983131, -1.073906)">
    <circle style="fill: none; fill-opacity: 1; stroke-width: 3.289; stroke-linejoin: round; stroke-miterlimit: 4; stroke-dasharray: none; stroke-opacity: 1; paint-order: markers stroke; stroke: rgb(0, 75, 118);" id="circle1007" cx="61.071087" cy="89.134384" r="36.514706"/>
    <rect style="fill-opacity: 1; stroke: none; stroke-width: 3.277; stroke-linejoin: round; stroke-miterlimit: 4; stroke-dasharray: none; stroke-opacity: 1; paint-order: markers stroke; fill: rgb(0, 163, 222);" id="rect1009" width="61.071087" height="13.229842" x="31.537804" y="32.339611"/>
    <path id="path1011" style="color: rgb(0, 0, 0); font: medium sans-serif; font-feature-settings: normal; font-variation-settings: normal; text-indent: 0px; text-align: start; text-decoration: none solid rgb(0, 0, 0); letter-spacing: normal; word-spacing: normal; text-transform: none; writing-mode: lr-tb; direction: ltr; text-orientation: mixed; dominant-baseline: auto; baseline-shift: baseline; text-anchor: start; white-space: normal; shape-margin: 0px; inline-size: 0px; clip-rule: nonzero; display: inline; overflow: visible; visibility: visible; opacity: 1; isolation: auto; mix-blend-mode: normal; color-interpolation: srgb; color-interpolation-filters: linearrgb; vector-effect: none; fill-opacity: 1; fill-rule: nonzero; stroke: none; stroke-width: 3.77953; stroke-linecap: butt; stroke-linejoin: round; stroke-miterlimit: 4; stroke-dasharray: none; stroke-dashoffset: 0; stroke-opacity: 1; paint-order: markers stroke; color-rendering: auto; image-rendering: auto; shape-rendering: auto; text-rendering: auto; stop-color: rgb(0, 0, 0); stop-opacity: 1; fill: rgb(0, 87, 200);" d="m 184.43945,229.91797 -10.65429,8.14648 c -34.10073,19.80992 -57.15821,56.75252 -57.15821,98.82227 1e-5,46.3168 27.94923,86.41899 67.8125,104.28516 v -51.69727 c -14.51094,-12.78576 -23.61718,-31.53353 -23.61718,-52.58789 0,-21.05436 9.10624,-39.8007 23.61718,-52.58594 z" transform="scale(0.26458333)"/>
    <path style="fill: none; stroke-width: 3.289; stroke-linecap: butt; stroke-linejoin: miter; stroke-miterlimit: 4; stroke-dasharray: none; stroke-opacity: 1; stroke: rgb(0, 75, 118);" d="m 12.242399,146.46574 c 32.586403,-15.4648 70.627223,-15.49827 98.053021,0" id="path1013"/>
    <path id="path1015" style="color: rgb(0, 0, 0); font: medium sans-serif; font-feature-settings: normal; font-variation-settings: normal; text-indent: 0px; text-align: start; text-decoration: none solid rgb(0, 0, 0); letter-spacing: normal; word-spacing: normal; text-transform: none; writing-mode: lr-tb; direction: ltr; text-orientation: mixed; dominant-baseline: auto; baseline-shift: baseline; text-anchor: start; white-space: normal; shape-margin: 0px; inline-size: 0px; clip-rule: nonzero; display: inline; overflow: visible; visibility: visible; opacity: 1; isolation: auto; mix-blend-mode: normal; color-interpolation: srgb; color-interpolation-filters: linearrgb; vector-effect: none; fill-opacity: 1; fill-rule: nonzero; stroke: none; stroke-width: 1; stroke-linecap: butt; stroke-linejoin: round; stroke-miterlimit: 4; stroke-dasharray: none; stroke-dashoffset: 0; stroke-opacity: 1; paint-order: markers stroke; color-rendering: auto; image-rendering: auto; shape-rendering: auto; text-rendering: auto; stop-color: rgb(0, 0, 0); stop-opacity: 1; fill: rgb(0, 163, 222);" d="m 63.342897,49.71221 -10.50685,8.033618 v 14.772743 c 2.47512,-1.217851 5.26754,-1.903243 8.23412,-1.903243 10.29726,0 18.5198,8.222022 18.5198,18.519282 0,10.297258 -8.22254,18.5198 -18.5198,18.5198 -2.96668,0 -5.75894,-0.68577 -8.23412,-1.90376 v 12.44937 c 2.62017,0.74731 5.38255,1.14773 8.23412,1.14773 16.61717,0 30.21521,-13.59598 30.21521,-30.21314 0,-13.157496 -8.52596,-24.418676 -20.32485,-28.53831 l 13.22916,-10.88409 z"/>
  </g>
  <g aria-label="PERSONA" id="text1021" style="font-style:normal;font-variant:normal;font-weight:300;font-stretch:normal;font-size:50.8px;line-height:1.45;font-family:Roboto;-inkscape-font-specification:'Roboto Light';letter-spacing:0px;fill:#0380ca;fill-opacity:1;stroke-width:0.264583" transform="matrix(0.84898, 0, 0, 0.84898, 336.814972, -45.299923)">
    <path d="m -257.44094,76.601904 h -9.06218 v 21.06345 h 3.49016 v -8.78665 h 5.57202 c 3.33709,-0.0612 6.00063,-2.786 6.00063,-6.15371 0,-3.33709 -2.66354,-6.06186 -6.00063,-6.12309 z m 0,8.75602 h -5.57202 v -5.26586 h 5.57202 c 1.40831,0.0612 2.54108,1.22462 2.54108,2.63293 0,1.43893 -1.13277,2.60232 -2.54108,2.63293 z" style="font-style: normal; font-variant: normal; font-weight: normal; font-stretch: normal; font-family: Beckman; fill-opacity: 1; stroke-width: 0.159455; fill: rgb(0, 75, 118);" id="path1033"/>
    <path d="m -235.27536,80.122684 v -3.52078 h -13.10343 v 21.06345 h 13.10343 v -3.52078 h -9.61326 v -5.26587 h 8.14372 v -3.49016 h -8.14372 v -5.26586 z" style="font-style: normal; font-variant: normal; font-weight: normal; font-stretch: normal; font-family: Beckman; fill-opacity: 1; stroke-width: 0.159455; fill: rgb(0, 75, 118);" id="path1035"/>
    <path d="m -221.92702,88.756244 c 3.09217,-0.64292 5.17402,-3.49016 4.86786,-6.64356 -0.30615,-3.12278 -2.93908,-5.51078 -6.09248,-5.51078 h -9.06218 v 21.06345 h 3.49017 v -8.78665 h 2.60231 l 6.03125,8.78665 h 4.28617 z m -6.79663,-3.39832 v -5.26586 h 5.57201 c 0.94908,-0.0306 1.86755,0.48985 2.3574,1.31647 0.48984,0.82661 0.48984,1.83693 0,2.66354 -0.48985,0.82662 -1.40832,1.31647 -2.3574,1.28585 z" style="font-style: normal; font-variant: normal; font-weight: normal; font-stretch: normal; font-family: Beckman; fill-opacity: 1; stroke-width: 0.159455; fill: rgb(0, 75, 118);" id="path1037"/>
    <path d="m -205.42531,86.123314 -3.82694,-1.43893 c -1.07154,-0.398 -1.68385,-1.53077 -1.50016,-2.63293 0.21431,-1.13277 1.19401,-1.95939 2.32678,-1.95939 h 0.94908 c 0.88785,0 1.71447,0.52046 2.11247,1.34708 l 3.15339,-1.56139 c -0.97969,-2.02062 -3.03093,-3.27585 -5.26586,-3.27585 h -0.94908 c -2.81663,0 -5.26586,2.02062 -5.75571,4.80663 -0.52047,2.81662 1.04092,5.57201 3.70447,6.55171 l 3.82694,1.43893 c 0.91846,0.33677 1.53077,1.22462 1.53077,2.20431 v 0.0918 c 0,1.31646 -1.07154,2.35739 -2.35739,2.35739 h -0.94908 c -1.13277,0 -2.11247,-0.796 -2.32678,-1.92877 l -3.45955,0.58169 c 0.48985,2.81662 2.93909,4.86786 5.78633,4.86786 h 0.94908 c 3.21462,0 5.84756,-2.63293 5.84756,-5.87817 v -0.0918 c 0,-2.44924 -1.50016,-4.62294 -3.79632,-5.48017 z" style="font-style: normal; font-variant: normal; font-weight: normal; font-stretch: normal; font-family: Beckman; fill-opacity: 1; stroke-width: 0.159455; fill: rgb(0, 75, 118);" id="path1039"/>
    <path d="m -188.03573,76.601904 c -5.78632,0 -10.50111,4.71478 -10.50111,10.53172 0,5.81694 4.71479,10.53173 10.50111,10.53173 5.81694,0 10.53173,-4.71479 10.53173,-10.53173 0,-5.81694 -4.71479,-10.53172 -10.53173,-10.53172 z m 0,17.54267 c -3.85755,0 -7.01094,-3.1534 -7.01094,-7.01095 0,-3.88816 3.15339,-7.04156 7.01094,-7.04156 3.88817,0 7.04156,3.1534 7.04156,7.04156 0,3.85755 -3.15339,7.01095 -7.04156,7.01095 z" style="font-style: normal; font-variant: normal; font-weight: normal; font-stretch: normal; font-family: Beckman; fill-opacity: 1; stroke-width: 0.159455; fill: rgb(0, 75, 118);" id="path1041"/>
    <path d="m -161.24724,76.601904 v 12.79727 l -13.16465,-12.88912 v 21.1553 h 3.49016 v -12.79727 l 13.16466,12.8585 v -21.12468 z" style="font-style: normal; font-variant: normal; font-weight: normal; font-stretch: normal; font-family: Beckman; fill-opacity: 1; stroke-width: 0.159455; fill: rgb(0, 75, 118);" id="path1043"/>
    <path d="m -145.78646,76.418204 -8.87849,21.24715 h 3.79632 l 1.46954,-3.49017 h 7.19464 l 1.43892,3.49017 h 3.79632 z m -2.14309,14.2362 2.14309,-5.11278 2.11246,5.11278 z" style="font-style: normal; font-variant: normal; font-weight: normal; font-stretch: normal; font-family: Beckman; fill-opacity: 1; stroke-width: 0.159455; fill: rgb(0, 75, 118);" id="path1045"/>
  </g>
</svg>