<?xml version="1.0" encoding="utf-8"?>
<svg viewBox="-30 -86.6 593.2 582.2" xmlns="http://www.w3.org/2000/svg" xmlns:bx="https://boxy-svg.com">
  <path d="M 237.9 -79.9 Q 263.5 -94.7 289.1 -79.9 L 493.5 38.1 Q 519.1 52.9 519.1 82.4 L 519.1 318.4 Q 519.1 347.9 493.5 362.7 L 289.1 480.7 Q 263.5 495.5 237.9 480.7 L 33.5 362.7 Q 7.9 348 7.9 318.4 L 7.9 82.4 Q 7.9 52.8 33.5 38.1 Z" style="fill: rgb(255, 255, 255);" bx:shape="n-gon 263.5 200.4 295.1 295.1 6 0.1 1@1624b93f"/>
  <path d="M 242.8 457.9 C 258.5 466.8 274.2 466.8 290.1 457.9 L 478.3 349.5 C 493.8 339.9 501.5 326.4 501.5 308.2 L 501.5 90.9 C 501.5 72.8 493.8 59.6 478.3 50.3 L 290.1 -58.4 C 274.2 -67.3 258.5 -67.3 242.8 -58.4 L 54.7 50.3 C 38.9 59.6 31.2 72.8 31.2 90.9 L 31.2 308.2 C 31.2 326.4 38.9 339.9 54.7 349.5 M 75 336.4 C 61 328.2 53.8 315.9 53.8 299.2 L 53.8 102.2 C 53.8 85.7 60.7 73.4 75 65.1 L 246.3 -33.4 C 260.3 -41.4 274.3 -41.6 288.3 -33.4 L 459.6 65.1 C 473.6 73.5 480.8 85.7 480.8 102.2 L 480.8 299.2 C 480.9 315.9 473.8 328.2 459.6 336.4 L 288.3 435 C 274.3 443.3 260.3 443.3 246.3 435 M 434.5 328.2 L 392.4 304 L 266.1 376.5 L 139.9 304.2 L 98.5 328.5 L 267.2 425.6 M 241.9 -9.1 L 72.4 88.7 L 72.4 283.7 L 113.9 259.3 L 116.6 111.9 L 156.4 89.2 L 157.1 137 L 137.1 147.8 L 137.1 247 L 178.1 222.3 L 178.7 76.1 L 217.7 53.8 L 217.8 100.2 L 198 111 L 198 210.2 L 239.6 186 M 294.4 184.5 L 335.6 208.8 L 335.6 110.1 L 316 99 L 316.1 52.9 L 355.2 75.3 L 355.4 221.4 L 396.7 245.8 L 396.7 146.8 L 376.8 136 L 377.3 88.2 L 417.6 111 L 420 258 L 461.1 282.6 L 461.1 87.6 L 292.1 -10.2" style="stroke-miterlimit: 1; fill: rgb(96, 131, 207);" transform="matrix(-0.49999, -0.866031, 0.866031, -0.49999, 226.532804, 530.29039)"/>
</svg>