<?xml version="1.0" encoding="utf-8"?>
<svg viewBox="0 0 500 500" xmlns="http://www.w3.org/2000/svg">
  <path d="M 228.4 482.4 C 242.7 490.5 256.9 490.5 271.3 482.4 L 442 384.1 C 456 375.4 463 363.2 463 346.7 L 463 149.7 C 463 133.3 456 121.3 442 112.9 L 271.3 14.3 C 256.9 6.2 242.7 6.2 228.4 14.3 L 57.9 112.9 C 43.6 121.3 36.6 133.3 36.6 149.7 L 36.6 346.7 C 36.6 363.2 43.6 375.4 57.9 384.1 M 76.3 372.3 C 63.6 364.8 57.1 353.7 57.1 338.5 L 57.1 159.9 C 57.1 145 63.3 133.8 76.3 126.3 L 231.6 37 C 244.3 29.7 257 29.5 269.7 37 L 425 126.3 C 437.7 133.9 444.2 145 444.2 159.9 L 444.2 338.5 C 444.3 353.7 437.9 364.8 425 372.3 L 269.7 461.7 C 257 469.2 244.3 469.2 231.6 461.7 M 402.2 364.8 L 364.1 342.9 L 249.6 408.6 L 135.1 343.1 L 97.6 365.1 L 250.6 453.1 M 227.6 59 L 73.9 147.7 L 73.9 324.5 L 111.6 302.4 L 114 168.7 L 150.1 148.1 L 150.7 191.5 L 132.6 201.3 L 132.6 291.2 L 169.8 268.8 L 170.3 136.3 L 205.7 116 L 205.8 158.1 L 187.8 167.9 L 187.8 257.8 L 225.5 235.9 M 275.2 234.5 L 312.6 256.6 L 312.6 167.1 L 294.8 157 L 294.9 115.2 L 330.3 135.5 L 330.5 268 L 368 290.1 L 368 200.4 L 349.9 190.6 L 350.4 147.2 L 386.9 167.9 L 389.1 301.2 L 426.4 323.5 L 426.4 146.7 L 273.1 58" style="stroke-miterlimit: 1; fill: rgb(96, 131, 207);" transform="matrix(-1, -0.000062, 0.000062, -1, 499.584593, 496.715488)"/>
</svg>