<?xml version="1.0" encoding="utf-8"?>
<svg viewBox="-4436.9 -1696.8 2826.8 2989.3" xmlns="http://www.w3.org/2000/svg">
  <path d="M -3143.7 1157.2 C -3060.2 1204.6 -2977.1 1204.6 -2892.4 1157.2 L -1891.8 580.5 C -1809.6 529.8 -1768.7 457.9 -1768.7 361.1 L -1768.7 -794 C -1768.7 -890.4 -1809.6 -960.6 -1891.8 -1010.1 L -2892.4 -1588.1 C -2977.1 -1635.4 -3060.2 -1635.4 -3143.7 -1588.1 L -4143.9 -1010.1 C -4227.8 -960.6 -4268.7 -890.4 -4268.7 -794 L -4268.7 361.1 C -4268.7 457.9 -4227.8 529.8 -4143.9 580.5 M -4035.8 511.3 C -4110.3 467.4 -4148.6 401.9 -4148.6 313.3 L -4148.6 -734.2 C -4148.6 -821.6 -4112 -887 -4035.8 -931.3 L -3125.2 -1455.1 C -3050.7 -1497.7 -2976.3 -1498.6 -2901.8 -1455.1 L -1991.2 -931.3 C -1916.7 -886.6 -1878.4 -821.6 -1878.4 -734.2 L -1878.4 313.3 C -1878 401.9 -1915.9 467.4 -1991.2 511.3 L -2901.8 1035.4 C -2976.3 1079.3 -3050.7 1079.3 -3125.2 1035.4 M -2124.6 467.4 L -2348.4 338.7 L -3020.2 724.3 L -3691.1 340 L -3911 469.1 L -3014.2 985.5 M -3148.9 -1326 L -4050 -805.7 L -4050 231.1 L -3829.3 101.1 L -3814.6 -682.6 L -3603.3 -803.1 L -3599.5 -549.2 L -3705.8 -491.5 L -3705.8 35.7 L -3488 -95.6 L -3484.5 -872.8 L -3277.5 -991.6 L -3276.7 -744.6 L -3382.1 -687.3 L -3382.1 -159.7 L -3160.9 -288.4 M -2869.5 -296.5 L -2650.5 -167.4 L -2650.5 -692.1 L -2754.6 -751 L -2754.2 -996.3 L -2546.3 -877.1 L -2545.1 -100.3 L -2325.6 29.2 L -2325.6 -497.1 L -2431.4 -554.3 L -2428.9 -808.7 L -2214.5 -687.3 L -2201.6 94.2 L -1983.4 225.1 L -1983.4 -811.7 L -2881.6 -1331.6" style="stroke-miterlimit: 1; fill: rgb(255, 255, 255);" transform="matrix(-0.49999, -0.866031, 0.866031, -0.49999, -4341.466295, -2937.404796)"/>
</svg>