<svg id="Agrupar_1" data-name="Agrupar 1" xmlns="http://www.w3.org/2000/svg" width="1280" height="567" viewBox="0 0 1280 567">
  <defs>
    <style>
      .cls-1, .cls-2, .cls-4, .cls-5, .cls-6 {
        fill-rule: evenodd;
      }

      .cls-2, .cls-3 {
        fill: #fff;
      }

      .cls-4 {
        fill: #0074ff;
      }

      .cls-5 {
        fill: red;
      }

      .cls-6 {
        fill: #ffea00;
      }
    </style>
  </defs>
  <path id="Forma_8" data-name="Forma 8" class="cls-1" d="M67,337c2.57,0.964-14.864-3.994-29-10,2.884-13.55-1.266-85.488,68-130s149.5-12.664,176,5,41,53,41,53,34.583-75.527,130-78,129,63,129,63c30.708-54.8,100-61,100-61S636.325,59.394,827,44s282,16,282,16,165.63,18.946,147,125S966,391,966,391s32.747,74.972-31,115-116-27-116-27c-128.257,97.921-241-11-241-11C475.4,575.328,356,483,356,483l-1,13c-69.578,48.189-128,3-128,3C47.08,576.106,10.775,390.006,67,337Z"/>
  <path id="Forma_1" data-name="Forma 1" class="cls-2" d="M147,314c-0.141.881-65-17-65-17s7.712-48.837,48-67,96.245-13.636,126,4c30.019,15.267,37.947,52.787,39,62s1,112,1,112,1.072,21.775,28,13c2.194,0.2-4,48-4,48s-66.861,30.831-90-29c-35.476,49.726-107.578,40.687-127.51,20.026S63.105,394.886,101,357c34.008-28.172,75.779-20.578,117.875-36.314C225.558,274.758,160.161,252.618,147,314Z"/>
  <path id="Forma_9" data-name="Forma 9" class="cls-1" d="M218,366c-13.718,6.637-78.785,5.605-57,48C193.968,439.441,226.624,402.045,218,366Z"/>
  <path id="Forma_2" data-name="Forma 2" class="cls-2" d="M416,369c0.184-1.448,153,0,153,0s29.493-142.3-106-149S339.365,365.783,341.28,374.4,357.674,479.05,455,477s111-66,111-66-60.394-23.156-61-22C476.493,443.394,410.777,410.122,416,369Z"/>
  <path id="Forma_10" data-name="Forma 10" class="cls-1" d="M416,323c11.78-71.21,86.355-47.919,81,0C497,325.142,416,323,416,323Z"/>
  <path id="Forma_3" data-name="Forma 3" class="cls-2" d="M598,429l35-46s27.527,31.9,64,36,54.8-21.159,27-33c-31.439-13.391-67.995-.555-109-45-29.135-51.781,2.52-115.575,81-122s116,41,116,41-33.991,48.152-35,47c-31.343-35.753-95.79-38.714-96-16-0.21,25.213,44.076,21.618,91,38s44.728,58.7,41.415,78.324C807.276,445.9,782.562,476.082,705,477S598,429,598,429Z"/>
  <circle id="Elipse_1" data-name="Elipse 1" class="cls-3" cx="889" cy="430" r="48"/>
  <path id="Forma_4" data-name="Forma 4" class="cls-4" d="M844,286l-14,16,31,26C855.451,316.029,844,286,844,286Z"/>
  <path id="Forma_5" data-name="Forma 5" class="cls-4" d="M724,177c46.2-1.062,91,31,91,31-24.514-52.458-16-121-16-121C683.505,104.254,724,177,724,177Z"/>
  <path id="Forma_6" data-name="Forma 6" class="cls-5" d="M909,334c57.84-131.172,126-247,126-247S922.3,71.127,856,81,909,334,909,334Z"/>
  <path id="Forma_7" data-name="Forma 7" class="cls-6" d="M944,357s102.38-255.586,140-262c29.07,4.276,143.12,12.156,135,81C1210.02,251.686,944,357,944,357Z"/>
</svg>
