<?xml version="1.0" encoding="utf-8"?>
<svg viewBox="46.1 28.4 401.8 441.5" xmlns="http://www.w3.org/2000/svg">
  <path d="M 227.6 461.5 C 240.5 468.8 253.4 468.8 266.5 461.5 L 421.2 372.4 C 433.9 364.5 440.3 353.4 440.3 338.4 L 440.3 159.8 C 440.3 144.9 433.9 134 421.2 126.4 L 266.5 37 C 253.4 29.7 240.5 29.7 227.6 37 L 73 126.4 C 60 134 53.6 144.9 53.6 159.8 L 53.6 338.4 C 53.6 353.4 60 364.5 73 372.4 M 89.6 361.6 C 78.1 354.8 72.2 344.7 72.2 331 L 72.2 169.1 C 72.2 155.5 77.9 145.4 89.6 138.6 L 230.5 57.6 C 242 51 253.5 50.8 265 57.6 L 405.8 138.6 C 417.3 145.5 423.2 155.5 423.2 169.1 L 423.2 331 C 423.3 344.7 417.5 354.8 405.8 361.6 L 265 442.6 C 253.5 449.5 242 449.5 230.5 442.6 M 385.2 354.8 L 350.6 335 L 246.7 394.6 L 143 335.1 L 109 355.1 L 247.6 434.9 M 226.9 77.6 L 87.5 158 L 87.5 318.3 L 121.6 298.2 L 123.8 177 L 156.6 158.4 L 157.1 197.7 L 140.7 206.5 L 140.7 288.1 L 174.4 267.8 L 174.9 147.6 L 207 129.3 L 207 167.4 L 190.8 176.3 L 190.8 257.8 L 225 237.9 M 270 236.7 L 303.9 256.7 L 303.9 175.6 L 287.8 166.4 L 287.8 128.5 L 320 146.9 L 320.2 267 L 354.1 287.1 L 354.1 205.7 L 337.7 196.8 L 338.2 157.5 L 371.3 176.3 L 373.3 297.1 L 407 317.4 L 407 157.1 L 268.1 76.7" style="stroke-miterlimit: 1; fill: rgb(3, 87, 0);" transform="matrix(-0.49999, -0.866031, 0.866031, -0.49999, 154.564285, 587.738892)"/>
</svg>