<?xml version="1.0" encoding="utf-8"?>
<svg viewBox="25.8 110.1 163.1 78.9" xmlns="http://www.w3.org/2000/svg">
  <g id="layer1">
    <g id="g986" transform="matrix(0, -0.919001, 0.854269, 0, -68.441956, 207.715942)" style="">
      <path style="fill-opacity: 1; stroke-width: 5.1; paint-order: stroke markers; fill: rgb(222, 6, 87);" d="M 60.8 117.8 L 31.9 135.2 L 36.1 137.7 L 60.6 123.1 L 60.8 117.8 Z" id="path952"/>
      <path style="fill-opacity: 1; stroke-width: 5.1; paint-order: stroke markers; fill: rgb(8, 66, 152);" d="M 64.9 118 L 64.9 122.9 L 91.7 138.8 L 91.7 169.7 L 95.9 172.2 L 95.9 136.3 L 64.9 118 Z" id="path950"/>
      <path style="fill: rgb(0, 0, 0); fill-opacity: 1; stroke-width: 5.1; paint-order: stroke markers; visibility: hidden;" d="m 62.943469,117.2776 -2.26601,1.30844 v 4.91236 l 2.26498,-1.30741 2.07429,1.19786 v -4.91443 z" id="path938"/>
      <path id="path942" style="fill-opacity: 1; stroke-width: 7.55856; paint-order: stroke markers; fill: rgb(255, 196, 0);" d="M 62.8 156.2 L 60.6 154.8 L 60.7 192.1 L 62.9 193.4 L 65 192.3 L 64.9 154.9 L 62.8 156.2 Z"/>
      <path id="path970" style="fill-opacity: 1; stroke-width: 6.30907; paint-order: stroke markers; fill: rgb(8, 66, 152);" d="m 82.785149,158.08854 v 22.63118 h 1.84279 v -22.63118 z m -10.44122,4.7718 v 22.6317 h 1.84227 v -22.6317 z m 13.37076,-18.15083 -4.3465,2.49597 v 15.4156 l 4.3465,-2.49597 z m -10.3942,5.96915 -4.34702,2.49597 v 15.4156 l 4.34702,-2.49598 z m 13.90872,22.64874 -19.86546,11.46959 v 4.91442 l 24.12101,-13.92731 z"/>
      <path id="path944" style="fill:#de0657;fill-opacity:1;stroke-width:6.30907;paint-order:stroke markers fill" d="m 41.019229,157.14338 v 22.63169 h 1.84227 v -22.63169 z m 10.44122,6.33139 v 22.63118 h 1.84278 v -22.63118 z m -11.76414,-19.03708 v 15.4156 l 4.34651,2.49545 v -15.41559 z m 10.3942,5.96863 v 15.4156 l 4.34651,2.49597 v -15.4156 z m -20.11763,-11.29078 v 35.26709 l 26.35756,15.21768 v -4.91339 l -22.10304,-12.76098 v -30.35422 z"/>
    </g>
    <text style="fill: rgb(11, 194, 78); font-family: &quot;Arial Rounded MT Bold&quot;; font-size: 48px; letter-spacing: -3.2px; white-space: pre;"><tspan x="99.4" y="161.4" style="fill: rgb(8, 66, 152);">aes</tspan><tspan style="fill: rgb(255, 196, 0);">.</tspan></text>
  </g>
</svg>