<?xml version="1.0" encoding="utf-8"?>
<svg viewBox="61.9 -3.1 1180 529.1" xmlns="http://www.w3.org/2000/svg" xmlns:bx="https://boxy-svg.com">
  <g transform="matrix(1, 0, 0, 1, -9.130373, -1.324001)">
    <path d="M 332.8 44.4 Q 353 32.7 373.2 44.4 L 534.7 137.6 Q 554.9 149.3 554.9 172.6 L 554.9 359 Q 554.9 382.3 534.7 394 L 373.2 487.2 Q 353 498.9 332.8 487.2 L 171.3 394 Q 151.1 382.4 151.1 359 L 151.1 172.6 Q 151.1 149.3 171.3 137.6 Z" style="fill-opacity: 0.76; fill: none; stroke-width: 27px; stroke: rgb(35, 112, 220);" bx:shape="n-gon 353 265.8 233.1 233.1 6 0.1 1@93a96c55"/>
    <g transform="matrix(1, 0, 0, 1, -153.623535, -31.497221)">
      <path d="M 498.2 485.7 L 338.3 393.3 L 338.3 208.7 L 377.4 232 L 379.8 371.1 L 417.8 392.9 L 418.1 347.6 L 399.2 337.3 L 399.2 243.5 L 438.3 266.7 L 438.6 404.8 L 475.7 426.1 L 476 382.4 L 457.1 372.1 L 457.1 278.3 L 496.2 301.5 L 498.2 485.7 Z" style="fill: rgb(35, 112, 220);"/>
    </g>
    <path d="M 432.8 25.6 L 432.9 71.5 L 313.7 140.9 L 313.3 278.6 L 273.8 301 L 273.8 117 L 432.8 25.6 Z" style="fill: rgb(255, 0, 0);" transform="matrix(0.5, 0.866025, -0.866025, 0.5, 318.096881, -224.360064)"/>
    <g transform="matrix(-1, 0, 0, 1, 857.084045, -30.518335)">
      <path d="M 498.2 485.7 L 338.3 393.3 L 338.3 208.7 L 377.4 232 L 379.8 371.1 L 417.8 392.9 L 418.1 347.6 L 399.2 337.3 L 399.2 243.5 L 438.3 266.7 L 438.6 404.8 L 475.7 426.1 L 476 382.4 L 457.1 372.1 L 457.1 278.3 L 496.2 301.5 L 498.2 485.7 Z" style="fill: rgb(255, 187, 0);"/>
    </g>
  </g>
  <path d="M 731.6 339.4 C 719.3 349 707.3 356.2 695.8 361 C 684.2 365.8 671.3 368.2 657 368.2 C 643.9 368.2 632.4 365.7 622.4 360.5 C 612.5 355.2 604.9 348.3 599.5 339.4 C 594.1 330.6 591.5 321 591.5 310.6 C 591.5 296.7 595.9 284.7 604.8 274.9 C 613.6 265 625.8 258.5 641.3 255.1 C 644.4 254.3 652.5 252.6 665.3 250 C 678.2 247.4 689.2 245 698.4 242.7 C 707.5 240.6 717.5 237.9 728.2 234.9 C 727.6 221.4 724.9 211.5 720.1 205.2 C 715.3 198.9 705.3 195.7 690.3 195.7 C 677.3 195.7 667.6 197.6 661 201.2 C 654.4 204.7 648.8 210.2 644.1 217.4 C 639.5 224.7 636.1 229.5 634.2 231.7 C 632.2 234.1 628.1 235.2 621.8 235.2 C 616.1 235.2 611.1 233.4 606.9 229.7 C 602.7 226 600.7 221.3 600.7 215.5 C 600.7 206.6 603.9 197.8 610.2 189.4 C 616.5 180.9 626.5 173.9 640 168.5 C 653.4 163 670.1 160.2 690.3 160.2 C 712.7 160.2 730.3 162.9 743.2 168.1 C 756 173.4 765.1 181.9 770.4 193.4 C 775.7 204.7 778.4 220 778.4 239 C 778.4 250.9 778.3 261.2 778.3 269.5 C 778.2 277.8 778.2 287.1 777.9 297.3 C 777.9 306.9 779.6 317 782.7 327.3 C 785.9 337.7 787.5 344.4 787.5 347.5 C 787.5 352.6 785.1 357.4 780.2 361.8 C 775.2 366 769.6 368.2 763.4 368.2 C 758.1 368.2 752.9 365.8 747.9 360.8 C 742.7 355.9 737.3 348.8 731.6 339.4 Z M 728.2 265.5 C 720.7 268.3 709.9 271.1 695.6 274.2 C 681.3 277.2 671.4 279.6 665.9 281 C 660.4 282.4 655.2 285.2 650.2 289.4 C 645.3 293.5 642.7 299.4 642.7 306.9 C 642.7 314.6 645.6 321.2 651.5 326.6 C 657.3 332 665.1 334.7 674.6 334.7 C 684.7 334.7 693.9 332.5 702.5 328.1 C 711.1 323.7 717.3 317.9 721.3 311 C 726 303.3 728.2 290.5 728.2 272.8 Z M 943.4 277 L 843.5 277 C 843.6 288.5 846 298.8 850.5 307.6 C 855.1 316.5 861.1 323.1 868.6 327.7 C 876.2 332.1 884.5 334.3 893.6 334.3 C 899.7 334.3 905.3 333.6 910.3 332.2 C 915.4 330.8 920.3 328.5 925 325.4 C 929.8 322.4 934.2 319.1 938.1 315.7 C 942.1 312.2 947.3 307.4 953.6 301.4 C 956.3 299.2 960.1 298.1 964.9 298.1 C 970.2 298.1 974.4 299.5 977.6 302.3 C 980.8 305.3 982.5 309.2 982.5 314.5 C 982.5 319.1 980.6 324.5 977.1 330.7 C 973.4 336.9 967.9 342.8 960.7 348.5 C 953.4 354.2 944.2 358.9 933.2 362.6 C 922.2 366.4 909.4 368.2 895.1 368.2 C 862.4 368.2 836.8 358.9 818.6 340.2 C 800.4 321.4 791.3 296.1 791.3 264 C 791.3 249 793.5 235 798 222 C 802.6 209.1 809.1 198 817.7 188.8 C 826.2 179.6 836.9 172.5 849.5 167.6 C 862 162.6 876 160.2 891.3 160.2 C 911.3 160.2 928.4 164.4 942.7 172.8 C 957 181.3 967.7 192.2 974.7 205.4 C 981.9 218.8 985.4 232.4 985.4 246.3 C 985.4 259 981.8 267.4 974.4 271.2 C 967.1 275 956.7 277 943.4 277 Z M 843.5 247.9 L 936 247.9 C 934.9 230.5 930.2 217.4 922 208.7 C 913.7 200 903.1 195.7 889.7 195.7 C 876.9 195.7 866.5 200.2 858.4 209 C 850.2 217.8 845.2 230.8 843.5 247.9 Z M 1163.6 301.4 C 1163.6 315.6 1160.2 327.5 1153.3 337.6 C 1146.5 347.7 1136.3 355.2 1122.9 360.5 C 1109.5 365.7 1093.2 368.2 1074 368.2 C 1055.7 368.2 1040 365.4 1026.8 359.8 C 1013.8 354.2 1004.1 347.1 997.8 338.8 C 991.6 330.4 988.5 321.9 988.5 313.5 C 988.5 307.8 990.5 303 994.4 299 C 998.4 295 1003.5 293.1 1009.6 293.1 C 1015 293.1 1019.1 294.3 1022 296.9 C 1024.8 299.5 1027.6 303.3 1030.2 308 C 1035.5 317.1 1041.7 323.9 1049 328.4 C 1056.3 332.8 1066.2 335 1078.9 335 C 1089.1 335 1097.4 332.8 1104 328.2 C 1110.6 323.7 1113.8 318.5 1113.8 312.6 C 1113.8 303.7 1110.4 297.2 1103.6 293.1 C 1096.8 288.9 1085.6 285 1070.1 281.2 C 1052.5 276.9 1038.2 272.3 1027.2 267.5 C 1016 262.7 1007.2 256.3 1000.7 248.5 C 994.1 240.6 990.7 231 990.7 219.5 C 990.7 209.3 993.7 199.6 1000 190.5 C 1006.1 181.4 1015 174.1 1026.9 168.7 C 1038.9 163.3 1053.2 160.6 1070.1 160.6 C 1083.2 160.6 1095.2 161.9 1105.6 164.7 C 1116.2 167.4 1125 171.1 1132 175.8 C 1139.1 180.3 1144.5 185.5 1148.1 191.1 C 1151.9 196.6 1153.6 202.2 1153.6 207.5 C 1153.6 213.4 1151.7 218.2 1147.7 222 C 1143.9 225.7 1138.2 227.6 1131 227.6 C 1125.8 227.6 1121.4 226.1 1117.6 223 C 1114 220.1 1109.7 215.5 1105.1 209.5 C 1101.2 204.6 1096.6 200.6 1091.3 197.6 C 1086.2 194.6 1079 193.1 1070.1 193.1 C 1060.8 193.1 1053.2 195.1 1047 199 C 1040.9 203 1037.8 207.9 1037.8 213.8 C 1037.8 219 1040.1 223.5 1044.6 226.9 C 1049.1 230.3 1055.2 233.1 1062.7 235.3 C 1070.3 237.7 1080.9 240.4 1094.1 243.7 C 1110 247.5 1123 252.1 1133 257.5 C 1143.1 262.8 1150.7 269.1 1155.8 276.5 C 1161 283.8 1163.6 292.1 1163.6 301.4 Z" style="white-space: pre; fill: rgb(35, 112, 220);"/>
  <path d="M 1178.1 359.4 C 1170.3 359.4 1163.6 356.8 1158 351.9 C 1152.4 346.9 1149.6 340 1149.6 330.9 C 1149.6 323.3 1152.3 316.7 1157.6 311.3 C 1162.9 305.8 1169.6 303.1 1177.5 303.1 C 1185.3 303.1 1192 305.8 1197.5 311.2 C 1203.2 316.6 1205.9 323.2 1205.9 330.9 C 1205.9 339.8 1203.2 346.8 1197.5 351.8 C 1192 356.8 1185.4 359.4 1178.1 359.4 Z" style="white-space: pre; stroke: rgb(255, 255, 255); paint-order: stroke; stroke-width: 29px; fill: rgb(255, 187, 0);"/>
</svg>