<?xml version="1.0" encoding="UTF-8" standalone="no"?>
<svg
   xmlns:dc="http://purl.org/dc/elements/1.1/"
   xmlns:cc="http://creativecommons.org/ns#"
   xmlns:rdf="http://www.w3.org/1999/02/22-rdf-syntax-ns#"
   xmlns:svg="http://www.w3.org/2000/svg"
   xmlns="http://www.w3.org/2000/svg"
   xmlns:sodipodi="http://sodipodi.sourceforge.net/DTD/sodipodi-0.dtd"
   xmlns:inkscape="http://www.inkscape.org/namespaces/inkscape"
   width="210mm"
   height="297mm"
   viewBox="0 0 210 297"
   version="1.1"
   id="svg8"
   inkscape:version="1.0.2-2 (e86c870879, 2021-01-15)"
   sodipodi:docname="AES Logo V2.svg">
  <defs
     id="defs2" />
  <sodipodi:namedview
     id="base"
     pagecolor="#ffffff"
     bordercolor="#666666"
     borderopacity="1.0"
     inkscape:pageopacity="0.0"
     inkscape:pageshadow="2"
     inkscape:zoom="0.7"
     inkscape:cx="112.79319"
     inkscape:cy="595.78628"
     inkscape:document-units="mm"
     inkscape:current-layer="layer1"
     inkscape:document-rotation="0"
     showgrid="false"
     inkscape:window-width="1920"
     inkscape:window-height="1017"
     inkscape:window-x="-8"
     inkscape:window-y="-8"
     inkscape:window-maximized="1" />
  <metadata
     id="metadata5">
    <rdf:RDF>
      <cc:Work
         rdf:about="">
        <dc:format>image/svg+xml</dc:format>
        <dc:type
           rdf:resource="http://purl.org/dc/dcmitype/StillImage" />
        <dc:title></dc:title>
      </cc:Work>
    </rdf:RDF>
  </metadata>
  <g
     inkscape:label="Layer 1"
     inkscape:groupmode="layer"
     id="layer1">
    <g
       id="g986"
       transform="matrix(0.91900131,0,0,0.91900131,3.2380102,5.7350948)">
      <path
         style="fill:#000000;fill-opacity:1;stroke-width:5.1;paint-order:stroke markers fill"
         d="m 60.677459,187.19684 v 4.91288 l 2.26601,1.30845 2.07326,-1.19683 v -4.91495 l -2.07429,1.19786 z"
         id="path958" />
      <path
         style="fill:#fdb143;fill-opacity:1;stroke-width:5.1;paint-order:stroke markers fill"
         d="m 56.330439,121.09545 -24.4383,14.10922 4.25503,2.45618 20.18327,-11.65252 z"
         id="path952" />
      <path
         style="fill:#0bc24e;fill-opacity:1;stroke-width:5.1;paint-order:stroke markers fill"
         d="m 69.363749,120.98434 v 4.91392 l 22.29218,12.87105 v 30.94023 l 4.25659,2.45721 v -35.85414 z"
         id="path950" />
      <path
         style="fill:#000000;fill-opacity:1;stroke-width:5.1;paint-order:stroke markers fill"
         d="m 62.943469,117.2776 -2.26601,1.30844 v 4.91236 l 2.26498,-1.30741 2.07429,1.19786 v -4.91443 z"
         id="path938" />
      <path
         id="path942"
         style="fill:#fdb143;fill-opacity:1;stroke-width:7.55856;paint-order:stroke markers fill"
         d="m 62.943469,117.24659 -2.26963,1.31051 v 73.58156 l 2.26963,1.31051 2.07688,-1.19889 v -73.8048 z" />
      <path
         id="path970"
         style="fill:#09aafe;fill-opacity:1;stroke-width:6.30907;paint-order:stroke markers fill"
         d="m 82.785149,158.08854 v 22.63118 h 1.84279 v -22.63118 z m -10.44122,4.7718 v 22.6317 h 1.84227 v -22.6317 z m 13.37076,-18.15083 -4.3465,2.49597 v 15.4156 l 4.3465,-2.49597 z m -10.3942,5.96915 -4.34702,2.49597 v 15.4156 l 4.34702,-2.49598 z m 13.90872,22.64874 -19.86546,11.46959 v 4.91442 l 24.12101,-13.92731 z" />
      <path
         id="path944"
         style="fill:#de0657;fill-opacity:1;stroke-width:6.30907;paint-order:stroke markers fill"
         d="m 41.019229,157.14338 v 22.63169 h 1.84227 v -22.63169 z m 10.44122,6.33139 v 22.63118 h 1.84278 v -22.63118 z m -11.76414,-19.03708 v 15.4156 l 4.34651,2.49545 v -15.41559 z m 10.3942,5.96863 v 15.4156 l 4.34651,2.49597 v -15.4156 z m -20.11763,-11.29078 v 35.26709 l 26.35756,15.21768 v -4.91339 l -22.10304,-12.76098 v -30.35422 z" />
    </g>
    <g
       aria-label="Arte e
Software"
       id="text1018"
       style="font-size:19.5664px;line-height:1.25;font-family:Roboto;-inkscape-font-specification:Roboto;letter-spacing:0px;fill:#30353b;fill-opacity:1;stroke-width:0.101909">
      <path
         d="m 103.59699,128.32704 -3.32629,14.61611 h 2.71973 l 0.56743,-2.71973 h 3.77631 l 0.56743,2.71973 h 2.71973 l -3.32629,-14.61611 z m 1.83924,2.19144 0.0978,0.99789 1.36965,6.57431 h -2.91539 l 1.36965,-6.57431 z"
         style="font-style:normal;font-variant:normal;font-weight:normal;font-stretch:normal;font-family:'a Area Kilometer 50';-inkscape-font-specification:'a Area Kilometer 50, ';fill:#30353b;fill-opacity:1;stroke-width:0.101909"
         id="path1020" />
      <path
         d="m 114.37805,142.94315 v -5.02857 h 1.99577 l 2.13274,5.02857 h 2.87626 l -2.70017,-5.45903 c 1.40878,-0.64569 2.28927,-2.03491 2.28927,-3.61978 0,-2.36754 -1.83924,-4.06982 -4.40244,-4.06982 h -4.7155 v 13.14863 z m 0,-11.01589 h 2.11317 c 1.11528,0 1.89794,0.80222 1.89794,1.91751 0,1.11528 -0.78266,1.91751 -1.89794,1.91751 h -2.11317 z"
         style="font-style:normal;font-variant:normal;font-weight:normal;font-stretch:normal;font-family:'a Area Kilometer 50';-inkscape-font-specification:'a Area Kilometer 50, ';fill:#30353b;fill-opacity:1;stroke-width:0.101909"
         id="path1022" />
      <path
         d="m 121.89151,131.92726 h 3.07192 v 11.01589 h 2.52407 v -11.01589 h 3.09149 v -2.13274 h -8.68748 z"
         style="font-style:normal;font-variant:normal;font-weight:normal;font-stretch:normal;font-family:'a Area Kilometer 50';-inkscape-font-specification:'a Area Kilometer 50, ';fill:#30353b;fill-opacity:1;stroke-width:0.101909"
         id="path1024" />
      <path
         d="m 134.37485,137.44499 h 4.93073 v -2.15231 h -4.93073 v -3.36542 h 5.65469 v -2.13274 h -8.10049 v 13.14863 h 8.27659 v -2.13274 h -5.83079 z"
         style="font-style:normal;font-variant:normal;font-weight:normal;font-stretch:normal;font-family:'a Area Kilometer 50';-inkscape-font-specification:'a Area Kilometer 50, ';fill:#30353b;fill-opacity:1;stroke-width:0.101909"
         id="path1026" />
      <path
         d="m 148.59957,137.44499 h 4.93073 v -2.15231 h -4.93073 v -3.36542 h 5.65469 v -2.13274 h -8.10049 v 13.14863 h 8.27659 v -2.13274 h -5.83079 z"
         style="font-style:normal;font-variant:normal;font-weight:normal;font-stretch:normal;font-family:'a Area Kilometer 50';-inkscape-font-specification:'a Area Kilometer 50, ';fill:#30353b;fill-opacity:1;stroke-width:0.101909"
         id="path1028" />
      <path
         d="m 100.58376,164.29009 c 0,2.58276 2.11318,4.28504 4.69594,4.28504 2.6219,0 4.73507,-1.62401 4.73507,-4.08938 0,-5.18509 -6.71128,-3.58065 -6.71128,-6.82867 0,-1.07615 0.90006,-1.95664 1.97621,-1.95664 1.07615,0 1.95664,0.95875 1.95664,2.1523 h 2.52407 c 0,-2.58276 -1.99578,-4.28504 -4.48071,-4.28504 -2.5045,0 -4.55897,1.62401 -4.55897,4.08938 0,5.1851 6.71127,3.58065 6.71127,6.82867 0,1.07615 -0.95875,1.95664 -2.1523,1.95664 -1.19355,0 -2.17187,-0.95875 -2.17187,-2.1523 z"
         style="font-style:normal;font-variant:normal;font-weight:normal;font-stretch:normal;font-family:'a Area Kilometer 50';-inkscape-font-specification:'a Area Kilometer 50, ';fill:#30353b;fill-opacity:1;stroke-width:0.101909"
         id="path1030" />
      <path
         d="m 117.99783,164.74012 c 0,0.99788 -0.93919,1.78054 -2.11317,1.78054 -1.17398,0 -2.13274,-0.86092 -2.13274,-1.91751 v -5.49816 c 0,-1.11528 0.95876,-1.99577 2.13274,-1.99577 1.17398,0 2.11317,0.86092 2.11317,1.91751 z m -6.76997,0 c 0,2.2697 1.95664,3.93284 4.6568,3.93284 2.6806,0 4.63724,-1.64358 4.63724,-3.93284 v -5.63513 c 0,-2.40666 -1.95664,-4.14807 -4.63724,-4.14807 -2.6806,0 -4.6568,1.76097 -4.6568,4.14807 z"
         style="font-style:normal;font-variant:normal;font-weight:normal;font-stretch:normal;font-family:'a Area Kilometer 50';-inkscape-font-specification:'a Area Kilometer 50, ';fill:#30353b;fill-opacity:1;stroke-width:0.101909"
         id="path1032" />
      <path
         d="m 124.59169,162.99871 h 4.8329 v -2.15231 h -4.8329 v -3.48282 h 5.55686 v -2.13273 h -8.08092 v 13.14862 h 2.52406 z"
         style="font-style:normal;font-variant:normal;font-weight:normal;font-stretch:normal;font-family:'a Area Kilometer 50';-inkscape-font-specification:'a Area Kilometer 50, ';fill:#30353b;fill-opacity:1;stroke-width:0.101909"
         id="path1034" />
      <path
         d="m 130.93118,157.36358 h 3.07193 v 11.01589 h 2.52406 v -11.01589 h 3.09149 v -2.13273 h -8.68748 z"
         style="font-style:normal;font-variant:normal;font-weight:normal;font-stretch:normal;font-family:'a Area Kilometer 50';-inkscape-font-specification:'a Area Kilometer 50, ';fill:#30353b;fill-opacity:1;stroke-width:0.101909"
         id="path1036" />
      <path
         d="m 150.84976,155.23085 -1.21312,10.99631 -0.0783,-1.76097 -1.48705,-8.33529 h -2.3871 l -1.48705,8.33529 -0.0783,1.66314 -1.17399,-10.89848 h -2.4458 l 1.58488,13.14862 h 3.58065 l 1.09572,-6.55475 0.1174,-1.62401 0.1174,1.62401 1.09572,6.55475 h 3.71761 l 1.70228,-13.14862 z"
         style="font-style:normal;font-variant:normal;font-weight:normal;font-stretch:normal;font-family:'a Area Kilometer 50';-inkscape-font-specification:'a Area Kilometer 50, ';fill:#30353b;fill-opacity:1;stroke-width:0.101909"
         id="path1038" />
      <path
         d="m 156.99358,155.23085 -2.99365,13.14862 h 2.4458 l 0.48916,-2.34797 h 3.44368 l 0.48916,2.34797 h 2.4458 l -2.99366,-13.14862 z m 1.66315,2.0349 0.0587,0.84136 1.21311,5.77208 h -2.54363 l 1.19355,-5.77208 z"
         style="font-style:normal;font-variant:normal;font-weight:normal;font-stretch:normal;font-family:'a Area Kilometer 50';-inkscape-font-specification:'a Area Kilometer 50, ';fill:#30353b;fill-opacity:1;stroke-width:0.101909"
         id="path1040" />
      <path
         d="m 166.97241,168.37947 v -5.02857 h 1.99577 l 2.13274,5.02857 h 2.87626 l -2.70016,-5.45903 c 1.40878,-0.64569 2.28927,-2.0349 2.28927,-3.61978 0,-2.36754 -1.83924,-4.06981 -4.40244,-4.06981 h -4.7155 v 13.14862 z m 0,-11.01589 h 2.11317 c 1.11529,0 1.89794,0.80223 1.89794,1.91751 0,1.11529 -0.78265,1.91751 -1.89794,1.91751 h -2.11317 z"
         style="font-style:normal;font-variant:normal;font-weight:normal;font-stretch:normal;font-family:'a Area Kilometer 50';-inkscape-font-specification:'a Area Kilometer 50, ';fill:#30353b;fill-opacity:1;stroke-width:0.101909"
         id="path1042" />
      <path
         d="m 177.5578,162.88131 h 4.93073 V 160.729 h -4.93073 v -3.36542 h 5.65469 v -2.13273 H 175.112 v 13.14862 h 8.27659 v -2.13274 h -5.83079 z"
         style="font-style:normal;font-variant:normal;font-weight:normal;font-stretch:normal;font-family:'a Area Kilometer 50';-inkscape-font-specification:'a Area Kilometer 50, ';fill:#30353b;fill-opacity:1;stroke-width:0.101909"
         id="path1044" />
    </g>
  </g>
</svg>
