<?xml version="1.0" encoding="utf-8"?>
<svg viewBox="251.2 38.6 1923.4 504.7" xmlns="http://www.w3.org/2000/svg">
  <path d="M 953.3 525.4 C 967.6 533.5 981.8 533.5 996.2 525.4 L 1166.9 427.1 C 1180.9 418.4 1187.9 406.2 1187.9 389.7 L 1187.9 192.7 C 1187.9 176.3 1180.9 164.3 1166.9 155.9 L 996.2 57.3 C 981.8 49.2 967.6 49.2 953.3 57.3 L 782.8 155.9 C 768.5 164.3 761.5 176.3 761.5 192.7 L 761.5 389.7 C 761.5 406.2 768.5 418.4 782.8 427.1 M 801.2 415.3 C 788.5 407.8 782 396.7 782 381.5 L 782 202.9 C 782 188 788.2 176.8 801.2 169.3 L 956.5 80 C 969.2 72.7 981.9 72.5 994.6 80 L 1149.9 169.3 C 1162.6 176.9 1169.1 188 1169.1 202.9 L 1169.1 381.5 C 1169.2 396.7 1162.8 407.8 1149.9 415.3 L 994.6 504.7 C 981.9 512.2 969.2 512.2 956.5 504.7 M 1127.1 407.8 L 1089 385.9 L 974.5 451.6 L 860 386.1 L 822.5 408.1 L 975.5 496.1 M 952.5 102 L 798.8 190.7 L 798.8 367.5 L 836.5 345.4 L 838.9 211.7 L 875 191.1 L 875.6 234.5 L 857.5 244.3 L 857.5 334.2 L 894.7 311.8 L 895.2 179.3 L 930.6 159 L 930.7 201.1 L 912.7 210.9 L 912.7 300.8 L 950.4 278.9 M 1000.1 277.5 L 1037.5 299.6 L 1037.5 210.1 L 1019.7 200 L 1019.8 158.2 L 1055.2 178.5 L 1055.4 311 L 1092.9 333.1 L 1092.9 243.4 L 1074.8 233.6 L 1075.3 190.2 L 1111.8 210.9 L 1114 344.2 L 1151.3 366.5 L 1151.3 189.7 L 998 101" style="stroke-miterlimit: 1; fill: rgb(96, 131, 207);" transform="matrix(-1, -0.000062, 0.000062, -1, 1949.381958, 582.760376)"/>
  <g transform="matrix(1.211293, 0, 0, 1.211293, -264.058868, 21.344879)" style="">
    <path d="M 532.3 259.5 L 526.3 243.7 L 475 243.7 L 469 259.9 C 466.6 266.2 464.6 270.4 463 272.6 C 461.3 274.8 458.6 276 454.8 276 C 451.6 276 448.7 274.8 446.3 272.4 C 443.8 270.1 442.6 267.4 442.6 264.4 C 442.6 262.7 442.8 260.9 443.4 259.1 C 444 257.2 444.9 254.7 446.3 251.4 L 478.5 169.5 C 479.5 167.1 480.6 164.3 481.8 161 C 483.1 157.7 484.5 154.9 486 152.8 C 487.4 150.6 489.4 148.8 491.7 147.5 C 494.1 146.1 497.1 145.4 500.6 145.4 C 504.1 145.4 507.1 146.1 509.5 147.5 C 511.9 148.8 513.8 150.6 515.3 152.7 C 516.7 154.8 517.9 157.1 519 159.5 C 520 162 521.2 165.2 522.8 169.3 L 555.8 250.7 C 558.3 256.9 559.6 261.4 559.6 264.2 C 559.6 267.2 558.4 269.9 556 272.3 C 553.5 274.7 550.6 276 547.1 276 C 545.1 276 543.4 275.6 542 274.9 C 540.5 274.2 539.3 273.2 538.4 271.9 C 537.4 270.7 536.3 268.8 535.2 266.3 C 534.1 263.7 533.1 261.5 532.3 259.5 Z M 481.7 224.5 L 519.4 224.5 L 500.4 172.4 Z" style="fill: rgb(255, 115, 0); white-space: pre;"/>
    <path d="M 745 202.7 C 748.7 198.6 753.6 196.6 759.4 196.6 C 765.5 196.6 770.5 198.6 774.3 202.6 C 778 206.6 780.2 212.6 780.8 220.6 L 738.1 220.6 C 738.9 212.7 741.2 206.7 745 202.7 Z M 798.4 231.3 C 801.8 229.6 803.5 225.7 803.5 219.8 C 803.5 213.5 801.8 207.2 798.6 201.1 C 795.3 194.9 790.4 189.9 783.8 186 C 777.2 182.2 769.4 180.2 760.2 180.2 C 753.1 180.2 746.7 181.4 740.9 183.6 C 735.1 185.9 730.2 189.2 726.3 193.4 C 722.3 197.6 719.3 202.7 717.2 208.7 C 715.2 214.6 714.1 221.1 714.1 228 C 714.1 242.8 718.3 254.4 726.7 263 C 735.1 271.6 746.8 276 761.9 276 C 768.5 276 774.3 275.1 779.4 273.4 C 784.5 271.6 788.7 269.5 792.1 266.9 C 795.4 264.3 797.9 261.5 799.6 258.7 C 801.3 255.9 802.1 253.4 802.1 251.2 C 802.1 248.8 801.4 247 799.9 245.7 C 798.4 244.3 796.4 243.7 794 243.7 C 791.8 243.7 790.1 244.2 788.8 245.2 C 785.9 248 783.5 250.2 781.7 251.8 C 779.9 253.4 777.9 254.9 775.7 256.3 C 773.5 257.7 771.2 258.7 768.9 259.4 C 766.6 260 764 260.4 761.2 260.4 C 757 260.4 753.2 259.3 749.7 257.3 C 746.2 255.2 743.5 252.1 741.4 248.1 C 739.3 244 738.2 239.3 738.1 233.9 L 784.1 233.9 C 790.3 233.9 795 233.1 798.4 231.3 Z" style="fill: rgb(255, 115, 0); white-space: pre;"/>
    <path d="M 656.3 182.5 L 658.9 182.5 L 658.9 168.3 C 658.9 164.6 659 161.6 659.2 159.4 C 659.4 157.3 660 155.4 660.9 153.9 C 661.8 152.3 663.1 151 664.8 150 C 666.6 149 668.5 148.5 670.6 148.5 C 673.6 148.5 676.3 149.6 678.7 151.8 C 680.3 153.3 681.3 155.1 681.8 157.3 C 682.2 159.4 682.4 162.5 682.4 166.5 L 682.4 182.5 L 691 182.5 C 694.3 182.5 696.9 183.3 698.6 184.8 C 700.4 186.4 701.3 188.4 701.3 190.9 C 701.3 194.1 700 196.3 697.5 197.5 C 695 198.8 691.4 199.4 686.8 199.4 L 682.4 199.4 L 682.4 242.6 C 682.4 246.3 682.5 249.1 682.8 251.1 C 683.1 253.1 683.7 254.7 684.9 255.9 C 686 257.2 687.8 257.8 690.3 257.8 C 691.7 257.8 693.6 257.5 695.9 257.1 C 698.3 256.6 700.1 256.3 701.4 256.3 C 703.3 256.3 705 257.1 706.6 258.6 C 708.1 260.1 708.8 262 708.8 264.2 C 708.8 268 706.8 270.9 702.6 272.9 C 698.5 274.9 692.6 276 684.8 276 C 677.5 276 671.9 274.7 668.1 272.3 C 664.3 269.8 661.8 266.4 660.7 262 C 659.5 257.6 658.9 251.8 658.9 244.5 L 658.9 199.4 L 655.8 199.4 C 652.4 199.4 649.8 198.6 648.1 197 C 646.3 195.4 645.4 193.4 645.4 190.9 C 645.4 188.4 646.3 186.4 648.2 184.8 C 650.1 183.3 652.8 182.5 656.3 182.5 Z" style="fill: rgb(255, 115, 0); white-space: pre;"/>
    <path d="M 600.1 242 L 600.1 261.7 C 600.1 266.4 599 270 596.7 272.4 C 594.5 274.8 591.6 276 588.2 276 C 584.8 276 582 274.7 579.8 272.3 C 577.7 269.9 576.6 266.4 576.6 261.7 L 576.6 196.2 C 576.6 185.7 580.4 180.4 588 180.4 C 591.9 180.4 594.7 181.6 596.5 184.1 C 598.2 186.6 599.1 190.2 599.3 195 C 602.1 190.2 605 186.6 608 184.1 C 610.9 181.6 614.9 180.4 619.8 180.4 C 624.7 180.4 629.5 181.6 634.2 184.1 C 638.8 186.6 641.1 189.8 641.1 193.9 C 641.1 196.8 640.1 199.2 638.2 201 C 636.2 202.9 634.1 203.8 631.8 203.8 C 630.9 203.8 628.8 203.3 625.5 202.2 C 622.2 201.2 619.3 200.6 616.8 200.6 C 613.3 200.6 610.5 201.5 608.3 203.3 C 606.2 205.1 604.5 207.8 603.3 211.4 C 602.1 214.9 601.2 219.2 600.8 224.1 C 600.3 229 600.1 235 600.1 242 Z" style="fill: rgb(255, 115, 0); white-space: pre;"/>
  </g>
  <g transform="matrix(1.211293, 0, 0, 1.211293, 185.485886, 39.55307)" style="">
    <path d="M 1559.7 202.7 C 1563.5 198.6 1568.3 196.6 1574.2 196.6 C 1580.3 196.6 1585.3 198.6 1589 202.6 C 1592.8 206.6 1594.9 212.6 1595.5 220.6 L 1552.9 220.6 C 1553.7 212.7 1556 206.7 1559.7 202.7 Z M 1613.2 231.3 C 1616.5 229.6 1618.2 225.7 1618.2 219.8 C 1618.2 213.5 1616.6 207.2 1613.3 201.1 C 1610.1 194.9 1605.1 189.9 1598.6 186 C 1592 182.2 1584.1 180.2 1574.9 180.2 C 1567.9 180.2 1561.5 181.4 1555.7 183.6 C 1549.9 185.9 1545 189.2 1541 193.4 C 1537.1 197.6 1534.1 202.7 1532 208.7 C 1529.9 214.6 1528.9 221.1 1528.9 228 C 1528.9 242.8 1533.1 254.4 1541.5 263 C 1549.8 271.6 1561.6 276 1576.7 276 C 1583.3 276 1589.1 275.1 1594.2 273.4 C 1599.3 271.6 1603.5 269.5 1606.8 266.9 C 1610.2 264.3 1612.7 261.5 1614.4 258.7 C 1616 255.9 1616.9 253.4 1616.9 251.2 C 1616.9 248.8 1616.1 247 1614.6 245.7 C 1613.1 244.3 1611.2 243.7 1608.8 243.7 C 1606.5 243.7 1604.8 244.2 1603.6 245.2 C 1600.7 248 1598.3 250.2 1596.5 251.8 C 1594.6 253.4 1592.6 254.9 1590.4 256.3 C 1588.3 257.7 1586 258.7 1583.7 259.4 C 1581.4 260 1578.8 260.4 1576 260.4 C 1571.8 260.4 1568 259.3 1564.5 257.3 C 1561 255.2 1558.2 252.1 1556.1 248.1 C 1554 244 1553 239.3 1552.9 233.9 L 1598.9 233.9 C 1605 233.9 1609.8 233.1 1613.2 231.3 Z" style="fill: rgb(255, 115, 0); white-space: pre;"/>
    <path d="M 1481.6 242 L 1481.6 261.7 C 1481.6 266.4 1480.5 270 1478.2 272.4 C 1476 274.8 1473.2 276 1469.7 276 C 1466.3 276 1463.5 274.7 1461.4 272.3 C 1459.2 269.9 1458.1 266.4 1458.1 261.7 L 1458.1 196.2 C 1458.1 185.7 1461.9 180.4 1469.5 180.4 C 1473.4 180.4 1476.3 181.6 1478 184.1 C 1479.7 186.6 1480.6 190.2 1480.8 195 C 1483.6 190.2 1486.5 186.6 1489.5 184.1 C 1492.4 181.6 1496.4 180.4 1501.3 180.4 C 1506.2 180.4 1511 181.6 1515.7 184.1 C 1520.3 186.6 1522.7 189.8 1522.7 193.9 C 1522.7 196.8 1521.7 199.2 1519.7 201 C 1517.7 202.9 1515.6 203.8 1513.3 203.8 C 1512.4 203.8 1510.3 203.3 1507 202.2 C 1503.7 201.2 1500.8 200.6 1498.3 200.6 C 1494.8 200.6 1492 201.5 1489.9 203.3 C 1487.7 205.1 1486 207.8 1484.8 211.4 C 1483.6 214.9 1482.7 219.2 1482.3 224.1 C 1481.8 229 1481.6 235 1481.6 242 Z" style="fill: rgb(255, 115, 0); white-space: pre;"/>
    <path d="M 1412.5 232 C 1412.5 240.2 1411.5 246.1 1409.3 249.6 C 1407.5 252.8 1404.6 255.4 1400.7 257.5 C 1396.7 259.5 1392.5 260.5 1387.8 260.5 C 1383.4 260.5 1379.9 259.3 1377.2 256.8 C 1374.5 254.3 1373.2 251.3 1373.2 247.7 C 1373.2 244.3 1374.3 241.6 1376.6 239.7 C 1378.9 237.7 1381.3 236.5 1383.8 235.8 C 1386.4 235.1 1390.9 234.1 1397.5 232.7 C 1404.1 231.3 1409.1 230 1412.5 228.7 Z M 1421.6 272.6 C 1423.9 274.8 1426.3 276 1428.7 276 C 1431.6 276 1434.1 275 1436.4 273 C 1438.7 271 1439.8 268.8 1439.8 266.4 C 1439.8 265 1439.1 261.9 1437.6 257.1 C 1436.1 252.4 1435.4 247.7 1435.4 243.3 C 1435.5 238.6 1435.5 234.3 1435.5 230.5 C 1435.6 226.7 1435.6 222 1435.6 216.5 C 1435.6 207.7 1434.4 200.7 1431.9 195.5 C 1429.5 190.2 1425.3 186.3 1419.4 183.9 C 1413.5 181.4 1405.4 180.2 1395 180.2 C 1385.8 180.2 1378.1 181.5 1371.9 184 C 1365.7 186.5 1361.1 189.8 1358.2 193.7 C 1355.3 197.6 1353.8 201.6 1353.8 205.7 C 1353.8 208.3 1354.8 210.5 1356.7 212.2 C 1358.6 213.9 1360.9 214.7 1363.5 214.7 C 1366.5 214.7 1368.4 214.2 1369.3 213.2 C 1370.1 212.1 1371.7 209.9 1373.8 206.6 C 1376 203.2 1378.6 200.7 1381.6 199.1 C 1384.6 197.4 1389.1 196.6 1395 196.6 C 1402 196.6 1406.6 198 1408.8 200.9 C 1411 203.8 1412.2 208.4 1412.5 214.6 C 1407.6 216 1403 217.2 1398.8 218.2 C 1394.6 219.2 1389.5 220.3 1383.6 221.5 C 1377.7 222.8 1374 223.5 1372.5 223.9 C 1365.4 225.4 1359.8 228.5 1355.7 233 C 1351.6 237.5 1349.6 243 1349.6 249.4 C 1349.6 254.2 1350.8 258.6 1353.3 262.7 C 1355.8 266.8 1359.3 270 1363.8 272.4 C 1368.4 274.8 1373.7 276 1379.7 276 C 1386.3 276 1392.3 274.8 1397.6 272.6 C 1402.9 270.4 1408.4 267.1 1414.1 262.7 C 1416.7 267 1419.2 270.3 1421.6 272.6 Z" style="fill: rgb(255, 115, 0); white-space: pre;"/>
    <path d="M 1227.1 195 L 1242.5 247.5 L 1256.4 198.7 C 1257.9 193.6 1259 190.1 1259.7 188.3 C 1260.4 186.4 1261.8 184.6 1263.8 182.9 C 1265.8 181.2 1268.5 180.4 1271.9 180.4 C 1275.4 180.4 1278.2 181.2 1280.1 182.9 C 1282.1 184.6 1283.5 186.5 1284.3 188.4 C 1285.1 190.4 1286.2 193.9 1287.7 198.7 L 1301.6 247.5 L 1317.1 195 C 1318.1 191.2 1319 188.5 1319.6 186.8 C 1320.2 185.1 1321.3 183.6 1322.8 182.3 C 1324.3 181 1326.4 180.4 1329.2 180.4 C 1332.1 180.4 1334.5 181.4 1336.6 183.3 C 1338.6 185.3 1339.7 187.6 1339.7 190.2 C 1339.7 192.6 1338.8 196.3 1337 201.1 L 1317.8 257.4 C 1316.1 262.2 1314.8 265.7 1313.9 267.8 C 1313 269.9 1311.6 271.8 1309.6 273.5 C 1307.6 275.1 1304.9 276 1301.4 276 C 1297.9 276 1295.1 275.1 1293 273.3 C 1291 271.5 1289.5 269.3 1288.5 266.7 C 1287.5 264.2 1286.5 260.8 1285.3 256.7 L 1271.9 210.9 L 1258.9 256.7 C 1257.2 263 1255.3 267.8 1253.3 271.1 C 1251.3 274.3 1247.8 276 1242.7 276 C 1240.1 276 1237.9 275.4 1236.1 274.4 C 1234.3 273.4 1232.8 272 1231.6 270.1 C 1230.4 268.3 1229.4 266.1 1228.4 263.5 C 1227.5 261 1226.8 258.9 1226.3 257.4 L 1207.3 201.1 C 1205.4 195.9 1204.4 192.2 1204.4 190.2 C 1204.4 187.7 1205.4 185.4 1207.4 183.4 C 1209.4 181.4 1211.9 180.4 1214.8 180.4 C 1218.7 180.4 1221.4 181.5 1222.8 183.7 C 1224.1 185.9 1225.6 189.7 1227.1 195 Z" style="fill: rgb(255, 115, 0); white-space: pre;"/>
    <path d="M 1151.4 182.5 L 1154 182.5 L 1154 168.3 C 1154 164.6 1154.1 161.6 1154.3 159.4 C 1154.5 157.3 1155 155.4 1156 153.9 C 1156.9 152.3 1158.2 151 1159.9 150 C 1161.6 149 1163.6 148.5 1165.7 148.5 C 1168.7 148.5 1171.4 149.6 1173.8 151.8 C 1175.4 153.3 1176.4 155.1 1176.8 157.3 C 1177.3 159.4 1177.5 162.5 1177.5 166.5 L 1177.5 182.5 L 1186.1 182.5 C 1189.4 182.5 1192 183.3 1193.7 184.8 C 1195.5 186.4 1196.3 188.4 1196.3 190.9 C 1196.3 194.1 1195.1 196.3 1192.6 197.5 C 1190.1 198.8 1186.5 199.4 1181.9 199.4 L 1177.5 199.4 L 1177.5 242.6 C 1177.5 246.3 1177.6 249.1 1177.9 251.1 C 1178.1 253.1 1178.8 254.7 1179.9 255.9 C 1181.1 257.2 1182.9 257.8 1185.4 257.8 C 1186.8 257.8 1188.6 257.5 1191 257.1 C 1193.3 256.6 1195.2 256.3 1196.5 256.3 C 1198.4 256.3 1200.1 257.1 1201.6 258.6 C 1203.1 260.1 1203.9 262 1203.9 264.2 C 1203.9 268 1201.8 270.9 1197.7 272.9 C 1193.6 274.9 1187.6 276 1179.9 276 C 1172.5 276 1167 274.7 1163.2 272.3 C 1159.4 269.8 1156.9 266.4 1155.7 262 C 1154.6 257.6 1154 251.8 1154 244.5 L 1154 199.4 L 1150.9 199.4 C 1147.5 199.4 1144.9 198.6 1143.1 197 C 1141.4 195.4 1140.5 193.4 1140.5 190.9 C 1140.5 188.4 1141.4 186.4 1143.3 184.8 C 1145.1 183.3 1147.8 182.5 1151.4 182.5 Z" style="fill: rgb(255, 115, 0); white-space: pre;"/>
    <path d="M 1089.5 182.5 L 1095.1 182.5 L 1095.1 175.4 C 1095.1 168.1 1096 162.2 1097.9 157.9 C 1099.8 153.6 1102.9 150.4 1107.4 148.4 C 1111.8 146.4 1117.9 145.4 1125.7 145.4 C 1139.4 145.4 1146.2 148.8 1146.2 155.5 C 1146.2 157.7 1145.5 159.6 1144.1 161.1 C 1142.6 162.7 1141 163.4 1139 163.4 C 1138.1 163.4 1136.5 163.3 1134.3 162.9 C 1132 162.6 1130.1 162.4 1128.6 162.4 C 1124.3 162.4 1121.6 163.7 1120.4 166.2 C 1119.2 168.6 1118.6 172.2 1118.6 176.9 L 1118.6 182.5 L 1124.4 182.5 C 1133.3 182.5 1137.8 185.2 1137.8 190.6 C 1137.8 194.4 1136.6 196.8 1134.2 197.9 C 1131.8 198.9 1128.6 199.4 1124.4 199.4 L 1118.6 199.4 L 1118.6 261.7 C 1118.6 266.3 1117.5 269.9 1115.3 272.3 C 1113.1 274.7 1110.2 276 1106.7 276 C 1103.4 276 1100.6 274.7 1098.4 272.3 C 1096.2 269.9 1095.1 266.3 1095.1 261.7 L 1095.1 199.4 L 1088.6 199.4 C 1085.1 199.4 1082.4 198.6 1080.6 197.1 C 1078.7 195.5 1077.7 193.4 1077.7 190.9 C 1077.7 185.3 1081.6 182.5 1089.5 182.5 Z" style="fill: rgb(255, 115, 0); white-space: pre;"/>
    <path d="M 1043 250.4 C 1038.8 255.8 1033.1 258.5 1026 258.5 C 1021.3 258.5 1017.2 257.3 1013.7 254.8 C 1010.2 252.4 1007.6 248.9 1005.7 244.3 C 1003.8 239.7 1002.9 234.3 1002.9 228.2 C 1002.9 222 1003.9 216.6 1005.8 211.9 C 1007.7 207.3 1010.3 203.7 1013.8 201.4 C 1017.3 199 1021.4 197.8 1026 197.8 C 1033.1 197.8 1038.8 200.5 1043 205.8 C 1047.2 211.1 1049.3 218.6 1049.3 228.2 C 1049.3 237.6 1047.2 245.1 1043 250.4 Z M 1069.7 208.8 C 1067.5 203 1064.4 197.9 1060.2 193.7 C 1056.1 189.4 1051.2 186.1 1045.4 183.8 C 1039.6 181.5 1033.1 180.4 1026 180.4 C 1019 180.4 1012.6 181.5 1006.8 183.8 C 1001 186.1 996.1 189.3 992 193.5 C 987.9 197.7 984.8 202.7 982.6 208.6 C 980.4 214.5 979.3 221.1 979.3 228.2 C 979.3 235.2 980.4 241.7 982.6 247.5 C 984.7 253.3 987.9 258.4 992 262.7 C 996.2 266.9 1001.1 270.2 1006.8 272.5 C 1012.5 274.8 1018.9 276 1026 276 C 1033.2 276 1039.6 274.8 1045.4 272.6 C 1051.1 270.3 1056 267 1060.2 262.8 C 1064.3 258.5 1067.4 253.5 1069.6 247.5 C 1071.8 241.6 1072.9 235.2 1072.9 228.2 C 1072.9 221.1 1071.8 214.7 1069.7 208.8 Z" style="fill: rgb(255, 115, 0); white-space: pre;"/>
    <path d="M 964.9 235.9 C 964.9 243.6 962.9 250.4 959 256.5 C 955 262.6 949.3 267.3 941.7 270.8 C 934.1 274.2 925.2 276 914.8 276 C 902.3 276 892 273.6 884 268.9 C 878.2 265.5 873.6 261 870 255.3 C 866.4 249.7 864.6 244.2 864.6 238.8 C 864.6 235.8 865.7 233.1 867.8 230.9 C 870 228.7 872.7 227.6 876 227.6 C 878.7 227.6 881 228.4 882.9 230.2 C 884.7 231.9 886.3 234.4 887.7 237.8 C 889.3 241.8 891 245.2 892.9 247.9 C 894.7 250.6 897.4 252.8 900.7 254.6 C 904.1 256.3 908.6 257.2 914.1 257.2 C 921.7 257.2 927.8 255.4 932.6 251.9 C 937.3 248.4 939.7 244 939.7 238.7 C 939.7 234.5 938.4 231.1 935.8 228.5 C 933.3 225.9 930 223.9 925.9 222.5 C 921.9 221.1 916.5 219.7 909.7 218.1 C 900.6 216 893 213.5 886.9 210.7 C 880.8 207.8 876 203.9 872.4 199 C 868.8 194.1 867 188 867 180.7 C 867 173.8 868.9 167.6 872.7 162.2 C 876.5 156.8 881.9 152.7 889.1 149.8 C 896.3 146.9 904.7 145.4 914.4 145.4 C 922.2 145.4 928.9 146.4 934.5 148.3 C 940.2 150.3 944.9 152.8 948.6 156 C 952.3 159.2 955.1 162.5 956.8 166 C 958.5 169.5 959.4 172.9 959.4 176.3 C 959.4 179.3 958.3 182 956.1 184.5 C 954 186.9 951.3 188.1 948.1 188.1 C 945.2 188.1 942.9 187.4 941.4 186 C 939.9 184.5 938.2 182.1 936.5 178.8 C 934.2 174 931.4 170.3 928.2 167.6 C 925 164.9 919.8 163.6 912.7 163.6 C 906.1 163.6 900.8 165.1 896.7 168 C 892.7 170.9 890.7 174.3 890.7 178.4 C 890.7 180.9 891.4 183.1 892.7 185 C 894.1 186.8 896 188.4 898.4 189.7 C 900.8 191 903.3 192 905.7 192.8 C 908.2 193.5 912.3 194.6 918 196.1 C 925.1 197.7 931.5 199.6 937.3 201.6 C 943.1 203.6 948 206 952 208.9 C 956.1 211.8 959.2 215.4 961.5 219.8 C 963.7 224.2 964.9 229.6 964.9 235.9 Z" style="fill: rgb(255, 115, 0); white-space: pre;"/>
  </g>
</svg>