<?xml version="1.0" encoding="utf-8"?>
<svg viewBox="516.8 -13.2 2000 500" xmlns="http://www.w3.org/2000/svg">
  <path d="M 1252.2 45 C 1264.7 37.8 1277.1 37.8 1289.7 45 L 1439.3 131.2 C 1451.7 138.7 1457.9 149.4 1457.9 163.9 L 1457.9 336.6 C 1457.9 351 1451.7 361.6 1439.3 368.9 L 1289.7 455.3 C 1277.1 462.5 1264.7 462.5 1252.2 455.3 L 1102.6 368.9 C 1090.1 361.6 1083.9 351 1083.9 336.6 L 1083.9 163.9 C 1083.9 149.4 1090.1 138.7 1102.6 131.2 M 1118.7 141.5 C 1107.6 148 1101.9 157.7 1101.9 171 L 1101.9 327.7 C 1101.9 340.8 1107.4 350.7 1118.7 357.1 L 1254.9 435.5 C 1266 441.9 1277.2 442.1 1288.4 435.5 L 1424.5 357.1 C 1435.7 350.5 1441.3 340.8 1441.3 327.7 L 1441.3 171 C 1441.4 157.7 1435.8 148 1424.5 141.5 L 1288.4 63 C 1277.2 56.5 1266 56.5 1254.9 63 M 1404.5 148 L 1371.1 167.2 L 1270.7 109.6 L 1170.3 167.1 L 1137.4 147.7 L 1271.5 70.6 M 1251.3 416.1 L 1116.6 338.4 L 1116.6 183.4 L 1149.7 202.8 L 1151.7 320 L 1183.4 338 L 1183.9 300 L 1168 291.4 L 1168 212.6 L 1200.7 232.1 L 1201.1 348.4 L 1232.2 366.2 L 1232.3 329.3 L 1216.5 320.7 L 1216.5 241.9 L 1249.6 261.1 M 1293.1 262.3 L 1325.9 242.9 L 1325.9 321.5 L 1310.3 330.2 L 1310.4 366.8 L 1341.5 349.1 L 1341.6 232.9 L 1374.5 213.5 L 1374.5 292.2 L 1358.7 300.8 L 1359.1 338.8 L 1391 320.7 L 1392.9 203.8 L 1425.7 184.2 L 1425.7 339.3 L 1291.3 417" style="stroke-miterlimit: 1;" transform="matrix(0.000062, 1, -1, 0.000062, 1520.971191, -1020.765503)"/>
  <path d="M 686.9 191.6 L 682.6 169.3 L 611 169.3 L 598.3 191.9 C 593.7 200.7 589.7 206.7 586.7 209.7 C 583.9 212.9 579.7 214.3 574.5 214.3 C 570.2 214.3 566.5 212.8 563.6 209.4 C 560.7 206.2 559.7 202.6 560.4 198.4 C 560.7 195.9 561.7 193.3 563 190.8 C 564.5 188.3 566.2 184.8 568.8 180.1 L 635 66 C 636.9 62.6 639 58.5 641.9 54.1 C 644.3 49.5 647.1 45.8 649.6 42.6 C 652.2 39.6 655.3 37.1 658.9 35.1 C 662.7 33.2 666.9 32.5 671.8 32.5 C 676.8 32.5 680.8 33.2 683.7 35.1 C 686.9 37.1 688.9 39.6 690.3 42.4 C 692 45.6 693.1 48.6 693.9 52.1 C 694.7 55.5 695.5 59.9 696.8 65.6 L 721.7 179.2 C 723.9 187.8 724.6 194 723.6 198 C 723 202 720.6 205.9 716.6 209.3 C 712.6 212.8 708.1 214.3 703.1 214.3 C 700.4 214.3 698.2 213.7 696.4 212.9 C 694.6 211.8 693.1 210.6 692.2 208.8 C 690.9 207 690.2 204.4 689.1 200.8 C 688.2 197.3 687.6 194 686.9 191.6 Z M 625.4 142.4 L 677.8 142.4 L 664.6 69.9 Z" style="white-space: pre; fill: rgb(188, 188, 188);"/>
  <path d="M 1018.7 155.6 L 954.6 155.6 C 953.2 163.2 953.5 169.8 955.5 175.5 C 957.3 181.3 960.5 185.5 964.8 188.3 C 969.2 191.2 974.1 192.6 979.9 192.6 C 983.6 192.6 987.6 192.2 991 191.3 C 994.3 190.5 997.8 188.7 1001.3 186.8 C 1004.4 184.9 1007.8 182.8 1010.6 180.5 C 1013.7 178.3 1017.5 175.4 1022.4 171.4 C 1024.4 170 1026.9 169.3 1029.9 169.3 C 1033.3 169.3 1035.9 170 1037.7 172.1 C 1039.4 174 1039.8 176.4 1039.4 180 C 1038.8 182.8 1037.1 186.4 1033.8 190.5 C 1030.9 194.1 1026.8 198 1021.4 201.5 C 1015.9 205.5 1009.5 208.3 1002.1 210.8 C 994.3 213.1 986.2 214.3 977 214.3 C 955.8 214.3 940.6 208.3 931.2 196.5 C 921.9 184.3 918.8 168 922.6 147.4 C 924.5 137.9 927.4 128.9 931.8 120.7 C 936.2 112.1 941.7 105.2 948.3 99.3 C 955.1 93.5 962.7 88.7 971.2 85.5 C 979.9 82.6 989.1 80.8 999.2 80.8 C 1011.8 80.8 1022.4 83.6 1030.7 88.8 C 1038.8 94.4 1044.4 101.4 1047.3 110 C 1050.2 118.6 1050.9 127.1 1049.3 136.1 C 1047.7 144.4 1044.6 149.7 1039.3 152.1 C 1034 154.6 1027.2 155.6 1018.7 155.6 Z M 958 137.3 L 1017.3 137.3 C 1018.7 125.9 1017.1 117.4 1013 111.9 C 1008.7 106.5 1002.4 103.7 993.8 103.7 C 985.7 103.7 978.3 106.5 972.1 112.1 C 965.9 117.8 961.2 126 958 137.3 Z" style="white-space: pre; fill: rgb(188, 188, 188);"/>
  <path d="M 860.3 84 L 864 84 L 867.6 64.3 C 868.5 59 869.4 54.8 870.2 52 C 871.1 48.9 872.4 46.3 874.2 44.2 C 875.6 41.8 878.1 40.1 880.7 38.8 C 883.1 37.4 885.9 36.8 889.1 36.8 C 893.2 36.8 896.7 38.2 899.6 41.3 C 901.4 43.3 902.2 46 902.2 48.9 C 902.2 52 901.7 56.2 900.9 61.8 L 896.7 84 L 908.7 84 C 913.5 84 916.7 85.2 918.7 87.4 C 920.7 89.4 921.5 92.4 920.8 95.7 C 920 100.3 917.8 103.2 914 105 C 910.1 106.7 905.1 107.8 898.5 107.8 L 892.3 107.8 L 881.2 167.8 C 880.4 173 879.8 177.1 879.5 179.8 C 879.5 182.4 880.1 184.8 881.2 186.4 C 882.6 188.2 885 188.9 888.5 188.9 C 890.2 188.9 893 188.6 896.5 188.1 C 899.9 187.4 902.3 187 904.3 187 C 907 187 909.1 188.1 910.8 190.2 C 912.5 192.3 913.1 194.8 912.5 198 C 911.6 203.3 908 207.4 901.6 210 C 895.5 213 886.9 214.3 876.2 214.3 C 865.8 214.3 858.4 212.7 853.9 209.3 C 849.2 205.8 846.5 200.9 846 194.8 C 845.7 188.7 846.3 180.5 847.9 170.6 L 859.6 107.8 L 855.4 107.8 C 850.6 107.8 847.3 106.5 845 104.3 C 843.1 102.3 842.4 99.2 842.9 95.7 C 843.6 92.4 845.5 89.4 848.3 87.4 C 851.5 85.2 855.4 84 860.3 84 Z" style="white-space: pre; fill: rgb(188, 188, 188);"/>
  <path d="M 767.3 167.1 L 762.4 194.3 C 761.1 200.9 758.6 205.9 754.9 209.4 C 751.2 212.8 746.8 214.3 742 214.3 C 737.4 214.3 733.9 212.8 731.5 209.3 C 728.9 205.9 728.2 200.9 729.5 194.3 L 746.3 103.2 C 749.2 88.5 755.8 81.2 766.4 81.2 C 771.7 81.2 775.4 83 777.2 86.3 C 778.9 89.8 779.4 94.9 778.2 101.6 C 783.4 94.9 788.3 89.8 793.2 86.3 C 798 83 803.8 81.2 810.8 81.2 C 817.5 81.2 823.9 83 829.6 86.3 C 835.5 89.8 838.1 94.4 836.8 100 C 836.2 103.9 834.1 107.4 831.1 109.9 C 827.7 112.5 824.6 113.9 821.4 113.9 C 820.1 113.9 817.5 113.2 813.1 111.4 C 808.8 110 804.7 109.4 801.6 109.4 C 796.5 109.4 792.3 110.6 788.7 113.2 C 785.4 115.6 782.2 119.3 779.6 124.3 C 777.2 129.4 775 135.3 772.9 142.1 C 771.1 148.9 769.2 157.3 767.3 167.1 Z" style="white-space: pre; fill: rgb(188, 188, 188);"/>
  <path d="M 2383.9 338.6 C 2390.1 333 2397.4 330.3 2405.6 330.3 C 2414.2 330.3 2420.6 332.8 2424.6 338.5 C 2428.9 344.1 2430.3 352.4 2429.2 363.8 L 2369.8 363.8 C 2372.8 352.5 2377.6 344.3 2383.9 338.6 Z M 2450.9 378.7 C 2456.1 376.1 2459.6 370.8 2461.1 362.6 C 2462.5 353.6 2462 345.1 2459.1 336.4 C 2456 327.9 2450.4 320.8 2442.2 315.4 C 2434.2 310 2423.7 307.4 2410.7 307.4 C 2400.9 307.4 2391.8 309 2383.2 312.2 C 2374.3 315.2 2366.8 319.9 2360.2 325.8 C 2353.5 331.6 2348 338.7 2343.8 347 C 2339.1 355.2 2336.2 364.3 2334.3 373.9 C 2330.6 394.6 2333.3 410.9 2342.9 422.8 C 2352.5 434.8 2367.6 440.8 2388.6 440.8 C 2397.8 440.8 2406.2 439.6 2413.8 437.2 C 2421.3 434.8 2427.9 431.9 2433.1 428.1 C 2438.3 424.4 2442.4 420.6 2445.7 416.9 C 2448.8 412.8 2450.5 409.3 2451 406.3 C 2451.7 403.1 2451 400.3 2449.3 398.5 C 2447.5 396.8 2445.2 396 2441.6 396 C 2438.7 396 2436 396.5 2434.2 398 C 2429.4 402 2425.3 404.8 2422.6 407.1 C 2419.5 409.3 2416.3 411.4 2413 413.4 C 2409.5 415.3 2406.1 416.9 2402.7 417.8 C 2399.3 418.6 2395.6 419.1 2391.8 419.1 C 2385.7 419.1 2380.6 417.7 2376.5 414.8 C 2372.1 411.9 2369.1 407.6 2367.1 402 C 2365.2 396.3 2364.9 389.7 2366.3 382.3 L 2430.3 382.3 C 2438.9 382.3 2445.9 381 2450.9 378.7 Z" style="white-space: pre; fill: rgb(188, 188, 188);"/>
  <path d="M 2276.6 393.4 L 2271.5 420.8 C 2270.4 427.7 2268 432.7 2264.2 435.8 C 2260.6 439.1 2256.2 440.8 2251.3 440.8 C 2246.8 440.8 2243.1 439.1 2240.7 435.7 C 2238.3 432.4 2237.8 427.6 2238.9 420.8 L 2255.6 329.7 C 2258.4 315 2265 307.6 2275.8 307.6 C 2281.1 307.6 2284.7 309.3 2286.5 312.8 C 2288.2 316.1 2288.6 321.3 2287.6 328 C 2292.8 321.3 2297.8 316.1 2302.4 312.8 C 2307.3 309.3 2313 307.6 2320 307.6 C 2326.8 307.6 2333.1 309.3 2339.1 312.8 C 2344.9 316.1 2347.3 320.8 2346.2 326.5 C 2345.6 330.5 2343.4 333.7 2340.4 336.3 C 2337.1 338.8 2333.8 340.2 2330.6 340.2 C 2329.4 340.2 2326.6 339.5 2322.3 338 C 2318 336.6 2314 335.8 2310.7 335.8 C 2305.9 335.8 2301.6 337.1 2298.2 339.6 C 2294.6 342.1 2291.6 345.8 2289 350.9 C 2286.4 356 2284.2 361.6 2282.2 368.3 C 2280.4 375.4 2278.4 383.7 2276.6 393.4 Z" style="white-space: pre; fill: rgb(188, 188, 188);"/>
  <path d="M 2198.8 379.5 C 2196.8 391 2193.7 399 2189.9 404.1 C 2186.6 408.5 2181.9 412.2 2175.8 415 C 2169.9 417.9 2163.6 419.3 2157.1 419.3 C 2151.1 419.3 2146.4 417.7 2143.3 414.2 C 2140.3 410.6 2139.2 406.4 2140 401.5 C 2140.8 396.8 2143.1 392.9 2146.9 390.2 C 2150.6 387.5 2154.3 385.8 2157.9 384.7 C 2161.6 383.9 2168.2 382.5 2177.8 380.5 C 2187.3 378.4 2194.5 376.7 2199.6 374.7 Z M 2201 435.9 C 2203.8 439.2 2206.8 440.8 2210.1 440.8 C 2213.9 440.8 2218 439.3 2221.7 436.6 C 2225.3 434 2227.5 430.7 2228.1 427.6 C 2228.4 425.5 2228.2 421.3 2227.5 414.6 C 2226.5 407.9 2226.7 401.5 2228 395.3 C 2229.1 388.8 2230.3 382.8 2231.3 377.4 C 2232.4 372.2 2233.5 365.5 2234.9 357.9 C 2237.4 345.7 2237.4 335.9 2235.3 328.5 C 2233.2 321.2 2228.4 315.8 2220.7 312.5 C 2213.2 309 2202.3 307.4 2187.8 307.4 C 2174.8 307.4 2163.8 309.1 2154.7 312.7 C 2145.3 316.1 2137.9 320.6 2132.9 326.2 C 2127.8 331.5 2124.8 337.2 2123.8 342.8 C 2122.9 346.5 2123.9 349.7 2126.2 352 C 2128.3 354.2 2131.4 355.4 2135 355.4 C 2139.2 355.4 2141.9 354.7 2143.3 353.2 C 2145 351.8 2147.6 348.7 2151.5 344.1 C 2155.4 339.4 2159.4 335.9 2164.1 333.6 C 2168.6 331.3 2175.2 330.3 2183.6 330.3 C 2193.2 330.3 2199.3 332.1 2201.8 336.3 C 2203.9 340.2 2204.4 346.6 2203.3 355.2 C 2196.1 357.3 2189.3 358.9 2183.2 360.4 C 2177.2 361.6 2169.8 363.2 2161.3 365.1 C 2152.7 366.7 2147.3 367.6 2145.3 368.1 C 2134.8 370.4 2126.3 374.6 2119.3 380.9 C 2112.5 387.3 2108.4 394.9 2106.6 403.9 C 2105.4 410.5 2106 416.8 2108.5 422.3 C 2110.8 428 2114.8 432.7 2120.6 435.8 C 2126.4 439.1 2133.4 440.8 2141.8 440.8 C 2151.1 440.8 2159.7 439.3 2167.6 436.2 C 2175.6 433.3 2184 428.6 2193.1 422.3 C 2195.8 428.4 2198.4 433.1 2201 435.9 Z" style="white-space: pre; fill: rgb(188, 188, 188);"/>
  <path d="M 1965.9 328.5 L 1973.7 401.9 L 2005.7 333.7 C 2009.1 326.6 2011.5 321.8 2013.1 319.2 C 2014.4 316.5 2017 314.1 2020 311.8 C 2023.3 309.3 2027.2 308.2 2032.1 308.2 C 2036.9 308.2 2040.5 309.3 2042.9 311.8 C 2045 314.1 2046.5 316.5 2047.3 319.4 C 2047.9 322.1 2048.7 327 2049.3 333.7 L 2056.3 401.9 L 2091.3 328.5 C 2093.8 323.2 2095.5 319.5 2096.7 317 C 2098.1 314.8 2100 312.7 2102.5 310.8 C 2104.8 309 2108.1 308.2 2111.9 308.2 C 2115.9 308.2 2119.1 309.4 2121.3 312.2 C 2123.8 315 2124.7 318.1 2124 321.9 C 2123.3 325.2 2121.1 330.3 2117.4 337.1 L 2076.1 415.5 C 2072.8 422.1 2070 427.1 2068.2 429.9 C 2066.3 433.1 2063.8 435.6 2060.6 437.9 C 2057.5 440.2 2053.3 441.4 2048.7 441.4 C 2043.7 441.4 2040 440.2 2037.7 437.6 C 2035.4 435.1 2033.7 432.2 2033 428.6 C 2032.3 424.9 2031.7 420.3 2031.2 414.4 L 2024.1 350.8 L 1994.2 414.4 C 1990.3 423.4 1986.4 429.9 1982.8 434.5 C 1979.1 439.1 1973.8 441.4 1966.8 441.4 C 1963.1 441.4 1960.3 440.7 1958 439.3 C 1955.8 437.9 1954 435.8 1952.9 433.5 C 1951.6 430.6 1950.8 427.7 1950.1 424 C 1949.5 420.5 1949 417.7 1948.7 415.5 L 1936.6 337.1 C 1935.2 329.7 1934.9 324.8 1935.5 321.9 C 1936 318.5 1937.9 315.1 1941.4 312.3 C 1944.5 309.6 1948.4 308.2 1952.4 308.2 C 1957.8 308.2 1961.3 309.6 1962.5 312.8 C 1963.9 315.8 1965.1 321.1 1965.9 328.5 Z" style="white-space: pre; fill: rgb(188, 188, 188);"/>
  <path d="M 1869.1 310.5 L 1872.8 310.5 L 1876.4 290.7 C 1877.3 285.5 1878.3 281.3 1879 278.4 C 1879.8 275.4 1881.1 272.9 1882.9 270.6 C 1884.5 268.4 1886.7 266.7 1889.3 265.2 C 1892 263.7 1894.8 263.1 1897.8 263.1 C 1901.8 263.1 1905.5 264.7 1908.3 267.8 C 1909.9 269.7 1911.1 272.5 1911.1 275.4 C 1911.1 278.4 1910.7 282.7 1909.6 288.3 L 1905.5 310.5 L 1917.6 310.5 C 1922.1 310.5 1925.5 311.6 1927.6 313.8 C 1929.7 315.8 1930.2 318.8 1929.7 322.1 C 1928.8 326.6 1926.6 329.7 1922.6 331.5 C 1918.8 333.2 1913.8 334.3 1907.1 334.3 L 1901.1 334.3 L 1890 394.5 C 1889.1 399.4 1888.6 403.5 1888.6 406.2 C 1888.4 408.9 1888.9 411.3 1890 412.9 C 1891.2 414.7 1893.7 415.4 1897.2 415.4 C 1899.2 415.4 1901.8 415.2 1905.3 414.4 C 1908.6 413.9 1911.3 413.5 1913.2 413.5 C 1915.7 413.5 1917.9 414.4 1919.7 416.5 C 1921.4 418.7 1922 421.3 1921.4 424.4 C 1920.5 429.7 1916.7 434 1910.5 436.4 C 1904.2 439.3 1895.7 440.8 1884.8 440.8 C 1874.6 440.8 1867.2 439.1 1862.6 435.7 C 1858 432.3 1855.2 427.6 1854.6 421.3 C 1854.2 415.3 1854.9 407.2 1856.8 397 L 1868.3 334.3 L 1864.1 334.3 C 1859.4 334.3 1855.9 333 1853.9 330.8 C 1851.9 328.5 1851.2 325.7 1851.8 322.1 C 1852.4 318.8 1854.2 315.8 1857.3 313.8 C 1860.2 311.6 1864.1 310.5 1869.1 310.5 Z" style="white-space: pre; fill: rgb(188, 188, 188);"/>
  <path d="M 1780.4 310.5 L 1788.2 310.5 L 1790 300.6 C 1791.9 290.4 1794.7 282.3 1798.4 276.2 C 1802.1 270.1 1807.3 265.8 1814.1 263 C 1820.8 260.3 1829.5 258.8 1840.3 258.8 C 1859.5 258.8 1868.1 263.4 1866.6 273.1 C 1865.9 276 1864.4 278.5 1861.9 280.9 C 1859.7 282.9 1857.2 283.9 1854.3 283.9 C 1853 283.9 1851.1 283.6 1847.8 283.3 C 1844.7 282.9 1842.3 282.6 1840 282.6 C 1834.2 282.6 1830.1 284.2 1827.8 287.9 C 1825.5 291.1 1823.6 296.2 1822.4 302.7 L 1821 310.5 L 1829.1 310.5 C 1841.5 310.5 1847.2 314.3 1845.8 321.8 C 1844.7 327.1 1842.4 330.6 1838.8 332 C 1835.3 333.4 1830.7 334.3 1824.7 334.3 L 1816.6 334.3 L 1800.7 420.8 C 1799.5 427.4 1797.1 432.3 1793.4 435.7 C 1789.7 439.1 1785.3 440.8 1780.4 440.8 C 1775.9 440.8 1772.2 439.1 1769.8 435.7 C 1767.4 432.3 1766.9 427.4 1767.8 420.8 L 1784 334.3 L 1775 334.3 C 1770 334.3 1766.6 333 1764.1 330.9 C 1762 328.5 1761.2 325.8 1761.8 322.1 C 1763.3 314.4 1769.6 310.5 1780.4 310.5 Z" style="white-space: pre; fill: rgb(188, 188, 188);"/>
  <path d="M 1713.5 405.2 C 1706.3 412.7 1697.8 416.4 1687.8 416.4 C 1681.2 416.4 1675.9 414.8 1671.6 411.3 C 1667.5 407.9 1664.6 403.1 1663.1 396.8 C 1661.8 390.2 1661.9 382.8 1663.3 374.1 C 1664.9 365.5 1667.8 358 1671.6 351.6 C 1675.3 345.1 1679.9 340.1 1685.5 336.8 C 1691 333.5 1697 331.7 1703.4 331.7 C 1713.4 331.7 1720.4 335.5 1725 343 C 1729.6 350.4 1730.7 360.8 1728.1 374.1 C 1725.6 387.4 1720.7 397.7 1713.5 405.2 Z M 1761.4 347.2 C 1759.9 339.2 1756.8 332 1752.2 326.2 C 1747.6 320.2 1741.5 315.6 1733.8 312.5 C 1726.4 309.2 1717.8 307.6 1707.9 307.6 C 1698.1 307.6 1688.7 309.2 1680.1 312.3 C 1671.6 315.5 1663.8 320.1 1657 325.9 C 1650.3 331.6 1644.7 338.7 1640.2 347 C 1635.5 355.1 1632.4 364.3 1630.5 374.1 C 1628.6 384.1 1628.6 393 1630.2 401.2 C 1631.6 409.3 1634.7 416.3 1639.5 422.2 C 1644 428.3 1650.1 432.9 1657.4 435.9 C 1664.7 439.2 1673.4 440.8 1683.4 440.8 C 1693.3 440.8 1702.4 439.2 1711.2 435.9 C 1719.8 433.1 1727.4 428.4 1734.3 422.3 C 1741.1 416.5 1746.8 409.4 1751.5 401.2 C 1756.1 393 1759.2 384 1761.1 374.1 C 1762.7 364.4 1762.9 355.3 1761.4 347.2 Z" style="white-space: pre; fill: rgb(188, 188, 188);"/>
  <path d="M 1622.8 385 C 1620.8 395.6 1616.4 405.2 1609.4 413.7 C 1602.3 422.1 1593.1 428.9 1581.5 433.7 C 1570.1 438.4 1557.2 440.8 1542.7 440.8 C 1525.3 440.8 1511.7 437.6 1501.6 430.8 C 1494.4 426.3 1489.1 420 1485.7 412.1 C 1482 404.1 1480.8 396.5 1482.2 389.1 C 1483 384.7 1485.3 381 1488.7 378 C 1492.4 374.7 1496.5 373.4 1501.1 373.4 C 1504.8 373.4 1507.9 374.4 1509.7 376.9 C 1512.2 379.4 1513.7 383 1514.5 387.6 C 1515.9 393.2 1517.5 398 1519.4 401.8 C 1521.2 405.4 1524.4 408.5 1528.7 411.2 C 1533 413.5 1538.9 414.7 1546.4 414.7 C 1557.2 414.7 1566.1 412.1 1573.6 407.2 C 1581.2 402.5 1585.6 396.3 1586.9 388.9 C 1588.1 383.1 1587 378.2 1584.2 374.6 C 1581.3 371.1 1577.2 368.1 1571.9 366.4 C 1566.5 364.4 1559.5 362.4 1550.4 360.1 C 1538.4 357.3 1528.3 353.7 1520.5 350 C 1512.9 345.8 1507.2 340.6 1503.2 333.6 C 1499.6 326.7 1498.6 318.3 1500.5 307.9 C 1502.3 298.5 1506.5 289.8 1513.2 282.3 C 1519.7 274.8 1528.6 269 1539.2 264.9 C 1550 260.9 1562.3 258.8 1575.7 258.8 C 1586.4 258.8 1595.6 260.2 1602.9 263 C 1610.3 265.5 1616.2 269.2 1620.7 273.8 C 1625 278.1 1627.9 282.7 1629.5 287.7 C 1631 292.4 1631.2 297.1 1630.5 301.7 C 1629.7 306.2 1627.5 309.9 1623.8 313.4 C 1620.2 316.7 1616.1 318.5 1611.6 318.5 C 1607.6 318.5 1604.6 317.3 1602.9 315.2 C 1601.1 313.4 1599.5 309.9 1597.8 305.5 C 1595.9 298.7 1593.1 293.5 1589.2 289.8 C 1585.5 286 1578.5 284.1 1568.6 284.1 C 1559.3 284.1 1551.6 286.2 1545.3 290.2 C 1538.9 294.2 1534.9 299.2 1534 304.9 C 1533.4 308.3 1533.9 311.5 1535.2 314.1 C 1536.8 316.5 1539 318.8 1542 320.6 C 1544.9 322.3 1548.2 323.8 1551.3 324.9 C 1554.6 325.9 1559.9 327.3 1567.6 329.4 C 1577.1 331.7 1585.7 334.4 1593.2 337.2 C 1600.7 339.9 1606.9 343.4 1611.7 347.2 C 1616.6 351.4 1620.2 356.5 1622.2 362.4 C 1624.3 368.7 1624.5 376.1 1622.8 385 Z" style="white-space: pre; fill: rgb(188, 188, 188);"/>
</svg>