<?xml version="1.0" encoding="utf-8"?>
<svg viewBox="461.7 33.6 2500 500" xmlns="http://www.w3.org/2000/svg">
  <path d="M 1366.7 18.3 C 1382.9 8.9 1399.1 8.9 1415.4 18.3 L 1609.9 130.6 C 1626 139.9 1634.3 154 1634.3 172.7 L 1634.3 397.3 C 1634.3 416.1 1626 430.1 1609.9 439.5 L 1415.4 551.8 C 1399.1 561.2 1382.9 561.2 1366.7 551.8 L 1172.2 439.5 C 1155.9 430.1 1147.8 416.1 1147.8 397.3 L 1147.8 172.7 C 1147.8 154 1155.9 139.9 1172.2 130.6 Z M 1193.4 143.8 C 1178.6 152.2 1171.3 165 1171.3 182 L 1171.3 385.9 C 1171.2 402.9 1178.5 415.6 1193.4 424 L 1370.1 526 C 1384.7 534.3 1399.3 534.5 1413.9 526 L 1590.6 424 C 1605.3 415.5 1612.6 402.8 1612.6 385.9 L 1612.6 182 C 1612.7 165 1605.4 152.2 1590.6 143.8 L 1413.9 41.7 C 1399.3 33.3 1384.7 33.3 1370.1 41.7 Z M 1564.7 152.2 L 1521.4 177.3 L 1390.8 102.4 L 1260.3 177.1 L 1217.5 152 L 1391.6 51.7 Z M 1365.4 500.9 L 1190.4 399.8 L 1190.4 198.2 L 1233.4 223.5 L 1236 375.7 L 1277.4 399.4 L 1277.9 349.9 L 1257.1 338.9 L 1257.1 236.1 L 1299.9 261.6 L 1300.3 412.7 L 1340.8 435.9 L 1341.1 387.9 L 1320.4 376.7 L 1320.4 274.2 L 1363.2 299.4 Z M 1419.8 300.7 L 1462.5 275.4 L 1462.5 377.9 L 1442 389 L 1442.2 436.7 L 1482.7 413.7 L 1483 262.7 L 1525.8 237.4 L 1525.8 339.7 L 1505.2 351 L 1505.6 400.4 L 1547.1 376.7 L 1549.7 224.8 L 1592.3 199.2 L 1592.3 400.9 L 1417.6 501.9 Z" style="stroke-miterlimit: 1; fill: rgb(26, 73, 126);" transform="matrix(0.000062, 1, -1, 0.000062, 1676.013794, -1106.0177)"/>
  <path d="M 623.3 350.2 L 618.2 323.7 L 532.6 323.7 L 517.6 350.6 C 511.9 361.2 507.1 368.3 503.7 371.9 C 500.2 375.7 495.2 377.5 489 377.5 C 483.8 377.5 479.4 375.5 475.9 371.6 C 472.5 367.6 471.3 363.4 472.2 358.3 C 472.6 355.4 473.8 352.4 475.3 349.3 C 476.9 346.4 479.2 342 482.3 336.6 L 561.2 200.1 C 563.6 196.1 566.2 191.3 569.4 186 C 572.5 180.4 575.7 176 578.8 172.3 C 581.9 168.7 585.6 165.6 590 163.3 C 594.4 161.1 599.4 160.2 605.3 160.2 C 611.3 160.2 616 161.1 619.5 163.3 C 623.2 165.6 625.7 168.7 627.5 172 C 629.4 175.7 630.7 179.5 631.6 183.5 C 632.6 187.6 633.7 193 635.1 199.8 L 665 335.6 C 667.3 345.8 668.2 353.2 667.2 357.9 C 666.4 362.8 663.7 367.3 658.8 371.4 C 654 375.5 648.7 377.5 642.7 377.5 C 639.6 377.5 636.8 376.8 634.7 375.7 C 632.5 374.4 630.8 372.9 629.5 370.8 C 628.3 368.7 627.3 365.6 626.1 361.3 C 624.9 357.1 624.1 353.2 623.3 350.2 Z M 549.7 291.6 L 612.5 291.6 L 596.8 204.9 Z" style="white-space: pre; fill: rgb(88, 142, 204);"/>
  <path d="M 1035.7 307.4 L 959 307.4 C 957.6 316.5 958 324.2 960.2 331 C 962.4 337.9 966.1 342.9 971.3 346.4 C 976.6 349.7 982.6 351.5 989.4 351.5 C 993.9 351.5 998.5 351 1002.7 349.9 C 1006.6 348.8 1010.7 346.9 1014.9 344.6 C 1018.9 342.2 1022.7 339.8 1026.2 337.1 C 1029.8 334.4 1034.4 330.9 1040.2 326.2 C 1042.5 324.5 1045.6 323.7 1049.2 323.7 C 1053.3 323.7 1056.3 324.6 1058.4 327 C 1060.4 329.3 1061.1 332.2 1060.4 336.4 C 1059.8 339.8 1057.6 344.1 1053.9 348.8 C 1050.3 353.4 1045.4 357.9 1038.9 362.2 C 1032.5 366.7 1024.9 370.3 1015.9 373.2 C 1006.6 376 996.8 377.5 985.9 377.5 C 960.7 377.5 942.5 370.3 931.2 356 C 920 341.6 916.4 322 920.9 297.5 C 923.2 286.1 926.8 275.3 932 265.5 C 937.2 255.4 943.8 247.1 951.7 240 C 959.7 233 968.8 227.4 979 223.6 C 989.5 219.8 1000.5 218 1012.4 218 C 1027.5 218 1040.2 221.2 1050 227.5 C 1059.8 234.1 1066.3 242.5 1069.9 252.8 C 1073.4 263.1 1074.2 273.3 1072.3 284 C 1070.5 293.8 1066.6 300.3 1060.3 303.1 C 1054.1 306 1045.9 307.4 1035.7 307.4 Z M 963.3 285.4 L 1034.2 285.4 C 1035.7 271.8 1033.8 261.8 1028.9 255.1 C 1023.9 248.6 1016.3 245.3 1006 245.3 C 996.3 245.3 987.6 248.6 980.2 255.4 C 972.7 262 966.9 271.9 963.3 285.4 Z" style="white-space: pre; fill: rgb(88, 142, 204);"/>
  <path d="M 841.6 221.6 L 846 221.6 L 850.2 198.2 C 851.3 192 852.4 187 853.5 183.4 C 854.4 179.7 856 176.7 858.1 174.2 C 859.9 171.4 862.7 169.3 865.9 167.6 C 868.9 165.9 872.1 165.1 875.9 165.1 C 880.8 165.1 885 167 888.4 170.7 C 890.6 173.1 891.7 176.2 891.7 179.7 C 891.7 183.4 891.1 188.4 890 195 L 885 221.6 L 899.3 221.6 C 905.1 221.6 908.9 223.2 911.3 225.7 C 913.7 228.3 914.6 231.7 913.9 235.8 C 912.9 241.2 910.2 244.7 905.6 246.7 C 901 248.9 895 250 887.1 250 L 879.8 250 L 866.6 321.9 C 865.5 328.1 864.8 332.9 864.5 336.1 C 864.5 339.3 865.2 342.1 866.6 344.1 C 868.1 346.3 870.9 347.1 875.2 347.1 C 877.3 347.1 880.5 346.8 884.7 346.1 C 888.8 345.2 891.9 344.8 894 344.8 C 897.2 344.8 899.7 346.1 901.8 348.5 C 904.1 351.1 904.6 354.1 904.1 357.9 C 902.9 364.2 898.5 369.2 891 372.3 C 883.6 375.8 873.3 377.5 860.5 377.5 C 848.2 377.5 839.2 375.4 833.7 371.4 C 828.3 367.2 824.9 361.5 824.4 354.1 C 824 346.9 824.6 337.1 826.7 325.2 L 840.7 250 L 835.6 250 C 830.1 250 825.9 248.6 823.3 246 C 821 243.5 820.1 239.9 820.8 235.8 C 821.7 231.7 823.8 228.3 827.2 225.7 C 830.9 223.2 835.7 221.6 841.6 221.6 Z" style="white-space: pre; fill: rgb(88, 142, 204);"/>
  <path d="M 724.5 321 L 718.5 353.7 C 717 361.5 714 367.4 709.6 371.6 C 705.1 375.5 699.9 377.5 694.3 377.5 C 688.7 377.5 684.4 375.5 681.6 371.5 C 678.5 367.4 677.7 361.5 679.3 353.7 L 699.4 244.7 C 702.6 227.1 710.6 218.4 723.3 218.4 C 729.7 218.4 734.1 220.4 736.2 224.5 C 738.4 228.5 738.8 234.7 737.5 242.8 C 743.7 234.7 749.6 228.5 755.4 224.5 C 761.1 220.4 768 218.4 776.3 218.4 C 784.4 218.4 792 220.4 799 224.5 C 806 228.5 808.9 234.1 807.5 240.8 C 806.7 245.6 804.2 249.5 800.5 252.6 C 796.6 255.8 792.9 257.3 789.1 257.3 C 787.5 257.3 784.4 256.4 779.1 254.6 C 773.9 252.8 769.2 252.1 765.2 252.1 C 759.2 252.1 754.2 253.5 750 256.5 C 746 259.4 742.2 263.8 739.1 269.8 C 736.2 275.9 733.5 283 731.2 291.1 C 728.9 299.2 726.6 309.2 724.5 321 Z" style="white-space: pre; fill: rgb(88, 142, 204);"/>
  <g transform="matrix(0.491663, 0, 0, 0.491663, -56.73933, -113.878639)" style="">
    <path d="M 5913.3 782.7 C 5928.5 768.9 5946.1 762.1 5965.9 762.1 C 5986.7 762.1 6002.2 768.7 6012.5 782.3 C 6022.8 795.7 6026.2 816.1 6023.2 843.5 L 5878.9 843.5 C 5886.6 816.5 5898 796.2 5913.3 782.7 Z M 6076.3 879.7 C 6089 873.7 6097.2 860.8 6100.8 840.9 C 6104.6 819.1 6103.2 798.2 6095.9 777.3 C 6088.6 756.5 6075 739.4 6055.2 726.2 C 6035.3 713.1 6009.9 706.6 5978.8 706.6 C 5954.7 706.6 5932.4 710.5 5911.3 718.2 C 5890.2 725.8 5871.6 737 5855.7 751.3 C 5839.6 765.7 5826 782.9 5815.6 803.1 C 5804.8 823.1 5797.2 844.9 5792.9 868.6 C 5783.7 918.4 5790.6 958 5813.6 987.2 C 5836.8 1016.3 5873.7 1030.9 5924.9 1030.9 C 5947.1 1030.9 5967.6 1027.9 5985.8 1022.2 C 6004.1 1016.3 6019.8 1009 6032.8 1000.2 C 6045.7 991.2 6055.9 981.9 6063.4 972.6 C 6070.9 962.9 6075.2 954.5 6076.5 947.2 C 6078 939 6076.5 932.8 6072.4 928.3 C 6068.1 923.7 6061.9 921.6 6053.7 921.6 C 6046.3 921.6 6040 923.3 6035.3 926.7 C 6023.7 936.2 6014.2 943.5 6007.2 948.9 C 5999.9 954.5 5992.1 959.4 5983.9 964.1 C 5975.5 969 5967.2 972.6 5959 974.9 C 5950.7 977 5941.8 978.2 5932.4 978.2 C 5918 978.2 5905.7 974.6 5895.2 967.6 C 5884.8 960.7 5877.3 950.2 5872.6 936.5 C 5868.2 922.7 5867.6 906.8 5870.6 888.6 L 6026.2 888.6 C 6047 888.6 6063.8 885.6 6076.3 879.7 Z" style="white-space: pre; fill: rgb(88, 142, 204);"/>
    <path d="M 5620.2 916 L 5608 982.5 C 5605 998.7 5599 1010.7 5590 1018.9 C 5581 1026.9 5570.5 1030.9 5558.9 1030.9 C 5547.4 1030.9 5538.7 1026.9 5532.9 1018.7 C 5526.9 1010.6 5525.6 998.5 5528.4 982.5 L 5569.2 760.8 C 5575.8 725.1 5592 707.3 5617.9 707.3 C 5631.1 707.3 5639.8 711.3 5644.1 719.8 C 5648.4 728.1 5649.3 740.6 5646.9 756.9 C 5659.4 740.6 5671.4 728.1 5683 719.8 C 5694.6 711.3 5708.8 707.3 5725.6 707.3 C 5742.3 707.3 5757.5 711.3 5772 719.8 C 5786.2 728.1 5791.9 739.3 5789.3 753 C 5787.6 762.6 5782.6 770.7 5775 777.1 C 5767 783.3 5759.2 786.6 5751.3 786.6 C 5748.5 786.6 5741.6 784.8 5731.1 781.1 C 5720.8 777.5 5711.1 775.8 5702.6 775.8 C 5691 775.8 5680.8 778.8 5672.5 785 C 5663.9 791 5656.3 800 5650.2 812.2 C 5643.9 824.4 5638.3 838.7 5633.8 855.2 C 5629.1 871.8 5624.5 892.2 5620.2 916 Z" style="white-space: pre; fill: rgb(88, 142, 204);"/>
    <path d="M 5410.7 882 C 5405.7 909.8 5398.4 929.6 5388.9 941.8 C 5380.9 952.5 5369.4 961.6 5354.8 968.4 C 5340.2 975.3 5325 978.8 5309.2 978.8 C 5294.5 978.8 5283.3 974.5 5275.8 966.1 C 5268.2 957.5 5265.5 947.4 5267.6 935.3 C 5269.8 923.6 5275.4 914.5 5284.4 908.1 C 5293.3 901.5 5302.5 897.2 5311.2 894.9 C 5320.3 892.6 5336.3 889.2 5359.4 884.3 C 5382.6 879.6 5400.4 875 5412.8 870.7 Z M 5416 1019.3 C 5422.7 1027.1 5430 1030.9 5438.2 1030.9 C 5447.8 1030.9 5457.3 1027.5 5466 1020.9 C 5475.2 1014.2 5480.2 1006.7 5481.8 998.5 C 5482.6 993.8 5481.9 983.5 5480.1 967.2 C 5478.2 951.1 5478.5 935.3 5481.3 920.3 C 5484.3 904.4 5487.1 889.9 5489.7 877 C 5492.3 863.8 5495.1 847.9 5498.7 829.3 C 5504.1 799.9 5504.3 776.2 5499.4 758.2 C 5494.4 740.3 5482.6 727.2 5464.1 719.1 C 5445.7 710.7 5418.8 706.6 5383.9 706.6 C 5352.5 706.6 5325.6 710.9 5303.1 719.5 C 5280.5 728.1 5262.9 738.8 5250.6 752.2 C 5238.3 765.2 5230.8 779 5228.4 793 C 5226.5 801.8 5228.5 809.2 5234 814.8 C 5239.4 820.7 5246.6 823.7 5255.6 823.7 C 5265.5 823.7 5272.4 821.7 5276 818.1 C 5279.7 814.7 5286.1 807.2 5295.6 795.7 C 5304.9 784.6 5315.1 776.2 5326.4 770.4 C 5337.6 764.8 5353.3 762.1 5373.7 762.1 C 5397.1 762.1 5411.7 766.9 5417.6 776.8 C 5423.1 786.6 5424.4 802 5421.6 823.1 C 5404 827.7 5387.6 832 5372.9 835.6 C 5357.8 838.7 5340 842.6 5319.4 846.6 C 5298.6 850.8 5285.4 853.3 5280.3 854.4 C 5255.2 859.8 5234.3 870.1 5217.5 885.3 C 5201 900.8 5190.7 919.3 5186.7 941.2 C 5183.7 957.3 5185.1 972.3 5191 986.1 C 5196.7 999.8 5206.6 1010.7 5220.5 1018.9 C 5234.6 1026.9 5251.9 1030.9 5272.1 1030.9 C 5294.6 1030.9 5315.5 1027.3 5334.9 1019.8 C 5354.2 1012.3 5374.7 1001.1 5396.9 986.1 C 5403.1 1000.7 5409.6 1011.9 5416 1019.3 Z" style="white-space: pre; fill: rgb(88, 142, 204);"/>
    <path d="M 4818.5 758.2 L 4837.6 936 L 4915.4 770.7 C 4923.6 753.5 4929.6 741.7 4933.2 735.1 C 4936.6 729 4942.5 722.9 4950.2 717.2 C 4957.9 711.3 4967.6 708.6 4979.3 708.6 C 4991.2 708.6 5000 711.3 5005.5 717.2 C 5011.1 722.9 5014.8 729.1 5016.3 735.8 C 5017.8 742.4 5019.6 754.2 5021.3 770.7 L 5038.1 936 L 5123.3 758.2 C 5129.1 745.3 5133.5 736.1 5136.8 730.2 C 5140.1 724.5 5144.6 719.5 5150.6 715 C 5156.3 710.7 5164.1 708.6 5173.5 708.6 C 5183 708.6 5190.7 711.8 5196.6 718.5 C 5202.3 725.1 5204.5 732.8 5202.7 741.9 C 5201.3 750 5195.9 762.2 5186.8 778.8 L 5086.8 969.6 C 5078.2 985.6 5071.5 997.4 5067.3 1004.5 C 5062.7 1011.9 5056.7 1018.3 5049 1023.9 C 5041.2 1029.5 5031.3 1032.2 5019.7 1032.2 C 5007.7 1032.2 4998.7 1029.2 4992.9 1023.2 C 4987.2 1017.2 4983.5 1009.9 4981.7 1001.1 C 4980 992.2 4978.6 980.9 4977.3 967 L 4960.3 811.9 L 4887.7 967 C 4877.8 988.6 4868.5 1004.7 4859.8 1015.7 C 4850.9 1026.6 4838 1032.2 4820.8 1032.2 C 4812.1 1032.2 4805 1030.5 4799.6 1027.3 C 4794 1023.9 4789.7 1018.9 4787 1012.7 C 4784 1006.3 4781.8 998.7 4780.3 990.1 C 4778.8 981.6 4777.5 974.6 4776.6 969.6 L 4747.4 778.8 C 4744.1 760.9 4743.3 748.7 4744.7 741.9 C 4746.1 733.3 4750.9 725.5 4759 718.6 C 4766.9 712 4776 708.6 4785.8 708.6 C 4799.2 708.6 4807.3 712.2 4810.8 719.8 C 4813.9 727.2 4816.5 740 4818.5 758.2 Z" style="white-space: pre; fill: rgb(88, 142, 204);"/>
    <path d="M 4562.7 714.2 L 4571.6 714.2 L 4580.3 666.2 C 4582.6 653.6 4584.9 643.5 4586.9 636.2 C 4588.9 628.9 4591.9 622.6 4596.1 617.5 C 4600.1 611.9 4605.4 607.6 4611.9 604.1 C 4618.3 600.7 4625.2 599 4632.3 599 C 4642.4 599 4651 602.9 4657.7 610.4 C 4662.1 615.3 4664.6 621.6 4664.7 628.9 C 4664.7 636.2 4663.6 646.4 4661 660 L 4651.1 714.2 L 4680.4 714.2 C 4691.5 714.2 4699.7 716.9 4704.7 722.2 C 4709.6 727.5 4711.3 734.4 4709.9 742.7 C 4707.9 753.5 4702.3 760.9 4692.8 765.2 C 4683.6 769.5 4671.2 771.7 4655.4 771.7 L 4640.5 771.7 L 4613.6 918 C 4611.3 930.5 4610 940.1 4609.7 946.8 C 4609.3 953.4 4610.6 959 4613.6 963.1 C 4616.6 967.4 4622.4 969.3 4631 969.3 C 4635.8 969.3 4642.2 968.7 4650.4 967 C 4658.7 965.3 4665.2 964.4 4669.6 964.4 C 4675.9 964.4 4681.2 967 4685.5 972 C 4689.7 977.3 4691.1 983.6 4689.7 991.2 C 4687.2 1004.1 4678.5 1014 4663.3 1020.6 C 4648 1027.5 4627.3 1030.9 4600.9 1030.9 C 4576 1030.9 4558 1026.6 4546.8 1018.5 C 4535.4 1010.1 4529.2 998.5 4527.9 983.6 C 4526.6 968.9 4528.3 949.1 4532.9 924.4 L 4561 771.7 L 4550.5 771.7 C 4539 771.7 4530.7 768.9 4525.7 763.5 C 4520.6 758.2 4518.8 751 4520.4 742.7 C 4522.1 734.4 4526.4 727.5 4533.7 722.2 C 4541 716.9 4550.7 714.2 4562.7 714.2 Z" style="white-space: pre; fill: rgb(88, 142, 204);"/>
    <path d="M 4324.9 714.2 L 4343.8 714.2 L 4348.1 690.3 C 4352.9 665.3 4359.5 645.7 4368.5 631.1 C 4377.5 616.2 4390.3 605.7 4406.6 598.8 C 4422.8 592.1 4444.2 588.8 4470.5 588.8 C 4517 588.8 4538 600.1 4533.9 622.9 C 4532.4 630.4 4529 636.6 4523 642 C 4517.4 647.1 4511.1 649.7 4504.5 649.7 C 4501.2 649.7 4496.2 649.1 4488.6 648 C 4481.3 647 4475.1 646.3 4469.9 646.3 C 4455.5 646.3 4445.4 650.6 4439.9 659 C 4434 667.3 4430 679.5 4427 695.3 L 4423.5 714.2 L 4443 714.2 C 4473.4 714.2 4486.9 723.4 4483.4 741.7 C 4481.1 754.7 4475.5 762.9 4466.7 766.4 C 4458.1 770 4446.7 771.7 4432.3 771.7 L 4412.9 771.7 L 4374.1 982.5 C 4371.1 998.4 4365.3 1010.3 4356.3 1018.5 C 4347.3 1026.9 4336.7 1030.9 4324.9 1030.9 C 4313.7 1030.9 4305 1026.9 4299.1 1018.5 C 4293.1 1010.3 4291.7 998.4 4294.4 982.5 L 4333.4 771.7 L 4311.4 771.7 C 4299.6 771.7 4290.8 768.9 4285.4 763.8 C 4280.1 758.2 4278.1 751.3 4279.6 742.7 C 4283.1 723.8 4298.3 714.2 4324.9 714.2 Z" style="white-space: pre; fill: rgb(88, 142, 204);"/>
    <path d="M 4133.7 944.4 C 4116.1 962.7 4095.3 971.7 4071.3 971.7 C 4055.4 971.7 4042.3 967.6 4032 959.1 C 4021.7 951.1 4014.8 939.2 4011.3 923.6 C 4007.9 908.1 4008.2 889.9 4011.9 869 C 4015.8 847.9 4022.5 829.7 4031.7 814.1 C 4041 798.2 4052.3 786.3 4065.7 778.1 C 4079 770.2 4093.6 766.1 4109.1 766.1 C 4133.2 766.1 4150.8 775.1 4161.7 793.2 C 4172.6 811.2 4175.3 836.6 4169.3 869 C 4163.1 901.2 4151.4 926.3 4133.7 944.4 Z M 4250.1 803.5 C 4246.5 783.7 4239.1 766.5 4227.6 752.2 C 4216.4 737.7 4201.7 726.5 4183.3 718.9 C 4165.1 711.2 4144.1 707.3 4120 707.3 C 4096.2 707.3 4073.8 711.2 4052.8 718.6 C 4031.7 726.4 4013.1 737.4 3996.6 751.6 C 3980.2 765.7 3966.5 782.9 3955.3 802.9 C 3944.3 822.8 3936.4 844.9 3932.1 869 C 3927.5 893.1 3927.4 914.7 3931.1 934.5 C 3934.7 954.3 3942.1 971.4 3953.6 985.8 C 3964.9 1000.4 3979.5 1011.4 3997.3 1019.2 C 4015.2 1027.1 4036.3 1030.9 4060.3 1030.9 C 4084.6 1030.9 4107.1 1027.1 4128.2 1019.3 C 4149.1 1011.9 4167.7 1000.7 4184.2 986.2 C 4201 971.9 4215 954.7 4225.9 934.7 C 4237.1 914.7 4244.8 892.9 4249.1 869 C 4253.4 845.2 4253.8 823.3 4250.1 803.5 Z" style="white-space: pre; fill: rgb(88, 142, 204);"/>
    <path d="M 3890.8 895.5 C 3886.1 921.3 3875.2 944.4 3858 965 C 3841.1 985.6 3818.5 1001.7 3790.8 1013.6 C 3762.8 1025.2 3731.5 1030.9 3696.2 1030.9 C 3653.9 1030.9 3620.7 1023 3596.2 1007.1 C 3578.8 995.5 3565.9 980.2 3557.3 961.1 C 3548.7 941.8 3545.9 923.3 3549.3 905.4 C 3551.3 894.8 3556.5 885.7 3565.2 878.3 C 3573.8 870.7 3584 867.1 3595 867.1 C 3604.3 867.1 3611.5 869.8 3616.5 875.7 C 3622 881.7 3625.8 890.3 3628.1 901.8 C 3631 915.4 3634.8 926.7 3639.6 935.8 C 3644 945.1 3651.6 952.5 3662.1 958.6 C 3672.4 964.4 3686.9 967.4 3705.5 967.4 C 3731.3 967.4 3753.2 961.4 3771.4 949.4 C 3789.7 937.5 3800.4 922.4 3803.7 904.7 C 3806.4 890.5 3804.1 878.9 3797 870.1 C 3790.1 861.2 3780.2 854.4 3767.3 849.9 C 3754.5 845.2 3737 840.2 3715.1 834.9 C 3685.7 827.7 3661.5 819.4 3642.6 809.8 C 3623.7 800 3609.8 787 3600.5 770.4 C 3591.4 753.6 3589.1 733.1 3593.6 708.3 C 3598 684.9 3608.2 663.9 3624.5 645.7 C 3640.6 627.4 3661.9 613.4 3687.9 603.5 C 3714.1 593.7 3743.5 588.8 3776.3 588.8 C 3802.5 588.8 3824.7 591.9 3842.8 598.7 C 3860.6 605 3874.9 613.9 3885.7 624.6 C 3896.3 635.4 3903.3 646.7 3907 658.6 C 3910.9 670.3 3911.5 681.9 3909.6 693.1 C 3907.6 703.6 3902.3 712.9 3893.4 721.1 C 3884.4 729.4 3874.8 733.4 3863.7 733.4 C 3854 733.4 3846.8 730.8 3842.5 725.9 C 3838.2 721.1 3834.2 712.9 3830.3 701.7 C 3825.6 685.5 3818.5 672.9 3809.3 663.9 C 3800 654.9 3783.2 650.4 3759.1 650.4 C 3736.9 650.4 3718 655.3 3702.5 664.9 C 3686.9 674.8 3677.7 686.7 3675.3 700.6 C 3673.7 709 3674.7 716.5 3678.3 722.8 C 3681.9 729 3687.3 734.4 3694.5 738.7 C 3701.8 743.1 3709.5 746.6 3717.3 749.2 C 3725.3 751.7 3738.3 755.3 3756.8 760.3 C 3779.8 765.9 3800.7 772.1 3818.9 779 C 3837.2 785.7 3852.1 794 3864.2 803.6 C 3876 813.4 3884.4 825.8 3889.4 840.6 C 3894.3 855.5 3895 873.7 3890.8 895.5 Z" style="white-space: pre; fill: rgb(88, 142, 204);"/>
  </g>
</svg>