<?xml version="1.0" encoding="utf-8"?>
<svg viewBox="-82.6 -315.5 1145.7 1196.9" xmlns="http://www.w3.org/2000/svg" xmlns:bx="https://boxy-svg.com">
  <defs>
    <bx:guide x="497.3" y="510.9" angle="0"/>
    <bx:guide x="718.6" y="209.4" angle="90"/>
    <bx:guide x="708.4" y="232.4" angle="90"/>
    <bx:guide x="338.2" y="247.6" angle="0"/>
    <bx:guide x="377.8" y="254.8" angle="0"/>
    <bx:guide x="607.6" y="370" angle="90"/>
    <bx:guide x="663.7" y="393" angle="90"/>
    <bx:guide x="671.7" y="437.4" angle="90"/>
    <bx:guide x="669.3" y="485.4" angle="90"/>
    <bx:guide x="686.5" y="117.2" angle="90"/>
    <bx:guide x="696.7" y="163.9" angle="90"/>
    <bx:guide x="616.9" y="186.7" angle="0"/>
    <bx:guide x="656.6" y="231.9" angle="0"/>
  </defs>
  <path d="M 262 44.7 L 421.3 136.7 L 421.3 320.7 L 262 412.7 L 102.7 320.7 L 102.7 136.7 Z" style="stroke: rgb(0, 0, 0); fill: rgb(34, 93, 169);" transform="matrix(0.5, 0.866025, -0.866025, 0.5, 565.027423, -39.900552)" bx:shape="n-gon 262 228.7 184 184 6 0 1@5fe77ebf"/>
  <path d="M 262 44.7 L 421.3 136.7 L 421.3 320.7 L 262 412.7 L 102.7 320.7 L 102.7 136.7 Z" style="fill: none; stroke: rgb(0, 0, 0);" transform="matrix(0.5, 0.866025, -0.866025, 0.5, 564.785602, -86.056176)" bx:shape="n-gon 262 228.7 184 184 6 0 1@5fe77ebf"/>
  <path d="M 262 91.2 L 381.1 160 L 381.1 297.4 L 262 366.2 L 142.9 297.5 L 142.9 160 Z" style="stroke: rgb(0, 0, 0); fill: none;" transform="matrix(0.5, 0.866025, -0.866025, 0.5, 564.785602, -86.056199)" bx:shape="n-gon 262 228.7 137.5 137.5 6 0 1@3b234010"/>
  <path d="M 262 135.4 L 342.8 182 L 342.8 275.3 L 262 322 L 181.2 275.4 L 181.2 182 Z" style="fill: none; stroke: rgb(0, 0, 0);" transform="matrix(0.5, 0.866025, -0.866025, 0.5, 564.785663, -85.822694)" bx:shape="n-gon 262 228.7 93.3 93.3 6 0 1@40b34e93"/>
  <path d="M 262 182.7 L 301.8 205.7 L 301.8 251.7 L 262 274.7 L 222.2 251.7 L 222.2 205.7 Z" style="fill: none; stroke: rgb(0, 0, 0);" transform="matrix(0.5, 0.866025, -0.866025, 0.5, 564.785602, -86.056062)" bx:shape="n-gon 262 228.7 46 46 6 0 1@8799064c"/>
  <path d="M 262 44.7 L 421.3 136.7 L 421.3 320.7 L 262 412.7 L 102.7 320.7 L 102.7 136.7 Z" style="fill: none; stroke: rgb(0, 0, 0);" transform="matrix(0.5, 0.866025, -0.866025, 0.5, 565.795367, -268.443635)" bx:shape="n-gon 262 228.7 184 184 6 0 1@5fe77ebf"/>
  <path d="M 262 44.7 L 421.3 136.7 L 421.3 320.7 L 262 412.7 L 102.7 320.7 L 102.7 136.7 Z" style="fill: none; stroke: rgb(0, 0, 0);" transform="matrix(0.5, 0.866025, -0.866025, 0.5, 564.582965, 99.695388)" bx:shape="n-gon 262 228.7 184 184 6 0 1@5fe77ebf"/>
  <path d="M 262 44.7 L 421.3 136.7 L 421.3 320.7 L 262 412.7 L 102.7 320.7 L 102.7 136.7 Z" style="fill: none; stroke: rgb(0, 0, 0);" transform="matrix(0.5, 0.866025, -0.866025, 0.5, 724.940692, -84.820413)" bx:shape="n-gon 262 228.7 184 184 6 0 1@5fe77ebf"/>
  <path d="M 262 44.7 L 421.3 136.7 L 421.3 320.7 L 262 412.7 L 102.7 320.7 L 102.7 136.7 Z" style="fill: none; stroke: rgb(0, 0, 0);" transform="matrix(0.5, 0.866025, -0.866025, 0.5, 406.355548, -86.596658)" bx:shape="n-gon 262 228.7 184 184 6 0 1@5fe77ebf"/>
  <path d="M 262 44.7 L 421.3 136.7 L 421.3 320.7 L 262 412.7 L 102.7 320.7 L 102.7 136.7 Z" style="fill: none; stroke: rgb(0, 0, 0);" transform="matrix(0.5, 0.866025, -0.866025, 0.5, 564.7112, -131.988389)" bx:shape="n-gon 262 228.7 184 184 6 0 1@5fe77ebf"/>
  <path d="M 262 44.7 L 421.3 136.7 L 421.3 320.7 L 262 412.7 L 102.7 320.7 L 102.7 136.7 Z" style="fill: none; stroke: rgb(0, 0, 0);" transform="matrix(0.5, 0.866025, -0.866025, 0.5, 724.252093, -176.315828)" bx:shape="n-gon 262 228.7 184 184 6 0 1@5fe77ebf"/>
  <path d="M 262 44.7 L 421.3 136.7 L 421.3 320.7 L 262 412.7 L 102.7 320.7 L 102.7 136.7 Z" style="fill: none; stroke: rgb(0, 0, 0);" transform="matrix(0.5, 0.866025, -0.866025, 0.5, 405.461475, -177.068711)" bx:shape="n-gon 262 228.7 184 184 6 0 1@5fe77ebf"/>
  <path d="M 262 44.7 L 421.3 136.7 L 421.3 320.7 L 262 412.7 L 102.7 320.7 L 102.7 136.7 Z" style="fill: none; stroke: rgb(0, 0, 0);" transform="matrix(0.5, 0.866025, -0.866025, 0.5, 405.194629, 7.363118)" bx:shape="n-gon 262 228.7 184 184 6 0 1@5fe77ebf"/>
  <path d="M 262 44.7 L 421.3 136.7 L 421.3 320.7 L 262 412.7 L 102.7 320.7 L 102.7 136.7 Z" style="fill: none; stroke: rgb(0, 0, 0);" transform="matrix(0.5, 0.866025, -0.866025, 0.5, 725.770099, 6.293893)" bx:shape="n-gon 262 228.7 184 184 6 0 1@5fe77ebf"/>
  <path d="M 262 44.7 L 421.3 136.7 L 421.3 320.7 L 262 412.7 L 102.7 320.7 L 102.7 136.7 Z" style="fill: none; stroke: rgb(0, 0, 0);" transform="matrix(0.5, 0.866025, -0.866025, 0.5, 567.274005, -406.952089)" bx:shape="n-gon 262 228.7 184 184 6 0 1@5fe77ebf"/>
  <path d="M 262 44.7 L 421.3 136.7 L 421.3 320.7 L 262 412.7 L 102.7 320.7 L 102.7 136.7 Z" style="fill: none; stroke: rgb(0, 0, 0);" transform="matrix(0.5, 0.866025, -0.866025, 0.5, 564.631915, 235.999648)" bx:shape="n-gon 262 228.7 184 184 6 0 1@5fe77ebf"/>
  <path d="M 262 44.7 L 421.3 136.7 L 421.3 320.7 L 262 412.7 L 102.7 320.7 L 102.7 136.7 Z" style="fill: none; stroke: rgb(0, 0, 0);" transform="matrix(0.5, 0.866025, -0.866025, 0.5, 805.134112, -85.232568)" bx:shape="n-gon 262 228.7 184 184 6 0 1@5fe77ebf"/>
  <path d="M 262 44.7 L 421.3 136.7 L 421.3 320.7 L 262 412.7 L 102.7 320.7 L 102.7 136.7 Z" style="fill: none; stroke: rgb(0, 0, 0);" transform="matrix(0.5, 0.866025, -0.866025, 0.5, 325.454364, -86.246423)" bx:shape="n-gon 262 228.7 184 184 6 0 1@5fe77ebf"/>
  <path d="M 262 44.7 L 421.3 136.7 L 421.3 320.7 L 262 412.7 L 102.7 320.7 L 102.7 136.7 Z" style="fill: none; stroke: rgb(0, 0, 0);" transform="matrix(0.5, 0.866025, -0.866025, 0.5, 763.533343, -200.184495)" bx:shape="n-gon 262 228.7 184 184 6 0 1@5fe77ebf"/>
  <path d="M 262 44.7 L 421.3 136.7 L 421.3 320.7 L 262 412.7 L 102.7 320.7 L 102.7 136.7 Z" style="fill: none; stroke: rgb(0, 0, 0);" transform="matrix(0.5, 0.866025, -0.866025, 0.5, 365.668841, 29.593751)" bx:shape="n-gon 262 228.7 184 184 6 0 1@5fe77ebf"/>
  <path d="M 262 44.7 L 421.3 136.7 L 421.3 320.7 L 262 412.7 L 102.7 320.7 L 102.7 136.7 Z" style="fill: none; stroke: rgb(0, 0, 0);" transform="matrix(0.5, 0.866025, -0.866025, 0.5, 843.644488, -62.418016)" bx:shape="n-gon 262 228.7 184 184 6 0 1@5fe77ebf"/>
  <path d="M 262 44.7 L 421.3 136.7 L 421.3 320.7 L 262 412.7 L 102.7 320.7 L 102.7 136.7 Z" style="fill: none; stroke: rgb(0, 0, 0);" transform="matrix(0.5, 0.866025, -0.866025, 0.5, 286.141009, -63.618367)" bx:shape="n-gon 262 228.7 184 184 6 0 1@5fe77ebf"/>
  <path d="M 262 44.7 L 421.3 136.7 L 421.3 320.7 L 262 412.7 L 102.7 320.7 L 102.7 136.7 Z" style="fill: none; stroke: rgb(0, 0, 0);" transform="matrix(0.5, 0.866025, -0.866025, 0.5, 405.381, -223.639756)" bx:shape="n-gon 262 228.7 184 184 6 0 1@5fe77ebf"/>
  <path d="M 262 44.7 L 421.3 136.7 L 421.3 320.7 L 262 412.7 L 102.7 320.7 L 102.7 136.7 Z" style="fill: none; stroke: rgb(0, 0, 0);" transform="matrix(0.5, 0.866025, -0.866025, 0.5, 763.392657, 29.404523)" bx:shape="n-gon 262 228.7 184 184 6 0 1@5fe77ebf"/>
  <path d="M 262 44.7 L 421.3 136.7 L 421.3 320.7 L 262 412.7 L 102.7 320.7 L 102.7 136.7 Z" style="fill: none; stroke: rgb(0, 0, 0);" transform="matrix(0.5, 0.866025, -0.866025, 0.5, 724.231036, 189.082579)" bx:shape="n-gon 262 228.7 184 184 6 0 1@5fe77ebf"/>
  <path d="M 262 44.7 L 421.3 136.7 L 421.3 320.7 L 262 412.7 L 102.7 320.7 L 102.7 136.7 Z" style="fill: none; stroke: rgb(0, 0, 0);" transform="matrix(0.5, 0.866025, -0.866025, 0.5, 404.943072, 190.615111)" bx:shape="n-gon 262 228.7 184 184 6 0 1@5fe77ebf"/>
  <path d="M 262 44.7 L 421.3 136.7 L 421.3 320.7 L 262 412.7 L 102.7 320.7 L 102.7 136.7 Z" style="fill: none; stroke: rgb(0, 0, 0);" transform="matrix(0.5, 0.866025, -0.866025, 0.5, 365.279895, -200.071077)" bx:shape="n-gon 262 228.7 184 184 6 0 1@5fe77ebf"/>
  <path d="M 262 44.7 L 421.3 136.7 L 421.3 320.7 L 262 412.7 L 102.7 320.7 L 102.7 136.7 Z" style="fill: none; stroke: rgb(0, 0, 0);" transform="matrix(0.5, 0.866025, -0.866025, 0.5, 843.873736, -245.685411)" bx:shape="n-gon 262 228.7 184 184 6 0 1@5fe77ebf"/>
  <path d="M 262 44.7 L 421.3 136.7 L 421.3 320.7 L 262 412.7 L 102.7 320.7 L 102.7 136.7 Z" style="fill: none; stroke: rgb(0, 0, 0);" transform="matrix(0.5, 0.866025, -0.866025, 0.5, 325.384082, 5.674635)" bx:shape="n-gon 262 228.7 184 184 6 0 1@5fe77ebf"/>
  <path d="M 262 44.7 L 421.3 136.7 L 421.3 320.7 L 262 412.7 L 102.7 320.7 L 102.7 136.7 Z" style="fill: none; stroke: rgb(0, 0, 0);" transform="matrix(0.5, 0.866025, -0.866025, 0.5, 724.795856, -131.171357)" bx:shape="n-gon 262 228.7 184 184 6 0 1@5fe77ebf"/>
  <path d="M 262 44.7 L 421.3 136.7 L 421.3 320.7 L 262 412.7 L 102.7 320.7 L 102.7 136.7 Z" style="fill: none; stroke: rgb(0, 0, 0);" transform="matrix(0.5, 0.866025, -0.866025, 0.5, 804.574542, 97.206832)" bx:shape="n-gon 262 228.7 184 184 6 0 1@5fe77ebf"/>
  <path d="M 262 44.7 L 421.3 136.7 L 421.3 320.7 L 262 412.7 L 102.7 320.7 L 102.7 136.7 Z" style="fill: none; stroke: rgb(0, 0, 0);" transform="matrix(0.5, 0.866025, -0.866025, 0.5, 406.459247, -132.305589)" bx:shape="n-gon 262 228.7 184 184 6 0 1@5fe77ebf"/>
  <path d="M 262 44.7 L 421.3 136.7 L 421.3 320.7 L 262 412.7 L 102.7 320.7 L 102.7 136.7 Z" style="fill: none; stroke: rgb(0, 0, 0);" transform="matrix(0.5, 0.866025, -0.866025, 0.5, 564.802997, -315.97516)" bx:shape="n-gon 262 228.7 184 184 6 0 1@5fe77ebf"/>
  <path d="M 262 44.7 L 421.3 136.7 L 421.3 320.7 L 262 412.7 L 102.7 320.7 L 102.7 136.7 Z" style="fill: none; stroke: rgb(0, 0, 0);" transform="matrix(0.5, 0.866025, -0.866025, 0.5, 844.566058, -201.437577)" bx:shape="n-gon 262 228.7 184 184 6 0 1@5fe77ebf"/>
  <path d="M 262 44.7 L 421.3 136.7 L 421.3 320.7 L 262 412.7 L 102.7 320.7 L 102.7 136.7 Z" style="fill: none; stroke: rgb(0, 0, 0);" transform="matrix(0.5, 0.866025, -0.866025, 0.5, 286.709247, 28.815543)" bx:shape="n-gon 262 228.7 184 184 6 0 1@5fe77ebf"/>
  <path d="M 262 44.7 L 421.3 136.7 L 421.3 320.7 L 262 412.7 L 102.7 320.7 L 102.7 136.7 Z" style="fill: none; stroke: rgb(0, 0, 0);" transform="matrix(0.5, 0.866025, -0.866025, 0.5, 682.133014, -245.837831)" bx:shape="n-gon 262 228.7 184 184 6 0 1@5fe77ebf"/>
  <path d="M 262 44.7 L 421.3 136.7 L 421.3 320.7 L 262 412.7 L 102.7 320.7 L 102.7 136.7 Z" style="fill: none; stroke: rgb(0, 0, 0);" transform="matrix(0.5, 0.866025, -0.866025, 0.5, 844.091815, 118.951751)" bx:shape="n-gon 262 228.7 184 184 6 0 1@5fe77ebf"/>
  <path d="M 262 44.7 L 421.3 136.7 L 421.3 320.7 L 262 412.7 L 102.7 320.7 L 102.7 136.7 Z" style="fill: none; stroke: rgb(0, 0, 0);" transform="matrix(0.5, 0.866025, -0.866025, 0.5, 286.578479, -203.446092)" bx:shape="n-gon 262 228.7 184 184 6 0 1@5fe77ebf"/>
  <path d="M 262 44.7 L 421.3 136.7 L 421.3 320.7 L 262 412.7 L 102.7 320.7 L 102.7 136.7 Z" style="fill: none; stroke: rgb(0, 0, 0);" transform="matrix(0.5, 0.866025, -0.866025, 0.5, 324.964862, -224.632356)" bx:shape="n-gon 262 228.7 184 184 6 0 1@5fe77ebf"/>
  <path d="M 262 44.7 L 421.3 136.7 L 421.3 320.7 L 262 412.7 L 102.7 320.7 L 102.7 136.7 Z" style="fill: none; stroke: rgb(0, 0, 0);" transform="matrix(0.5, 0.866025, -0.866025, 0.5, 804.531146, -224.522371)" bx:shape="n-gon 262 228.7 184 184 6 0 1@5fe77ebf"/>
  <path d="M 262 44.7 L 421.3 136.7 L 421.3 320.7 L 262 412.7 L 102.7 320.7 L 102.7 136.7 Z" style="fill: none; stroke: rgb(0, 0, 0);" transform="matrix(0.5, 0.866025, -0.866025, 0.5, 326.173999, 52.461074)" bx:shape="n-gon 262 228.7 184 184 6 0 1@5fe77ebf"/>
  <path d="M 262 44.7 L 421.3 136.7 L 421.3 320.7 L 262 412.7 L 102.7 320.7 L 102.7 136.7 Z" style="fill: none; stroke: rgb(0, 0, 0);" transform="matrix(0.5, 0.866025, -0.866025, 0.5, 643.278766, -222.467576)" bx:shape="n-gon 262 228.7 184 184 6 0 1@5fe77ebf"/>
  <path d="M 262 91.2 L 381.1 160 L 381.1 297.4 L 262 366.2 L 142.9 297.5 L 142.9 160 Z" style="stroke: rgb(0, 0, 0); fill-opacity: 0.48; fill: rgb(255, 255, 255);" transform="matrix(0.5, 0.866025, -0.866025, 0.5, 565.037738, -40.184049)" bx:shape="n-gon 262 228.7 137.5 137.5 6 0 1@3b234010"/>
  <g>
    <path d="M 389.4 374.9 L 505.6 307.4 L 547.8 329.7 L 387.9 422 L 228 329.7 L 267.7 307.4 L 389.4 374.9 Z" style="fill: rgb(255, 0, 0);" transform="matrix(0.5, 0.866025, -0.866025, 0.5, 509.789378, -153.581269)"/>
    <path d="M 524.4 386.2 L 500.6 396.9 L 423.1 351.5 L 404.7 362.7 L 323.5 315.8 L 363.2 293.5 L 524.4 386.2 Z" style="fill: rgb(255, 0, 0);" transform="matrix(0.5, 0.866025, -0.866025, 0.5, 510.926888, -194.551496)"/>
    <path d="M 582.3 421 L 558.5 431.7 L 481 386.3 L 462.6 397.5 L 381.4 350.6 L 421.1 328.3 L 582.3 421 Z" style="fill: rgb(255, 0, 0);" transform="matrix(0.5, 0.866025, -0.866025, 0.5, 570.014554, -227.294347)"/>
  </g>
  <path d="M 261.7 45.3 L 261.8 91.2 L 142.6 160.6 L 142.2 298.3 L 102.7 320.7 L 102.7 136.7 L 261.7 45.3 Z" style="fill: rgb(27, 219, 1);" transform="matrix(0.5, 0.866025, -0.866025, 0.5, 565.027405, -39.900551)"/>
  <g>
    <path d="M 498 209.2 L 657.3 301.2 L 657.3 485.2 L 615.5 461.8 L 616.9 324.5 L 497.8 255.7 L 498 209.2 Z" style="fill: rgb(0, 73, 168);" transform="matrix(0.5, 0.866025, -0.866025, 0.5, 589.458906, -326.572965)"/>
    <path d="M 667.6 376.4 L 666.1 397.4 L 586.3 353.4 L 586 373.6 L 507.3 326.8 L 507.3 285.1 L 667.6 376.4 Z" style="fill: rgb(0, 73, 168);" transform="matrix(0.5, 0.866025, -0.866025, 0.5, 589.256053, -338.121608)"/>
    <path d="M 608.3 411.2 L 606.8 432.2 L 527 388.2 L 526.7 408.4 L 448 361.6 L 448 319.9 L 608.3 411.2 Z" style="fill: rgb(0, 73, 168);" transform="matrix(0.5, 0.866025, -0.866025, 0.5, 589.743751, -269.36632)"/>
  </g>
</svg>