<?xml version="1.0" encoding="utf-8"?>
<svg id="Agrupar_1" data-name="Agrupar 1" width="1280" height="567" viewBox="323.8 7.5 665 547.4" xmlns="http://www.w3.org/2000/svg">
  <defs>
    <style>
      .cls-1, .cls-2, .cls-4, .cls-5, .cls-6 {
        fill-rule: evenodd;
      }

      .cls-2, .cls-3 {
        fill: #fff;
      }

      .cls-4 {
        fill: #0074ff;
      }

      .cls-5 {
        fill: red;
      }

      .cls-6 {
        fill: #ffea00;
      }
    </style>
  </defs>
  <g>
    <title>logo aes balão color</title>
    <path id="Forma_8" data-name="Forma 8" class="cls-1" d="M 541.1 354.4 C 543.7 355.4 412.9 248.8 385 174.5 C 376.7 152.3 339.3 54.9 530 39.5 C 720.7 24.1 812 55.5 812 55.5 C 812 55.5 977.6 74.4 959 180.5 C 940.4 286.6 669 386.5 669 386.5 C 669 386.5 701.7 461.5 638 501.5 C 574.3 541.5 522 474.5 522 474.5 C 514.6 455.7 484.9 407.4 541.1 354.4 Z" style="">
      <title>contono preto</title>
    </path>
    <g style="" transform="matrix(1, 0, 0, 1, -296.992828, -4.543231)">
      <title>aes.</title>
      <circle id="Elipse_1" data-name="Elipse 1" class="cls-3" cx="889" cy="430" r="48" style="">
        <title>ponto</title>
      </circle>
    </g>
    <g style="" transform="matrix(1, 0, 0, 1, -296.992828, -4.543231)">
      <title>balão</title>
      <g>
        <title>azul</title>
        <path id="Forma_5" data-name="Forma 5" class="cls-4" d="M 723.9 176.8 C 757.2 237.6 863.5 331.1 863.5 331.1 L 815 208 C 790.5 155.5 799 87 799 87 C 683.5 104.3 710.5 152.4 723.9 176.8 Z" style="fill-opacity: 0.8;">
          <title>azul 1</title>
        </path>
      </g>
      <path id="Forma_6" data-name="Forma 6" class="cls-5" d="M 909 334 C 966.8 202.8 1035 87 1035 87 C 1035 87 922.3 71.1 856 81 C 789.7 90.9 909 334 909 334 Z">
        <title>vermelho</title>
      </path>
      <path id="Forma_7" data-name="Forma 7" class="cls-6" d="M 944 357 C 944 357 1046.4 101.4 1084 95 C 1113.1 99.3 1227.1 107.2 1219 176 C 1210 251.7 944 357 944 357 Z">
        <title>amarelo</title>
      </path>
    </g>
  </g>
</svg>