<?xml version="1.0" encoding="utf-8"?>
<svg viewBox="-4436.9 -1696.8 500 2000" xmlns="http://www.w3.org/2000/svg">
  <path d="M -4207.1 -1220.9 C -4195.4 -1214.3 -4183.8 -1214.3 -4172 -1220.9 L -4032.2 -1301.5 C -4020.7 -1308.6 -4014.9 -1318.6 -4014.9 -1332.1 L -4014.9 -1493.5 C -4014.9 -1507 -4020.7 -1516.8 -4032.2 -1523.8 L -4172 -1604.5 C -4183.8 -1611.1 -4195.4 -1611.1 -4207.1 -1604.5 L -4346.9 -1523.8 C -4358.5 -1516.8 -4364.3 -1507 -4364.3 -1493.5 L -4364.3 -1332.1 C -4364.3 -1318.6 -4358.5 -1308.6 -4346.9 -1301.5 M -4331.6 -1311.2 C -4342.1 -1317.3 -4347.4 -1326.5 -4347.4 -1338.9 L -4347.4 -1485.3 C -4347.4 -1497.4 -4342.3 -1506.5 -4331.6 -1512.7 L -4204.5 -1586 C -4194.1 -1592 -4183.7 -1592 -4173.3 -1586 L -4046.1 -1512.7 C -4035.7 -1506.5 -4030.4 -1497.4 -4030.4 -1485.3 L -4030.4 -1338.9 C -4030.2 -1326.5 -4035.5 -1317.3 -4046.1 -1311.2 L -4173.3 -1237.9 C -4183.7 -1231.8 -4194.1 -1231.8 -4204.5 -1237.9 M -4064.6 -1317.3 L -4096.1 -1335.3 L -4189.9 -1281.5 L -4283.6 -1335.1 L -4314.3 -1317 L -4189.1 -1244.9 M -4207.7 -1567.7 L -4333.7 -1495.2 L -4333.7 -1350.3 L -4302.8 -1368.5 L -4300.8 -1478 L -4271.3 -1494.8 L -4270.7 -1459.2 L -4285.5 -1451.3 L -4285.5 -1377.7 L -4255.2 -1396.1 L -4254.7 -1504.6 L -4225.8 -1521.2 L -4225.7 -1486.7 L -4240.4 -1478.5 L -4240.4 -1405 L -4209.5 -1422.9 M -4168.8 -1424 L -4138.1 -1406 L -4138.1 -1479.2 L -4152.6 -1487.5 L -4152.6 -1521.8 L -4123.6 -1505.3 L -4123.4 -1396.6 L -4092.8 -1378.5 L -4092.8 -1452.1 L -4107.6 -1460 L -4107.2 -1495.6 L -4077.3 -1478.5 L -4075.4 -1369.5 L -4045 -1351.2 L -4045 -1496 L -4170.5 -1568.8" style="stroke-miterlimit: 1; fill-opacity: 0.07;" transform="matrix(-0.49999, -0.866031, 0.866031, -0.49999, -5060.916016, -5747.359863)"/>
</svg>