<?xml version="1.0" encoding="utf-8"?>
<svg viewBox="-403.8 -271.6 2576.3 1269" xmlns="http://www.w3.org/2000/svg">
  <rect x="-406.3" y="-545.8" width="2648.9" height="1240.5" style="fill: rgb(0, 162, 255);"/>
  <circle style="fill-opacity: 0.23; fill: rgb(255, 255, 255);" cx="1026.3" cy="-120.1" r="1355.4" transform="matrix(0.999597, -0.028375, 0.028375, 0.999597, -127.905533, 356.04488)"/>
  <circle style="fill: rgb(255, 251, 0); fill-opacity: 0.23;" cx="1026.3" cy="-120.1" r="768" transform="matrix(0.999597, -0.028375, 0.028375, 0.999597, 455.407982, 378.927021)"/>
  <circle style="fill: rgb(255, 200, 0);" cx="1026.3" cy="-120.1" r="356.2" transform="matrix(0.999597, -0.028375, 0.028375, 0.999597, 805.041954, 498.973927)"/>
  <path d="M -14.9 374.9 C -14.9 374.9 226.2 141 427.4 139.1 C 789.6 135.5 1223.7 486.3 1643.4 529.9 C 1837.9 550 2071.1 328.7 2260.9 374.9 C 2511.8 435.8 2630.8 370.3 2630.8 370.3 L 2625 1340.5 L -14.7 1340.5 L -14.9 374.9 Z" style="fill: rgb(11, 97, 30);"/>
  <g transform="matrix(3.921673, 0, 0, -3.921673, -1364.256592, 489.57074)" style="">
    <path d="M 165.1 299.2 C 125.8 299.2 94 275.8 94 246.9 C 94 226.7 109.5 209.2 132.3 200.5 C 132.2 199.5 132.2 198.6 132.2 197.6 C 132.2 176.4 151.3 159.3 174.9 159.3 C 184.9 159.3 194.1 162.4 201.4 167.5 C 215.1 130.8 248.8 104.8 288.1 104.8 C 331 104.8 367.2 135.7 378.1 177.8 C 379.5 177.7 381 177.7 382.5 177.7 C 398.3 177.7 412.8 183 424.3 191.9 C 428.2 190.8 432.3 190.3 436.6 190.3 C 463.2 190.3 484.8 211.4 484.8 237.5 C 484.8 263.6 463.2 284.7 436.6 284.7 C 436.3 284.7 436 284.7 435.7 284.7 C 423.4 300.2 404.1 310.1 382.5 310.1 C 363.8 310.1 346.8 302.6 334.6 290.6 C 320.9 299 305 303.8 288.1 303.8 C 284.1 303.8 280.2 303.5 276.3 303 C 275.9 323.9 257 340.7 233.6 340.7 C 210 340.7 190.9 323.6 190.9 302.4 C 190.9 300 191.1 297.7 191.6 295.5 C 183.4 297.9 174.5 299.2 165.1 299.2 Z" style="fill: rgb(225, 250, 251);"/>
    <path d="M 166.7 295.6 C 127.4 295.6 95.6 272.2 95.6 243.3 C 95.6 223.1 111.1 205.6 133.9 196.9 C 133.8 195.9 133.8 195 133.8 194 C 133.8 172.8 152.9 155.7 176.5 155.7 C 186.5 155.7 195.7 158.8 203 163.9 C 216.7 127.2 250.4 101.2 289.7 101.2 C 332.6 101.2 368.8 132.1 379.7 174.2 C 381.1 174.1 382.6 174.1 384.1 174.1 C 399.9 174.1 414.4 179.4 425.9 188.3 C 429.8 187.2 433.9 186.7 438.2 186.7 C 464.8 186.7 486.4 207.8 486.4 233.9 C 486.4 260 464.8 281.1 438.2 281.1 C 437.9 281.1 437.6 281.1 437.3 281.1 C 425 296.6 405.7 306.5 384.1 306.5 C 365.4 306.5 348.4 299 336.2 287 C 322.5 295.4 306.6 300.2 289.7 300.2 C 285.7 300.2 281.8 299.9 277.9 299.4 C 277.5 320.3 258.6 337.1 235.2 337.1 C 211.6 337.1 192.5 320 192.5 298.8 C 192.5 296.4 192.7 294.1 193.2 291.9 C 185 294.3 176.1 295.6 166.7 295.6 Z" style="fill: rgb(255, 255, 255);"/>
    <path d="M 168.8 284.7 C 129.5 284.7 97.7 261.3 97.7 232.4 C 97.7 212.2 113.2 194.7 136 186 C 135.9 185 135.9 184.1 135.9 183.1 C 135.9 161.9 155 144.8 178.6 144.8 C 188.6 144.8 197.8 147.9 205.1 153 C 218.8 116.3 252.5 90.3 291.8 90.3 C 334.7 90.3 370.9 121.2 381.8 163.3 C 383.2 163.2 384.7 163.2 386.2 163.2 C 402 163.2 416.5 168.5 428 177.4 C 431.9 176.3 436 175.8 440.3 175.8 C 466.9 175.8 488.5 196.9 488.5 223 C 488.5 249.1 466.9 270.2 440.3 270.2 C 440 270.2 439.7 270.2 439.4 270.2 C 427.1 285.7 407.8 295.6 386.2 295.6 C 367.5 295.6 350.5 288.1 338.3 276.1 C 324.6 284.5 308.7 289.3 291.8 289.3 C 287.8 289.3 283.9 289 280 288.5 C 279.6 309.4 260.7 326.2 237.3 326.2 C 213.7 326.2 194.6 309.1 194.6 287.9 C 194.6 285.5 194.8 283.2 195.3 281 C 187.1 283.4 178.2 284.7 168.8 284.7 Z" style="fill: rgb(225, 250, 251);"/>
    <path d="M 167 288 C 127.7 288 95.9 264.6 95.9 235.7 C 95.9 215.5 111.4 198 134.2 189.3 C 134.1 188.3 134.1 187.4 134.1 186.4 C 134.1 165.2 153.2 148.1 176.8 148.1 C 186.8 148.1 196 151.2 203.3 156.3 C 217 119.6 250.7 93.6 290 93.6 C 332.9 93.6 369.1 124.5 380 166.6 C 381.4 166.5 382.9 166.5 384.4 166.5 C 400.2 166.5 414.7 171.8 426.2 180.7 C 430.1 179.6 434.2 179.1 438.5 179.1 C 465.1 179.1 486.7 200.2 486.7 226.3 C 486.7 252.4 465.1 273.5 438.5 273.5 C 438.2 273.5 437.9 273.5 437.6 273.5 C 425.3 289 406 298.9 384.4 298.9 C 365.7 298.9 348.7 291.4 336.5 279.4 C 322.8 287.8 306.9 292.6 290 292.6 C 286 292.6 282.1 292.3 278.2 291.8 C 277.8 312.7 258.9 329.5 235.5 329.5 C 211.9 329.5 192.8 312.4 192.8 291.2 C 192.8 288.8 193 286.5 193.5 284.3 C 185.3 286.7 176.4 288 167 288 Z" style="fill: rgb(255, 255, 255);"/>
    <path d="M 166.1 292.4 C 126.8 292.4 95 269 95 240.1 C 95 219.9 110.5 202.4 133.3 193.7 C 133.2 192.7 133.2 191.8 133.2 190.8 C 133.2 169.6 152.3 152.5 175.9 152.5 C 185.9 152.5 195.1 155.6 202.4 160.7 C 216.1 124 249.8 98 289.1 98 C 332 98 368.2 128.9 379.1 171 C 380.5 170.9 382 170.9 383.5 170.9 C 399.3 170.9 413.8 176.2 425.3 185.1 C 429.2 184 433.3 183.5 437.6 183.5 C 464.2 183.5 485.8 204.6 485.8 230.7 C 485.8 256.8 464.2 277.9 437.6 277.9 C 437.3 277.9 437 277.9 436.7 277.9 C 424.4 293.4 405.1 303.3 383.5 303.3 C 364.8 303.3 347.8 295.8 335.6 283.8 C 321.9 292.2 306 297 289.1 297 C 285.1 297 281.2 296.7 277.3 296.2 C 276.9 317.1 258 333.9 234.6 333.9 C 211 333.9 191.9 316.8 191.9 295.6 C 191.9 293.2 192.1 290.9 192.6 288.7 C 184.4 291.1 175.5 292.4 166.1 292.4 Z" style="fill: rgb(189, 252, 255);"/>
    <path d="M 165.1 299.2 C 125.8 299.2 94 275.8 94 246.9 C 94 226.7 109.5 209.2 132.3 200.5 C 132.2 199.5 132.2 198.6 132.2 197.6 C 132.2 176.4 151.3 159.3 174.9 159.3 C 184.9 159.3 194.1 162.4 201.4 167.5 C 215.1 130.8 248.8 104.8 288.1 104.8 C 331 104.8 367.2 135.7 378.1 177.8 C 379.5 177.7 381 177.7 382.5 177.7 C 398.3 177.7 412.8 183 424.3 191.9 C 428.2 190.8 432.3 190.3 436.6 190.3 C 463.2 190.3 484.8 211.4 484.8 237.5 C 484.8 263.6 463.2 284.7 436.6 284.7 C 436.3 284.7 436 284.7 435.7 284.7 C 423.4 300.2 404.1 310.1 382.5 310.1 C 363.8 310.1 346.8 302.6 334.6 290.6 C 320.9 299 305 303.8 288.1 303.8 C 284.1 303.8 280.2 303.5 276.3 303 C 275.9 323.9 257 340.7 233.6 340.7 C 210 340.7 190.9 323.6 190.9 302.4 C 190.9 300 191.1 297.7 191.6 295.5 C 183.4 297.9 174.5 299.2 165.1 299.2 Z" style="fill: rgb(225, 250, 251);"/>
    <path d="M 166.7 295.6 C 127.4 295.6 95.6 272.2 95.6 243.3 C 95.6 223.1 111.1 205.6 133.9 196.9 C 133.8 195.9 133.8 195 133.8 194 C 133.8 172.8 152.9 155.7 176.5 155.7 C 186.5 155.7 195.7 158.8 203 163.9 C 216.7 127.2 250.4 101.2 289.7 101.2 C 332.6 101.2 368.8 132.1 379.7 174.2 C 381.1 174.1 382.6 174.1 384.1 174.1 C 399.9 174.1 414.4 179.4 425.9 188.3 C 429.8 187.2 433.9 186.7 438.2 186.7 C 464.8 186.7 486.4 207.8 486.4 233.9 C 486.4 260 464.8 281.1 438.2 281.1 C 437.9 281.1 437.6 281.1 437.3 281.1 C 425 296.6 405.7 306.5 384.1 306.5 C 365.4 306.5 348.4 299 336.2 287 C 322.5 295.4 306.6 300.2 289.7 300.2 C 285.7 300.2 281.8 299.9 277.9 299.4 C 277.5 320.3 258.6 337.1 235.2 337.1 C 211.6 337.1 192.5 320 192.5 298.8 C 192.5 296.4 192.7 294.1 193.2 291.9 C 185 294.3 176.1 295.6 166.7 295.6 Z" style="fill: rgb(255, 255, 255);"/>
    <path d="M 168.8 284.7 C 129.5 284.7 97.7 261.3 97.7 232.4 C 97.7 212.2 113.2 194.7 136 186 C 135.9 185 135.9 184.1 135.9 183.1 C 135.9 161.9 155 144.8 178.6 144.8 C 188.6 144.8 197.8 147.9 205.1 153 C 218.8 116.3 252.5 90.3 291.8 90.3 C 334.7 90.3 370.9 121.2 381.8 163.3 C 383.2 163.2 384.7 163.2 386.2 163.2 C 402 163.2 416.5 168.5 428 177.4 C 431.9 176.3 436 175.8 440.3 175.8 C 466.9 175.8 488.5 196.9 488.5 223 C 488.5 249.1 466.9 270.2 440.3 270.2 C 440 270.2 439.7 270.2 439.4 270.2 C 427.1 285.7 407.8 295.6 386.2 295.6 C 367.5 295.6 350.5 288.1 338.3 276.1 C 324.6 284.5 308.7 289.3 291.8 289.3 C 287.8 289.3 283.9 289 280 288.5 C 279.6 309.4 260.7 326.2 237.3 326.2 C 213.7 326.2 194.6 309.1 194.6 287.9 C 194.6 285.5 194.8 283.2 195.3 281 C 187.1 283.4 178.2 284.7 168.8 284.7 Z" style="fill: rgb(225, 250, 251);"/>
    <path d="M 167 288 C 127.7 288 95.9 264.6 95.9 235.7 C 95.9 215.5 111.4 198 134.2 189.3 C 134.1 188.3 134.1 187.4 134.1 186.4 C 134.1 165.2 153.2 148.1 176.8 148.1 C 186.8 148.1 196 151.2 203.3 156.3 C 217 119.6 250.7 93.6 290 93.6 C 332.9 93.6 369.1 124.5 380 166.6 C 381.4 166.5 382.9 166.5 384.4 166.5 C 400.2 166.5 414.7 171.8 426.2 180.7 C 430.1 179.6 434.2 179.1 438.5 179.1 C 465.1 179.1 486.7 200.2 486.7 226.3 C 486.7 252.4 465.1 273.5 438.5 273.5 C 438.2 273.5 437.9 273.5 437.6 273.5 C 425.3 289 406 298.9 384.4 298.9 C 365.7 298.9 348.7 291.4 336.5 279.4 C 322.8 287.8 306.9 292.6 290 292.6 C 286 292.6 282.1 292.3 278.2 291.8 C 277.8 312.7 258.9 329.5 235.5 329.5 C 211.9 329.5 192.8 312.4 192.8 291.2 C 192.8 288.8 193 286.5 193.5 284.3 C 185.3 286.7 176.4 288 167 288 Z" style="fill: rgb(255, 255, 255);"/>
    <path d="M 166.1 292.4 C 126.8 292.4 95 269 95 240.1 C 95 219.9 110.5 202.4 133.3 193.7 C 133.2 192.7 133.2 191.8 133.2 190.8 C 133.2 169.6 152.3 152.5 175.9 152.5 C 185.9 152.5 195.1 155.6 202.4 160.7 C 216.1 124 249.8 98 289.1 98 C 332 98 368.2 128.9 379.1 171 C 380.5 170.9 382 170.9 383.5 170.9 C 399.3 170.9 413.8 176.2 425.3 185.1 C 429.2 184 433.3 183.5 437.6 183.5 C 464.2 183.5 485.8 204.6 485.8 230.7 C 485.8 256.8 464.2 277.9 437.6 277.9 C 437.3 277.9 437 277.9 436.7 277.9 C 424.4 293.4 405.1 303.3 383.5 303.3 C 364.8 303.3 347.8 295.8 335.6 283.8 C 321.9 292.2 306 297 289.1 297 C 285.1 297 281.2 296.7 277.3 296.2 C 276.9 317.1 258 333.9 234.6 333.9 C 211 333.9 191.9 316.8 191.9 295.6 C 191.9 293.2 192.1 290.9 192.6 288.7 C 184.4 291.1 175.5 292.4 166.1 292.4 Z" style="fill: rgb(189, 252, 255);"/>
  </g>
  <g transform="matrix(1.271125, 0, 0, -1.271125, 1550.517822, -52.885036)" style="">
    <path d="M 165.1 299.2 C 125.8 299.2 94 275.8 94 246.9 C 94 226.7 109.5 209.2 132.3 200.5 C 132.2 199.5 132.2 198.6 132.2 197.6 C 132.2 176.4 151.3 159.3 174.9 159.3 C 184.9 159.3 194.1 162.4 201.4 167.5 C 215.1 130.8 248.8 104.8 288.1 104.8 C 331 104.8 367.2 135.7 378.1 177.8 C 379.5 177.7 381 177.7 382.5 177.7 C 398.3 177.7 412.8 183 424.3 191.9 C 428.2 190.8 432.3 190.3 436.6 190.3 C 463.2 190.3 484.8 211.4 484.8 237.5 C 484.8 263.6 463.2 284.7 436.6 284.7 C 436.3 284.7 436 284.7 435.7 284.7 C 423.4 300.2 404.1 310.1 382.5 310.1 C 363.8 310.1 346.8 302.6 334.6 290.6 C 320.9 299 305 303.8 288.1 303.8 C 284.1 303.8 280.2 303.5 276.3 303 C 275.9 323.9 257 340.7 233.6 340.7 C 210 340.7 190.9 323.6 190.9 302.4 C 190.9 300 191.1 297.7 191.6 295.5 C 183.4 297.9 174.5 299.2 165.1 299.2 Z" style="fill: rgb(225, 250, 251);"/>
    <path d="M 166.7 295.6 C 127.4 295.6 95.6 272.2 95.6 243.3 C 95.6 223.1 111.1 205.6 133.9 196.9 C 133.8 195.9 133.8 195 133.8 194 C 133.8 172.8 152.9 155.7 176.5 155.7 C 186.5 155.7 195.7 158.8 203 163.9 C 216.7 127.2 250.4 101.2 289.7 101.2 C 332.6 101.2 368.8 132.1 379.7 174.2 C 381.1 174.1 382.6 174.1 384.1 174.1 C 399.9 174.1 414.4 179.4 425.9 188.3 C 429.8 187.2 433.9 186.7 438.2 186.7 C 464.8 186.7 486.4 207.8 486.4 233.9 C 486.4 260 464.8 281.1 438.2 281.1 C 437.9 281.1 437.6 281.1 437.3 281.1 C 425 296.6 405.7 306.5 384.1 306.5 C 365.4 306.5 348.4 299 336.2 287 C 322.5 295.4 306.6 300.2 289.7 300.2 C 285.7 300.2 281.8 299.9 277.9 299.4 C 277.5 320.3 258.6 337.1 235.2 337.1 C 211.6 337.1 192.5 320 192.5 298.8 C 192.5 296.4 192.7 294.1 193.2 291.9 C 185 294.3 176.1 295.6 166.7 295.6 Z" style="fill: rgb(255, 255, 255);"/>
    <path d="M 168.8 284.7 C 129.5 284.7 97.7 261.3 97.7 232.4 C 97.7 212.2 113.2 194.7 136 186 C 135.9 185 135.9 184.1 135.9 183.1 C 135.9 161.9 155 144.8 178.6 144.8 C 188.6 144.8 197.8 147.9 205.1 153 C 218.8 116.3 252.5 90.3 291.8 90.3 C 334.7 90.3 370.9 121.2 381.8 163.3 C 383.2 163.2 384.7 163.2 386.2 163.2 C 402 163.2 416.5 168.5 428 177.4 C 431.9 176.3 436 175.8 440.3 175.8 C 466.9 175.8 488.5 196.9 488.5 223 C 488.5 249.1 466.9 270.2 440.3 270.2 C 440 270.2 439.7 270.2 439.4 270.2 C 427.1 285.7 407.8 295.6 386.2 295.6 C 367.5 295.6 350.5 288.1 338.3 276.1 C 324.6 284.5 308.7 289.3 291.8 289.3 C 287.8 289.3 283.9 289 280 288.5 C 279.6 309.4 260.7 326.2 237.3 326.2 C 213.7 326.2 194.6 309.1 194.6 287.9 C 194.6 285.5 194.8 283.2 195.3 281 C 187.1 283.4 178.2 284.7 168.8 284.7 Z" style="fill: rgb(225, 250, 251);"/>
    <path d="M 167 288 C 127.7 288 95.9 264.6 95.9 235.7 C 95.9 215.5 111.4 198 134.2 189.3 C 134.1 188.3 134.1 187.4 134.1 186.4 C 134.1 165.2 153.2 148.1 176.8 148.1 C 186.8 148.1 196 151.2 203.3 156.3 C 217 119.6 250.7 93.6 290 93.6 C 332.9 93.6 369.1 124.5 380 166.6 C 381.4 166.5 382.9 166.5 384.4 166.5 C 400.2 166.5 414.7 171.8 426.2 180.7 C 430.1 179.6 434.2 179.1 438.5 179.1 C 465.1 179.1 486.7 200.2 486.7 226.3 C 486.7 252.4 465.1 273.5 438.5 273.5 C 438.2 273.5 437.9 273.5 437.6 273.5 C 425.3 289 406 298.9 384.4 298.9 C 365.7 298.9 348.7 291.4 336.5 279.4 C 322.8 287.8 306.9 292.6 290 292.6 C 286 292.6 282.1 292.3 278.2 291.8 C 277.8 312.7 258.9 329.5 235.5 329.5 C 211.9 329.5 192.8 312.4 192.8 291.2 C 192.8 288.8 193 286.5 193.5 284.3 C 185.3 286.7 176.4 288 167 288 Z" style="fill: rgb(255, 255, 255);"/>
    <path d="M 166.1 292.4 C 126.8 292.4 95 269 95 240.1 C 95 219.9 110.5 202.4 133.3 193.7 C 133.2 192.7 133.2 191.8 133.2 190.8 C 133.2 169.6 152.3 152.5 175.9 152.5 C 185.9 152.5 195.1 155.6 202.4 160.7 C 216.1 124 249.8 98 289.1 98 C 332 98 368.2 128.9 379.1 171 C 380.5 170.9 382 170.9 383.5 170.9 C 399.3 170.9 413.8 176.2 425.3 185.1 C 429.2 184 433.3 183.5 437.6 183.5 C 464.2 183.5 485.8 204.6 485.8 230.7 C 485.8 256.8 464.2 277.9 437.6 277.9 C 437.3 277.9 437 277.9 436.7 277.9 C 424.4 293.4 405.1 303.3 383.5 303.3 C 364.8 303.3 347.8 295.8 335.6 283.8 C 321.9 292.2 306 297 289.1 297 C 285.1 297 281.2 296.7 277.3 296.2 C 276.9 317.1 258 333.9 234.6 333.9 C 211 333.9 191.9 316.8 191.9 295.6 C 191.9 293.2 192.1 290.9 192.6 288.7 C 184.4 291.1 175.5 292.4 166.1 292.4 Z" style="fill: rgb(189, 252, 255);"/>
    <path d="M 165.1 299.2 C 125.8 299.2 94 275.8 94 246.9 C 94 226.7 109.5 209.2 132.3 200.5 C 132.2 199.5 132.2 198.6 132.2 197.6 C 132.2 176.4 151.3 159.3 174.9 159.3 C 184.9 159.3 194.1 162.4 201.4 167.5 C 215.1 130.8 248.8 104.8 288.1 104.8 C 331 104.8 367.2 135.7 378.1 177.8 C 379.5 177.7 381 177.7 382.5 177.7 C 398.3 177.7 412.8 183 424.3 191.9 C 428.2 190.8 432.3 190.3 436.6 190.3 C 463.2 190.3 484.8 211.4 484.8 237.5 C 484.8 263.6 463.2 284.7 436.6 284.7 C 436.3 284.7 436 284.7 435.7 284.7 C 423.4 300.2 404.1 310.1 382.5 310.1 C 363.8 310.1 346.8 302.6 334.6 290.6 C 320.9 299 305 303.8 288.1 303.8 C 284.1 303.8 280.2 303.5 276.3 303 C 275.9 323.9 257 340.7 233.6 340.7 C 210 340.7 190.9 323.6 190.9 302.4 C 190.9 300 191.1 297.7 191.6 295.5 C 183.4 297.9 174.5 299.2 165.1 299.2 Z" style="fill: rgb(225, 250, 251);"/>
    <path d="M 166.7 295.6 C 127.4 295.6 95.6 272.2 95.6 243.3 C 95.6 223.1 111.1 205.6 133.9 196.9 C 133.8 195.9 133.8 195 133.8 194 C 133.8 172.8 152.9 155.7 176.5 155.7 C 186.5 155.7 195.7 158.8 203 163.9 C 216.7 127.2 250.4 101.2 289.7 101.2 C 332.6 101.2 368.8 132.1 379.7 174.2 C 381.1 174.1 382.6 174.1 384.1 174.1 C 399.9 174.1 414.4 179.4 425.9 188.3 C 429.8 187.2 433.9 186.7 438.2 186.7 C 464.8 186.7 486.4 207.8 486.4 233.9 C 486.4 260 464.8 281.1 438.2 281.1 C 437.9 281.1 437.6 281.1 437.3 281.1 C 425 296.6 405.7 306.5 384.1 306.5 C 365.4 306.5 348.4 299 336.2 287 C 322.5 295.4 306.6 300.2 289.7 300.2 C 285.7 300.2 281.8 299.9 277.9 299.4 C 277.5 320.3 258.6 337.1 235.2 337.1 C 211.6 337.1 192.5 320 192.5 298.8 C 192.5 296.4 192.7 294.1 193.2 291.9 C 185 294.3 176.1 295.6 166.7 295.6 Z" style="fill: rgb(255, 255, 255);"/>
    <path d="M 168.8 284.7 C 129.5 284.7 97.7 261.3 97.7 232.4 C 97.7 212.2 113.2 194.7 136 186 C 135.9 185 135.9 184.1 135.9 183.1 C 135.9 161.9 155 144.8 178.6 144.8 C 188.6 144.8 197.8 147.9 205.1 153 C 218.8 116.3 252.5 90.3 291.8 90.3 C 334.7 90.3 370.9 121.2 381.8 163.3 C 383.2 163.2 384.7 163.2 386.2 163.2 C 402 163.2 416.5 168.5 428 177.4 C 431.9 176.3 436 175.8 440.3 175.8 C 466.9 175.8 488.5 196.9 488.5 223 C 488.5 249.1 466.9 270.2 440.3 270.2 C 440 270.2 439.7 270.2 439.4 270.2 C 427.1 285.7 407.8 295.6 386.2 295.6 C 367.5 295.6 350.5 288.1 338.3 276.1 C 324.6 284.5 308.7 289.3 291.8 289.3 C 287.8 289.3 283.9 289 280 288.5 C 279.6 309.4 260.7 326.2 237.3 326.2 C 213.7 326.2 194.6 309.1 194.6 287.9 C 194.6 285.5 194.8 283.2 195.3 281 C 187.1 283.4 178.2 284.7 168.8 284.7 Z" style="fill: rgb(225, 250, 251);"/>
    <path d="M 167 288 C 127.7 288 95.9 264.6 95.9 235.7 C 95.9 215.5 111.4 198 134.2 189.3 C 134.1 188.3 134.1 187.4 134.1 186.4 C 134.1 165.2 153.2 148.1 176.8 148.1 C 186.8 148.1 196 151.2 203.3 156.3 C 217 119.6 250.7 93.6 290 93.6 C 332.9 93.6 369.1 124.5 380 166.6 C 381.4 166.5 382.9 166.5 384.4 166.5 C 400.2 166.5 414.7 171.8 426.2 180.7 C 430.1 179.6 434.2 179.1 438.5 179.1 C 465.1 179.1 486.7 200.2 486.7 226.3 C 486.7 252.4 465.1 273.5 438.5 273.5 C 438.2 273.5 437.9 273.5 437.6 273.5 C 425.3 289 406 298.9 384.4 298.9 C 365.7 298.9 348.7 291.4 336.5 279.4 C 322.8 287.8 306.9 292.6 290 292.6 C 286 292.6 282.1 292.3 278.2 291.8 C 277.8 312.7 258.9 329.5 235.5 329.5 C 211.9 329.5 192.8 312.4 192.8 291.2 C 192.8 288.8 193 286.5 193.5 284.3 C 185.3 286.7 176.4 288 167 288 Z" style="fill: rgb(255, 255, 255);"/>
    <path d="M 166.1 292.4 C 126.8 292.4 95 269 95 240.1 C 95 219.9 110.5 202.4 133.3 193.7 C 133.2 192.7 133.2 191.8 133.2 190.8 C 133.2 169.6 152.3 152.5 175.9 152.5 C 185.9 152.5 195.1 155.6 202.4 160.7 C 216.1 124 249.8 98 289.1 98 C 332 98 368.2 128.9 379.1 171 C 380.5 170.9 382 170.9 383.5 170.9 C 399.3 170.9 413.8 176.2 425.3 185.1 C 429.2 184 433.3 183.5 437.6 183.5 C 464.2 183.5 485.8 204.6 485.8 230.7 C 485.8 256.8 464.2 277.9 437.6 277.9 C 437.3 277.9 437 277.9 436.7 277.9 C 424.4 293.4 405.1 303.3 383.5 303.3 C 364.8 303.3 347.8 295.8 335.6 283.8 C 321.9 292.2 306 297 289.1 297 C 285.1 297 281.2 296.7 277.3 296.2 C 276.9 317.1 258 333.9 234.6 333.9 C 211 333.9 191.9 316.8 191.9 295.6 C 191.9 293.2 192.1 290.9 192.6 288.7 C 184.4 291.1 175.5 292.4 166.1 292.4 Z" style="fill: rgb(189, 252, 255);"/>
  </g>
  <g transform="matrix(3.293531, 0, 0, 3.293531, 471.91922, -780.055237)" style="">
    <path d="M 165.1 299.2 C 125.8 299.2 94 275.8 94 246.9 C 94 226.7 109.5 209.2 132.3 200.5 C 132.2 199.5 132.2 198.6 132.2 197.6 C 132.2 176.4 151.3 159.3 174.9 159.3 C 184.9 159.3 194.1 162.4 201.4 167.5 C 215.1 130.8 248.8 104.8 288.1 104.8 C 331 104.8 367.2 135.7 378.1 177.8 C 379.5 177.7 381 177.7 382.5 177.7 C 398.3 177.7 412.8 183 424.3 191.9 C 428.2 190.8 432.3 190.3 436.6 190.3 C 463.2 190.3 484.8 211.4 484.8 237.5 C 484.8 263.6 463.2 284.7 436.6 284.7 C 436.3 284.7 436 284.7 435.7 284.7 C 423.4 300.2 404.1 310.1 382.5 310.1 C 363.8 310.1 346.8 302.6 334.6 290.6 C 320.9 299 305 303.8 288.1 303.8 C 284.1 303.8 280.2 303.5 276.3 303 C 275.9 323.9 257 340.7 233.6 340.7 C 210 340.7 190.9 323.6 190.9 302.4 C 190.9 300 191.1 297.7 191.6 295.5 C 183.4 297.9 174.5 299.2 165.1 299.2 Z" style="fill: rgb(225, 250, 251);"/>
    <path d="M 166.7 295.6 C 127.4 295.6 95.6 272.2 95.6 243.3 C 95.6 223.1 111.1 205.6 133.9 196.9 C 133.8 195.9 133.8 195 133.8 194 C 133.8 172.8 152.9 155.7 176.5 155.7 C 186.5 155.7 195.7 158.8 203 163.9 C 216.7 127.2 250.4 101.2 289.7 101.2 C 332.6 101.2 368.8 132.1 379.7 174.2 C 381.1 174.1 382.6 174.1 384.1 174.1 C 399.9 174.1 414.4 179.4 425.9 188.3 C 429.8 187.2 433.9 186.7 438.2 186.7 C 464.8 186.7 486.4 207.8 486.4 233.9 C 486.4 260 464.8 281.1 438.2 281.1 C 437.9 281.1 437.6 281.1 437.3 281.1 C 425 296.6 405.7 306.5 384.1 306.5 C 365.4 306.5 348.4 299 336.2 287 C 322.5 295.4 306.6 300.2 289.7 300.2 C 285.7 300.2 281.8 299.9 277.9 299.4 C 277.5 320.3 258.6 337.1 235.2 337.1 C 211.6 337.1 192.5 320 192.5 298.8 C 192.5 296.4 192.7 294.1 193.2 291.9 C 185 294.3 176.1 295.6 166.7 295.6 Z" style="fill: rgb(255, 255, 255);"/>
    <path d="M 168.8 284.7 C 129.5 284.7 97.7 261.3 97.7 232.4 C 97.7 212.2 113.2 194.7 136 186 C 135.9 185 135.9 184.1 135.9 183.1 C 135.9 161.9 155 144.8 178.6 144.8 C 188.6 144.8 197.8 147.9 205.1 153 C 218.8 116.3 252.5 90.3 291.8 90.3 C 334.7 90.3 370.9 121.2 381.8 163.3 C 383.2 163.2 384.7 163.2 386.2 163.2 C 402 163.2 416.5 168.5 428 177.4 C 431.9 176.3 436 175.8 440.3 175.8 C 466.9 175.8 488.5 196.9 488.5 223 C 488.5 249.1 466.9 270.2 440.3 270.2 C 440 270.2 439.7 270.2 439.4 270.2 C 427.1 285.7 407.8 295.6 386.2 295.6 C 367.5 295.6 350.5 288.1 338.3 276.1 C 324.6 284.5 308.7 289.3 291.8 289.3 C 287.8 289.3 283.9 289 280 288.5 C 279.6 309.4 260.7 326.2 237.3 326.2 C 213.7 326.2 194.6 309.1 194.6 287.9 C 194.6 285.5 194.8 283.2 195.3 281 C 187.1 283.4 178.2 284.7 168.8 284.7 Z" style="fill: rgb(225, 250, 251);"/>
    <path d="M 167 288 C 127.7 288 95.9 264.6 95.9 235.7 C 95.9 215.5 111.4 198 134.2 189.3 C 134.1 188.3 134.1 187.4 134.1 186.4 C 134.1 165.2 153.2 148.1 176.8 148.1 C 186.8 148.1 196 151.2 203.3 156.3 C 217 119.6 250.7 93.6 290 93.6 C 332.9 93.6 369.1 124.5 380 166.6 C 381.4 166.5 382.9 166.5 384.4 166.5 C 400.2 166.5 414.7 171.8 426.2 180.7 C 430.1 179.6 434.2 179.1 438.5 179.1 C 465.1 179.1 486.7 200.2 486.7 226.3 C 486.7 252.4 465.1 273.5 438.5 273.5 C 438.2 273.5 437.9 273.5 437.6 273.5 C 425.3 289 406 298.9 384.4 298.9 C 365.7 298.9 348.7 291.4 336.5 279.4 C 322.8 287.8 306.9 292.6 290 292.6 C 286 292.6 282.1 292.3 278.2 291.8 C 277.8 312.7 258.9 329.5 235.5 329.5 C 211.9 329.5 192.8 312.4 192.8 291.2 C 192.8 288.8 193 286.5 193.5 284.3 C 185.3 286.7 176.4 288 167 288 Z" style="fill: rgb(255, 255, 255);"/>
    <path d="M 166.1 292.4 C 126.8 292.4 95 269 95 240.1 C 95 219.9 110.5 202.4 133.3 193.7 C 133.2 192.7 133.2 191.8 133.2 190.8 C 133.2 169.6 152.3 152.5 175.9 152.5 C 185.9 152.5 195.1 155.6 202.4 160.7 C 216.1 124 249.8 98 289.1 98 C 332 98 368.2 128.9 379.1 171 C 380.5 170.9 382 170.9 383.5 170.9 C 399.3 170.9 413.8 176.2 425.3 185.1 C 429.2 184 433.3 183.5 437.6 183.5 C 464.2 183.5 485.8 204.6 485.8 230.7 C 485.8 256.8 464.2 277.9 437.6 277.9 C 437.3 277.9 437 277.9 436.7 277.9 C 424.4 293.4 405.1 303.3 383.5 303.3 C 364.8 303.3 347.8 295.8 335.6 283.8 C 321.9 292.2 306 297 289.1 297 C 285.1 297 281.2 296.7 277.3 296.2 C 276.9 317.1 258 333.9 234.6 333.9 C 211 333.9 191.9 316.8 191.9 295.6 C 191.9 293.2 192.1 290.9 192.6 288.7 C 184.4 291.1 175.5 292.4 166.1 292.4 Z" style="fill: rgb(189, 252, 255);"/>
    <path d="M 165.1 299.2 C 125.8 299.2 94 275.8 94 246.9 C 94 226.7 109.5 209.2 132.3 200.5 C 132.2 199.5 132.2 198.6 132.2 197.6 C 132.2 176.4 151.3 159.3 174.9 159.3 C 184.9 159.3 194.1 162.4 201.4 167.5 C 215.1 130.8 248.8 104.8 288.1 104.8 C 331 104.8 367.2 135.7 378.1 177.8 C 379.5 177.7 381 177.7 382.5 177.7 C 398.3 177.7 412.8 183 424.3 191.9 C 428.2 190.8 432.3 190.3 436.6 190.3 C 463.2 190.3 484.8 211.4 484.8 237.5 C 484.8 263.6 463.2 284.7 436.6 284.7 C 436.3 284.7 436 284.7 435.7 284.7 C 423.4 300.2 404.1 310.1 382.5 310.1 C 363.8 310.1 346.8 302.6 334.6 290.6 C 320.9 299 305 303.8 288.1 303.8 C 284.1 303.8 280.2 303.5 276.3 303 C 275.9 323.9 257 340.7 233.6 340.7 C 210 340.7 190.9 323.6 190.9 302.4 C 190.9 300 191.1 297.7 191.6 295.5 C 183.4 297.9 174.5 299.2 165.1 299.2 Z" style="fill: rgb(225, 250, 251);"/>
    <path d="M 166.7 295.6 C 127.4 295.6 95.6 272.2 95.6 243.3 C 95.6 223.1 111.1 205.6 133.9 196.9 C 133.8 195.9 133.8 195 133.8 194 C 133.8 172.8 152.9 155.7 176.5 155.7 C 186.5 155.7 195.7 158.8 203 163.9 C 216.7 127.2 250.4 101.2 289.7 101.2 C 332.6 101.2 368.8 132.1 379.7 174.2 C 381.1 174.1 382.6 174.1 384.1 174.1 C 399.9 174.1 414.4 179.4 425.9 188.3 C 429.8 187.2 433.9 186.7 438.2 186.7 C 464.8 186.7 486.4 207.8 486.4 233.9 C 486.4 260 464.8 281.1 438.2 281.1 C 437.9 281.1 437.6 281.1 437.3 281.1 C 425 296.6 405.7 306.5 384.1 306.5 C 365.4 306.5 348.4 299 336.2 287 C 322.5 295.4 306.6 300.2 289.7 300.2 C 285.7 300.2 281.8 299.9 277.9 299.4 C 277.5 320.3 258.6 337.1 235.2 337.1 C 211.6 337.1 192.5 320 192.5 298.8 C 192.5 296.4 192.7 294.1 193.2 291.9 C 185 294.3 176.1 295.6 166.7 295.6 Z" style="fill: rgb(255, 255, 255);"/>
    <path d="M 168.8 284.7 C 129.5 284.7 97.7 261.3 97.7 232.4 C 97.7 212.2 113.2 194.7 136 186 C 135.9 185 135.9 184.1 135.9 183.1 C 135.9 161.9 155 144.8 178.6 144.8 C 188.6 144.8 197.8 147.9 205.1 153 C 218.8 116.3 252.5 90.3 291.8 90.3 C 334.7 90.3 370.9 121.2 381.8 163.3 C 383.2 163.2 384.7 163.2 386.2 163.2 C 402 163.2 416.5 168.5 428 177.4 C 431.9 176.3 436 175.8 440.3 175.8 C 466.9 175.8 488.5 196.9 488.5 223 C 488.5 249.1 466.9 270.2 440.3 270.2 C 440 270.2 439.7 270.2 439.4 270.2 C 427.1 285.7 407.8 295.6 386.2 295.6 C 367.5 295.6 350.5 288.1 338.3 276.1 C 324.6 284.5 308.7 289.3 291.8 289.3 C 287.8 289.3 283.9 289 280 288.5 C 279.6 309.4 260.7 326.2 237.3 326.2 C 213.7 326.2 194.6 309.1 194.6 287.9 C 194.6 285.5 194.8 283.2 195.3 281 C 187.1 283.4 178.2 284.7 168.8 284.7 Z" style="fill: rgb(225, 250, 251);"/>
    <path d="M 167 288 C 127.7 288 95.9 264.6 95.9 235.7 C 95.9 215.5 111.4 198 134.2 189.3 C 134.1 188.3 134.1 187.4 134.1 186.4 C 134.1 165.2 153.2 148.1 176.8 148.1 C 186.8 148.1 196 151.2 203.3 156.3 C 217 119.6 250.7 93.6 290 93.6 C 332.9 93.6 369.1 124.5 380 166.6 C 381.4 166.5 382.9 166.5 384.4 166.5 C 400.2 166.5 414.7 171.8 426.2 180.7 C 430.1 179.6 434.2 179.1 438.5 179.1 C 465.1 179.1 486.7 200.2 486.7 226.3 C 486.7 252.4 465.1 273.5 438.5 273.5 C 438.2 273.5 437.9 273.5 437.6 273.5 C 425.3 289 406 298.9 384.4 298.9 C 365.7 298.9 348.7 291.4 336.5 279.4 C 322.8 287.8 306.9 292.6 290 292.6 C 286 292.6 282.1 292.3 278.2 291.8 C 277.8 312.7 258.9 329.5 235.5 329.5 C 211.9 329.5 192.8 312.4 192.8 291.2 C 192.8 288.8 193 286.5 193.5 284.3 C 185.3 286.7 176.4 288 167 288 Z" style="fill: rgb(255, 255, 255);"/>
    <path d="M 166.1 292.4 C 126.8 292.4 95 269 95 240.1 C 95 219.9 110.5 202.4 133.3 193.7 C 133.2 192.7 133.2 191.8 133.2 190.8 C 133.2 169.6 152.3 152.5 175.9 152.5 C 185.9 152.5 195.1 155.6 202.4 160.7 C 216.1 124 249.8 98 289.1 98 C 332 98 368.2 128.9 379.1 171 C 380.5 170.9 382 170.9 383.5 170.9 C 399.3 170.9 413.8 176.2 425.3 185.1 C 429.2 184 433.3 183.5 437.6 183.5 C 464.2 183.5 485.8 204.6 485.8 230.7 C 485.8 256.8 464.2 277.9 437.6 277.9 C 437.3 277.9 437 277.9 436.7 277.9 C 424.4 293.4 405.1 303.3 383.5 303.3 C 364.8 303.3 347.8 295.8 335.6 283.8 C 321.9 292.2 306 297 289.1 297 C 285.1 297 281.2 296.7 277.3 296.2 C 276.9 317.1 258 333.9 234.6 333.9 C 211 333.9 191.9 316.8 191.9 295.6 C 191.9 293.2 192.1 290.9 192.6 288.7 C 184.4 291.1 175.5 292.4 166.1 292.4 Z" style="fill: rgb(189, 252, 255);"/>
  </g>
  <path d="M -826 409.2 C -826 409.2 -510 175.4 -246.3 173.5 C 228.3 169.8 797.5 520.6 1347.5 564.2 C 1602.6 584.4 1908.1 363 2156.9 409.2 C 2485.9 470.2 2641.7 404.7 2641.7 404.7 L 2634.2 1374.9 L -825.8 1374.9 L -826 409.2 Z" style="fill: rgb(19, 132, 43);"/>
  <path d="M -945 601.1 C -945 601.1 -576.1 246.5 -315.3 365.4 C 2092.5 1463.6 826.1 569.8 1423.3 620.5 C 2092.3 677.1 1667 -14.6 2296.9 601.1 C 2556.3 854.7 2823.8 596.6 2823.8 596.6 L 2815.6 1566.8 L -944.5 1566.8 L -945 601.1 Z" style="fill: rgb(40, 156, 65);"/>
  <path d="M -1533 1036.5 C -1533 1036.5 -1105.6 830 -803.3 899.4 C 1987.1 1539.4 519.5 1018.3 1211.6 1047.9 C 1986.9 1081 1494 677.8 2224.1 1036.5 C 2524.7 1184.5 2834.7 1034 2834.7 1034 L 2825.3 1599.5 L -1532.6 1599.5 L -1533 1036.5 Z" style="fill: rgb(161, 223, 174); fill-opacity: 0.35;"/>
  <path d="M 2498.7 708.7 L 2547 705.9 C 2529.2 834.9 1815.6 1103.7 1550.2 1328.5 C 1341.8 1505.4 2800 1560.6 2800 1560.6 L 379.9 1584.7 C 379.9 1584.7 601.5 1193.3 750.3 1251.2 C 834.9 1284.1 1369.7 1107.4 1747.7 1009.3 C 2118.1 913.3 2508.8 766.5 2508.8 766.5 L 2498.7 708.7 Z" style="fill: rgb(154, 93, 2); fill-opacity: 0.77;"/>
  <path d="M 2508.2 710 L 2556.5 707.2 C 2538.7 836.2 1825 1105 1559.7 1329.8 C 1351.2 1506.7 2809.4 1561.9 2809.4 1561.9 L 389.4 1585.9 L 2518.3 767.7 L 2508.2 710 Z" style="fill: rgb(42, 81, 254);"/>
</svg>