<?xml version="1.0" encoding="utf-8"?>
<svg viewBox="-166.5 -109.2 1227.7 884.3" xmlns="http://www.w3.org/2000/svg">
  <rect x="-169.2" y="-111.8" width="1233.8" height="577.8" style="fill: rgb(0, 162, 255);"/>
  <circle style="fill: rgb(255, 204, 0);" cx="1026.3" cy="-120.1" r="165.9" transform="matrix(0.999597, -0.028375, 0.028375, 0.999597, 12.024225, 372.705231)"/>
  <path d="M -168.4 326 C -168.4 326 -56.1 217.1 37.6 216.2 C 206.3 214.5 408.5 377.9 604 398.2 C 694.6 407.6 803.2 304.5 891.6 326 C 1008.5 354.4 1063.9 323.9 1063.9 323.9 L 1061.2 775.8 L -168.3 775.8 L -168.4 326 Z" style="fill: rgb(9, 170, 44);"/>
  <g transform="matrix(1.826629, 0, 0, -1.826629, -615.406433, 370.43222)" style="">
    <path d="M 165.1 299.2 C 125.8 299.2 94 275.8 94 246.9 C 94 226.7 109.5 209.2 132.3 200.5 C 132.2 199.5 132.2 198.6 132.2 197.6 C 132.2 176.4 151.3 159.3 174.9 159.3 C 184.9 159.3 194.1 162.4 201.4 167.5 C 215.1 130.8 248.8 104.8 288.1 104.8 C 331 104.8 367.2 135.7 378.1 177.8 C 379.5 177.7 381 177.7 382.5 177.7 C 398.3 177.7 412.8 183 424.3 191.9 C 428.2 190.8 432.3 190.3 436.6 190.3 C 463.2 190.3 484.8 211.4 484.8 237.5 C 484.8 263.6 463.2 284.7 436.6 284.7 C 436.3 284.7 436 284.7 435.7 284.7 C 423.4 300.2 404.1 310.1 382.5 310.1 C 363.8 310.1 346.8 302.6 334.6 290.6 C 320.9 299 305 303.8 288.1 303.8 C 284.1 303.8 280.2 303.5 276.3 303 C 275.9 323.9 257 340.7 233.6 340.7 C 210 340.7 190.9 323.6 190.9 302.4 C 190.9 300 191.1 297.7 191.6 295.5 C 183.4 297.9 174.5 299.2 165.1 299.2 Z" style="fill: rgb(225, 250, 251);"/>
    <path d="M 166.7 295.6 C 127.4 295.6 95.6 272.2 95.6 243.3 C 95.6 223.1 111.1 205.6 133.9 196.9 C 133.8 195.9 133.8 195 133.8 194 C 133.8 172.8 152.9 155.7 176.5 155.7 C 186.5 155.7 195.7 158.8 203 163.9 C 216.7 127.2 250.4 101.2 289.7 101.2 C 332.6 101.2 368.8 132.1 379.7 174.2 C 381.1 174.1 382.6 174.1 384.1 174.1 C 399.9 174.1 414.4 179.4 425.9 188.3 C 429.8 187.2 433.9 186.7 438.2 186.7 C 464.8 186.7 486.4 207.8 486.4 233.9 C 486.4 260 464.8 281.1 438.2 281.1 C 437.9 281.1 437.6 281.1 437.3 281.1 C 425 296.6 405.7 306.5 384.1 306.5 C 365.4 306.5 348.4 299 336.2 287 C 322.5 295.4 306.6 300.2 289.7 300.2 C 285.7 300.2 281.8 299.9 277.9 299.4 C 277.5 320.3 258.6 337.1 235.2 337.1 C 211.6 337.1 192.5 320 192.5 298.8 C 192.5 296.4 192.7 294.1 193.2 291.9 C 185 294.3 176.1 295.6 166.7 295.6 Z" style="fill: rgb(255, 255, 255);"/>
    <path d="M 168.8 284.7 C 129.5 284.7 97.7 261.3 97.7 232.4 C 97.7 212.2 113.2 194.7 136 186 C 135.9 185 135.9 184.1 135.9 183.1 C 135.9 161.9 155 144.8 178.6 144.8 C 188.6 144.8 197.8 147.9 205.1 153 C 218.8 116.3 252.5 90.3 291.8 90.3 C 334.7 90.3 370.9 121.2 381.8 163.3 C 383.2 163.2 384.7 163.2 386.2 163.2 C 402 163.2 416.5 168.5 428 177.4 C 431.9 176.3 436 175.8 440.3 175.8 C 466.9 175.8 488.5 196.9 488.5 223 C 488.5 249.1 466.9 270.2 440.3 270.2 C 440 270.2 439.7 270.2 439.4 270.2 C 427.1 285.7 407.8 295.6 386.2 295.6 C 367.5 295.6 350.5 288.1 338.3 276.1 C 324.6 284.5 308.7 289.3 291.8 289.3 C 287.8 289.3 283.9 289 280 288.5 C 279.6 309.4 260.7 326.2 237.3 326.2 C 213.7 326.2 194.6 309.1 194.6 287.9 C 194.6 285.5 194.8 283.2 195.3 281 C 187.1 283.4 178.2 284.7 168.8 284.7 Z" style="fill: rgb(225, 250, 251);"/>
    <path d="M 167 288 C 127.7 288 95.9 264.6 95.9 235.7 C 95.9 215.5 111.4 198 134.2 189.3 C 134.1 188.3 134.1 187.4 134.1 186.4 C 134.1 165.2 153.2 148.1 176.8 148.1 C 186.8 148.1 196 151.2 203.3 156.3 C 217 119.6 250.7 93.6 290 93.6 C 332.9 93.6 369.1 124.5 380 166.6 C 381.4 166.5 382.9 166.5 384.4 166.5 C 400.2 166.5 414.7 171.8 426.2 180.7 C 430.1 179.6 434.2 179.1 438.5 179.1 C 465.1 179.1 486.7 200.2 486.7 226.3 C 486.7 252.4 465.1 273.5 438.5 273.5 C 438.2 273.5 437.9 273.5 437.6 273.5 C 425.3 289 406 298.9 384.4 298.9 C 365.7 298.9 348.7 291.4 336.5 279.4 C 322.8 287.8 306.9 292.6 290 292.6 C 286 292.6 282.1 292.3 278.2 291.8 C 277.8 312.7 258.9 329.5 235.5 329.5 C 211.9 329.5 192.8 312.4 192.8 291.2 C 192.8 288.8 193 286.5 193.5 284.3 C 185.3 286.7 176.4 288 167 288 Z" style="fill: rgb(255, 255, 255);"/>
    <path d="M 166.1 292.4 C 126.8 292.4 95 269 95 240.1 C 95 219.9 110.5 202.4 133.3 193.7 C 133.2 192.7 133.2 191.8 133.2 190.8 C 133.2 169.6 152.3 152.5 175.9 152.5 C 185.9 152.5 195.1 155.6 202.4 160.7 C 216.1 124 249.8 98 289.1 98 C 332 98 368.2 128.9 379.1 171 C 380.5 170.9 382 170.9 383.5 170.9 C 399.3 170.9 413.8 176.2 425.3 185.1 C 429.2 184 433.3 183.5 437.6 183.5 C 464.2 183.5 485.8 204.6 485.8 230.7 C 485.8 256.8 464.2 277.9 437.6 277.9 C 437.3 277.9 437 277.9 436.7 277.9 C 424.4 293.4 405.1 303.3 383.5 303.3 C 364.8 303.3 347.8 295.8 335.6 283.8 C 321.9 292.2 306 297 289.1 297 C 285.1 297 281.2 296.7 277.3 296.2 C 276.9 317.1 258 333.9 234.6 333.9 C 211 333.9 191.9 316.8 191.9 295.6 C 191.9 293.2 192.1 290.9 192.6 288.7 C 184.4 291.1 175.5 292.4 166.1 292.4 Z" style="fill: rgb(189, 252, 255);"/>
    <path d="M 165.1 299.2 C 125.8 299.2 94 275.8 94 246.9 C 94 226.7 109.5 209.2 132.3 200.5 C 132.2 199.5 132.2 198.6 132.2 197.6 C 132.2 176.4 151.3 159.3 174.9 159.3 C 184.9 159.3 194.1 162.4 201.4 167.5 C 215.1 130.8 248.8 104.8 288.1 104.8 C 331 104.8 367.2 135.7 378.1 177.8 C 379.5 177.7 381 177.7 382.5 177.7 C 398.3 177.7 412.8 183 424.3 191.9 C 428.2 190.8 432.3 190.3 436.6 190.3 C 463.2 190.3 484.8 211.4 484.8 237.5 C 484.8 263.6 463.2 284.7 436.6 284.7 C 436.3 284.7 436 284.7 435.7 284.7 C 423.4 300.2 404.1 310.1 382.5 310.1 C 363.8 310.1 346.8 302.6 334.6 290.6 C 320.9 299 305 303.8 288.1 303.8 C 284.1 303.8 280.2 303.5 276.3 303 C 275.9 323.9 257 340.7 233.6 340.7 C 210 340.7 190.9 323.6 190.9 302.4 C 190.9 300 191.1 297.7 191.6 295.5 C 183.4 297.9 174.5 299.2 165.1 299.2 Z" style="fill: rgb(225, 250, 251);"/>
    <path d="M 166.7 295.6 C 127.4 295.6 95.6 272.2 95.6 243.3 C 95.6 223.1 111.1 205.6 133.9 196.9 C 133.8 195.9 133.8 195 133.8 194 C 133.8 172.8 152.9 155.7 176.5 155.7 C 186.5 155.7 195.7 158.8 203 163.9 C 216.7 127.2 250.4 101.2 289.7 101.2 C 332.6 101.2 368.8 132.1 379.7 174.2 C 381.1 174.1 382.6 174.1 384.1 174.1 C 399.9 174.1 414.4 179.4 425.9 188.3 C 429.8 187.2 433.9 186.7 438.2 186.7 C 464.8 186.7 486.4 207.8 486.4 233.9 C 486.4 260 464.8 281.1 438.2 281.1 C 437.9 281.1 437.6 281.1 437.3 281.1 C 425 296.6 405.7 306.5 384.1 306.5 C 365.4 306.5 348.4 299 336.2 287 C 322.5 295.4 306.6 300.2 289.7 300.2 C 285.7 300.2 281.8 299.9 277.9 299.4 C 277.5 320.3 258.6 337.1 235.2 337.1 C 211.6 337.1 192.5 320 192.5 298.8 C 192.5 296.4 192.7 294.1 193.2 291.9 C 185 294.3 176.1 295.6 166.7 295.6 Z" style="fill: rgb(255, 255, 255);"/>
    <path d="M 168.8 284.7 C 129.5 284.7 97.7 261.3 97.7 232.4 C 97.7 212.2 113.2 194.7 136 186 C 135.9 185 135.9 184.1 135.9 183.1 C 135.9 161.9 155 144.8 178.6 144.8 C 188.6 144.8 197.8 147.9 205.1 153 C 218.8 116.3 252.5 90.3 291.8 90.3 C 334.7 90.3 370.9 121.2 381.8 163.3 C 383.2 163.2 384.7 163.2 386.2 163.2 C 402 163.2 416.5 168.5 428 177.4 C 431.9 176.3 436 175.8 440.3 175.8 C 466.9 175.8 488.5 196.9 488.5 223 C 488.5 249.1 466.9 270.2 440.3 270.2 C 440 270.2 439.7 270.2 439.4 270.2 C 427.1 285.7 407.8 295.6 386.2 295.6 C 367.5 295.6 350.5 288.1 338.3 276.1 C 324.6 284.5 308.7 289.3 291.8 289.3 C 287.8 289.3 283.9 289 280 288.5 C 279.6 309.4 260.7 326.2 237.3 326.2 C 213.7 326.2 194.6 309.1 194.6 287.9 C 194.6 285.5 194.8 283.2 195.3 281 C 187.1 283.4 178.2 284.7 168.8 284.7 Z" style="fill: rgb(225, 250, 251);"/>
    <path d="M 167 288 C 127.7 288 95.9 264.6 95.9 235.7 C 95.9 215.5 111.4 198 134.2 189.3 C 134.1 188.3 134.1 187.4 134.1 186.4 C 134.1 165.2 153.2 148.1 176.8 148.1 C 186.8 148.1 196 151.2 203.3 156.3 C 217 119.6 250.7 93.6 290 93.6 C 332.9 93.6 369.1 124.5 380 166.6 C 381.4 166.5 382.9 166.5 384.4 166.5 C 400.2 166.5 414.7 171.8 426.2 180.7 C 430.1 179.6 434.2 179.1 438.5 179.1 C 465.1 179.1 486.7 200.2 486.7 226.3 C 486.7 252.4 465.1 273.5 438.5 273.5 C 438.2 273.5 437.9 273.5 437.6 273.5 C 425.3 289 406 298.9 384.4 298.9 C 365.7 298.9 348.7 291.4 336.5 279.4 C 322.8 287.8 306.9 292.6 290 292.6 C 286 292.6 282.1 292.3 278.2 291.8 C 277.8 312.7 258.9 329.5 235.5 329.5 C 211.9 329.5 192.8 312.4 192.8 291.2 C 192.8 288.8 193 286.5 193.5 284.3 C 185.3 286.7 176.4 288 167 288 Z" style="fill: rgb(255, 255, 255);"/>
    <path d="M 166.1 292.4 C 126.8 292.4 95 269 95 240.1 C 95 219.9 110.5 202.4 133.3 193.7 C 133.2 192.7 133.2 191.8 133.2 190.8 C 133.2 169.6 152.3 152.5 175.9 152.5 C 185.9 152.5 195.1 155.6 202.4 160.7 C 216.1 124 249.8 98 289.1 98 C 332 98 368.2 128.9 379.1 171 C 380.5 170.9 382 170.9 383.5 170.9 C 399.3 170.9 413.8 176.2 425.3 185.1 C 429.2 184 433.3 183.5 437.6 183.5 C 464.2 183.5 485.8 204.6 485.8 230.7 C 485.8 256.8 464.2 277.9 437.6 277.9 C 437.3 277.9 437 277.9 436.7 277.9 C 424.4 293.4 405.1 303.3 383.5 303.3 C 364.8 303.3 347.8 295.8 335.6 283.8 C 321.9 292.2 306 297 289.1 297 C 285.1 297 281.2 296.7 277.3 296.2 C 276.9 317.1 258 333.9 234.6 333.9 C 211 333.9 191.9 316.8 191.9 295.6 C 191.9 293.2 192.1 290.9 192.6 288.7 C 184.4 291.1 175.5 292.4 166.1 292.4 Z" style="fill: rgb(189, 252, 255);"/>
  </g>
  <g transform="matrix(0.592062, 0, 0, -0.592062, 742.231079, 117.768303)" style="">
    <path d="M 165.1 299.2 C 125.8 299.2 94 275.8 94 246.9 C 94 226.7 109.5 209.2 132.3 200.5 C 132.2 199.5 132.2 198.6 132.2 197.6 C 132.2 176.4 151.3 159.3 174.9 159.3 C 184.9 159.3 194.1 162.4 201.4 167.5 C 215.1 130.8 248.8 104.8 288.1 104.8 C 331 104.8 367.2 135.7 378.1 177.8 C 379.5 177.7 381 177.7 382.5 177.7 C 398.3 177.7 412.8 183 424.3 191.9 C 428.2 190.8 432.3 190.3 436.6 190.3 C 463.2 190.3 484.8 211.4 484.8 237.5 C 484.8 263.6 463.2 284.7 436.6 284.7 C 436.3 284.7 436 284.7 435.7 284.7 C 423.4 300.2 404.1 310.1 382.5 310.1 C 363.8 310.1 346.8 302.6 334.6 290.6 C 320.9 299 305 303.8 288.1 303.8 C 284.1 303.8 280.2 303.5 276.3 303 C 275.9 323.9 257 340.7 233.6 340.7 C 210 340.7 190.9 323.6 190.9 302.4 C 190.9 300 191.1 297.7 191.6 295.5 C 183.4 297.9 174.5 299.2 165.1 299.2 Z" style="fill: rgb(225, 250, 251);"/>
    <path d="M 166.7 295.6 C 127.4 295.6 95.6 272.2 95.6 243.3 C 95.6 223.1 111.1 205.6 133.9 196.9 C 133.8 195.9 133.8 195 133.8 194 C 133.8 172.8 152.9 155.7 176.5 155.7 C 186.5 155.7 195.7 158.8 203 163.9 C 216.7 127.2 250.4 101.2 289.7 101.2 C 332.6 101.2 368.8 132.1 379.7 174.2 C 381.1 174.1 382.6 174.1 384.1 174.1 C 399.9 174.1 414.4 179.4 425.9 188.3 C 429.8 187.2 433.9 186.7 438.2 186.7 C 464.8 186.7 486.4 207.8 486.4 233.9 C 486.4 260 464.8 281.1 438.2 281.1 C 437.9 281.1 437.6 281.1 437.3 281.1 C 425 296.6 405.7 306.5 384.1 306.5 C 365.4 306.5 348.4 299 336.2 287 C 322.5 295.4 306.6 300.2 289.7 300.2 C 285.7 300.2 281.8 299.9 277.9 299.4 C 277.5 320.3 258.6 337.1 235.2 337.1 C 211.6 337.1 192.5 320 192.5 298.8 C 192.5 296.4 192.7 294.1 193.2 291.9 C 185 294.3 176.1 295.6 166.7 295.6 Z" style="fill: rgb(255, 255, 255);"/>
    <path d="M 168.8 284.7 C 129.5 284.7 97.7 261.3 97.7 232.4 C 97.7 212.2 113.2 194.7 136 186 C 135.9 185 135.9 184.1 135.9 183.1 C 135.9 161.9 155 144.8 178.6 144.8 C 188.6 144.8 197.8 147.9 205.1 153 C 218.8 116.3 252.5 90.3 291.8 90.3 C 334.7 90.3 370.9 121.2 381.8 163.3 C 383.2 163.2 384.7 163.2 386.2 163.2 C 402 163.2 416.5 168.5 428 177.4 C 431.9 176.3 436 175.8 440.3 175.8 C 466.9 175.8 488.5 196.9 488.5 223 C 488.5 249.1 466.9 270.2 440.3 270.2 C 440 270.2 439.7 270.2 439.4 270.2 C 427.1 285.7 407.8 295.6 386.2 295.6 C 367.5 295.6 350.5 288.1 338.3 276.1 C 324.6 284.5 308.7 289.3 291.8 289.3 C 287.8 289.3 283.9 289 280 288.5 C 279.6 309.4 260.7 326.2 237.3 326.2 C 213.7 326.2 194.6 309.1 194.6 287.9 C 194.6 285.5 194.8 283.2 195.3 281 C 187.1 283.4 178.2 284.7 168.8 284.7 Z" style="fill: rgb(225, 250, 251);"/>
    <path d="M 167 288 C 127.7 288 95.9 264.6 95.9 235.7 C 95.9 215.5 111.4 198 134.2 189.3 C 134.1 188.3 134.1 187.4 134.1 186.4 C 134.1 165.2 153.2 148.1 176.8 148.1 C 186.8 148.1 196 151.2 203.3 156.3 C 217 119.6 250.7 93.6 290 93.6 C 332.9 93.6 369.1 124.5 380 166.6 C 381.4 166.5 382.9 166.5 384.4 166.5 C 400.2 166.5 414.7 171.8 426.2 180.7 C 430.1 179.6 434.2 179.1 438.5 179.1 C 465.1 179.1 486.7 200.2 486.7 226.3 C 486.7 252.4 465.1 273.5 438.5 273.5 C 438.2 273.5 437.9 273.5 437.6 273.5 C 425.3 289 406 298.9 384.4 298.9 C 365.7 298.9 348.7 291.4 336.5 279.4 C 322.8 287.8 306.9 292.6 290 292.6 C 286 292.6 282.1 292.3 278.2 291.8 C 277.8 312.7 258.9 329.5 235.5 329.5 C 211.9 329.5 192.8 312.4 192.8 291.2 C 192.8 288.8 193 286.5 193.5 284.3 C 185.3 286.7 176.4 288 167 288 Z" style="fill: rgb(255, 255, 255);"/>
    <path d="M 166.1 292.4 C 126.8 292.4 95 269 95 240.1 C 95 219.9 110.5 202.4 133.3 193.7 C 133.2 192.7 133.2 191.8 133.2 190.8 C 133.2 169.6 152.3 152.5 175.9 152.5 C 185.9 152.5 195.1 155.6 202.4 160.7 C 216.1 124 249.8 98 289.1 98 C 332 98 368.2 128.9 379.1 171 C 380.5 170.9 382 170.9 383.5 170.9 C 399.3 170.9 413.8 176.2 425.3 185.1 C 429.2 184 433.3 183.5 437.6 183.5 C 464.2 183.5 485.8 204.6 485.8 230.7 C 485.8 256.8 464.2 277.9 437.6 277.9 C 437.3 277.9 437 277.9 436.7 277.9 C 424.4 293.4 405.1 303.3 383.5 303.3 C 364.8 303.3 347.8 295.8 335.6 283.8 C 321.9 292.2 306 297 289.1 297 C 285.1 297 281.2 296.7 277.3 296.2 C 276.9 317.1 258 333.9 234.6 333.9 C 211 333.9 191.9 316.8 191.9 295.6 C 191.9 293.2 192.1 290.9 192.6 288.7 C 184.4 291.1 175.5 292.4 166.1 292.4 Z" style="fill: rgb(189, 252, 255);"/>
    <path d="M 165.1 299.2 C 125.8 299.2 94 275.8 94 246.9 C 94 226.7 109.5 209.2 132.3 200.5 C 132.2 199.5 132.2 198.6 132.2 197.6 C 132.2 176.4 151.3 159.3 174.9 159.3 C 184.9 159.3 194.1 162.4 201.4 167.5 C 215.1 130.8 248.8 104.8 288.1 104.8 C 331 104.8 367.2 135.7 378.1 177.8 C 379.5 177.7 381 177.7 382.5 177.7 C 398.3 177.7 412.8 183 424.3 191.9 C 428.2 190.8 432.3 190.3 436.6 190.3 C 463.2 190.3 484.8 211.4 484.8 237.5 C 484.8 263.6 463.2 284.7 436.6 284.7 C 436.3 284.7 436 284.7 435.7 284.7 C 423.4 300.2 404.1 310.1 382.5 310.1 C 363.8 310.1 346.8 302.6 334.6 290.6 C 320.9 299 305 303.8 288.1 303.8 C 284.1 303.8 280.2 303.5 276.3 303 C 275.9 323.9 257 340.7 233.6 340.7 C 210 340.7 190.9 323.6 190.9 302.4 C 190.9 300 191.1 297.7 191.6 295.5 C 183.4 297.9 174.5 299.2 165.1 299.2 Z" style="fill: rgb(225, 250, 251);"/>
    <path d="M 166.7 295.6 C 127.4 295.6 95.6 272.2 95.6 243.3 C 95.6 223.1 111.1 205.6 133.9 196.9 C 133.8 195.9 133.8 195 133.8 194 C 133.8 172.8 152.9 155.7 176.5 155.7 C 186.5 155.7 195.7 158.8 203 163.9 C 216.7 127.2 250.4 101.2 289.7 101.2 C 332.6 101.2 368.8 132.1 379.7 174.2 C 381.1 174.1 382.6 174.1 384.1 174.1 C 399.9 174.1 414.4 179.4 425.9 188.3 C 429.8 187.2 433.9 186.7 438.2 186.7 C 464.8 186.7 486.4 207.8 486.4 233.9 C 486.4 260 464.8 281.1 438.2 281.1 C 437.9 281.1 437.6 281.1 437.3 281.1 C 425 296.6 405.7 306.5 384.1 306.5 C 365.4 306.5 348.4 299 336.2 287 C 322.5 295.4 306.6 300.2 289.7 300.2 C 285.7 300.2 281.8 299.9 277.9 299.4 C 277.5 320.3 258.6 337.1 235.2 337.1 C 211.6 337.1 192.5 320 192.5 298.8 C 192.5 296.4 192.7 294.1 193.2 291.9 C 185 294.3 176.1 295.6 166.7 295.6 Z" style="fill: rgb(255, 255, 255);"/>
    <path d="M 168.8 284.7 C 129.5 284.7 97.7 261.3 97.7 232.4 C 97.7 212.2 113.2 194.7 136 186 C 135.9 185 135.9 184.1 135.9 183.1 C 135.9 161.9 155 144.8 178.6 144.8 C 188.6 144.8 197.8 147.9 205.1 153 C 218.8 116.3 252.5 90.3 291.8 90.3 C 334.7 90.3 370.9 121.2 381.8 163.3 C 383.2 163.2 384.7 163.2 386.2 163.2 C 402 163.2 416.5 168.5 428 177.4 C 431.9 176.3 436 175.8 440.3 175.8 C 466.9 175.8 488.5 196.9 488.5 223 C 488.5 249.1 466.9 270.2 440.3 270.2 C 440 270.2 439.7 270.2 439.4 270.2 C 427.1 285.7 407.8 295.6 386.2 295.6 C 367.5 295.6 350.5 288.1 338.3 276.1 C 324.6 284.5 308.7 289.3 291.8 289.3 C 287.8 289.3 283.9 289 280 288.5 C 279.6 309.4 260.7 326.2 237.3 326.2 C 213.7 326.2 194.6 309.1 194.6 287.9 C 194.6 285.5 194.8 283.2 195.3 281 C 187.1 283.4 178.2 284.7 168.8 284.7 Z" style="fill: rgb(225, 250, 251);"/>
    <path d="M 167 288 C 127.7 288 95.9 264.6 95.9 235.7 C 95.9 215.5 111.4 198 134.2 189.3 C 134.1 188.3 134.1 187.4 134.1 186.4 C 134.1 165.2 153.2 148.1 176.8 148.1 C 186.8 148.1 196 151.2 203.3 156.3 C 217 119.6 250.7 93.6 290 93.6 C 332.9 93.6 369.1 124.5 380 166.6 C 381.4 166.5 382.9 166.5 384.4 166.5 C 400.2 166.5 414.7 171.8 426.2 180.7 C 430.1 179.6 434.2 179.1 438.5 179.1 C 465.1 179.1 486.7 200.2 486.7 226.3 C 486.7 252.4 465.1 273.5 438.5 273.5 C 438.2 273.5 437.9 273.5 437.6 273.5 C 425.3 289 406 298.9 384.4 298.9 C 365.7 298.9 348.7 291.4 336.5 279.4 C 322.8 287.8 306.9 292.6 290 292.6 C 286 292.6 282.1 292.3 278.2 291.8 C 277.8 312.7 258.9 329.5 235.5 329.5 C 211.9 329.5 192.8 312.4 192.8 291.2 C 192.8 288.8 193 286.5 193.5 284.3 C 185.3 286.7 176.4 288 167 288 Z" style="fill: rgb(255, 255, 255);"/>
    <path d="M 166.1 292.4 C 126.8 292.4 95 269 95 240.1 C 95 219.9 110.5 202.4 133.3 193.7 C 133.2 192.7 133.2 191.8 133.2 190.8 C 133.2 169.6 152.3 152.5 175.9 152.5 C 185.9 152.5 195.1 155.6 202.4 160.7 C 216.1 124 249.8 98 289.1 98 C 332 98 368.2 128.9 379.1 171 C 380.5 170.9 382 170.9 383.5 170.9 C 399.3 170.9 413.8 176.2 425.3 185.1 C 429.2 184 433.3 183.5 437.6 183.5 C 464.2 183.5 485.8 204.6 485.8 230.7 C 485.8 256.8 464.2 277.9 437.6 277.9 C 437.3 277.9 437 277.9 436.7 277.9 C 424.4 293.4 405.1 303.3 383.5 303.3 C 364.8 303.3 347.8 295.8 335.6 283.8 C 321.9 292.2 306 297 289.1 297 C 285.1 297 281.2 296.7 277.3 296.2 C 276.9 317.1 258 333.9 234.6 333.9 C 211 333.9 191.9 316.8 191.9 295.6 C 191.9 293.2 192.1 290.9 192.6 288.7 C 184.4 291.1 175.5 292.4 166.1 292.4 Z" style="fill: rgb(189, 252, 255);"/>
  </g>
  <g transform="matrix(1.534054, 0, 0, 1.534054, 239.843719, -220.931519)" style="">
    <path d="M 165.1 299.2 C 125.8 299.2 94 275.8 94 246.9 C 94 226.7 109.5 209.2 132.3 200.5 C 132.2 199.5 132.2 198.6 132.2 197.6 C 132.2 176.4 151.3 159.3 174.9 159.3 C 184.9 159.3 194.1 162.4 201.4 167.5 C 215.1 130.8 248.8 104.8 288.1 104.8 C 331 104.8 367.2 135.7 378.1 177.8 C 379.5 177.7 381 177.7 382.5 177.7 C 398.3 177.7 412.8 183 424.3 191.9 C 428.2 190.8 432.3 190.3 436.6 190.3 C 463.2 190.3 484.8 211.4 484.8 237.5 C 484.8 263.6 463.2 284.7 436.6 284.7 C 436.3 284.7 436 284.7 435.7 284.7 C 423.4 300.2 404.1 310.1 382.5 310.1 C 363.8 310.1 346.8 302.6 334.6 290.6 C 320.9 299 305 303.8 288.1 303.8 C 284.1 303.8 280.2 303.5 276.3 303 C 275.9 323.9 257 340.7 233.6 340.7 C 210 340.7 190.9 323.6 190.9 302.4 C 190.9 300 191.1 297.7 191.6 295.5 C 183.4 297.9 174.5 299.2 165.1 299.2 Z" style="fill: rgb(225, 250, 251);"/>
    <path d="M 166.7 295.6 C 127.4 295.6 95.6 272.2 95.6 243.3 C 95.6 223.1 111.1 205.6 133.9 196.9 C 133.8 195.9 133.8 195 133.8 194 C 133.8 172.8 152.9 155.7 176.5 155.7 C 186.5 155.7 195.7 158.8 203 163.9 C 216.7 127.2 250.4 101.2 289.7 101.2 C 332.6 101.2 368.8 132.1 379.7 174.2 C 381.1 174.1 382.6 174.1 384.1 174.1 C 399.9 174.1 414.4 179.4 425.9 188.3 C 429.8 187.2 433.9 186.7 438.2 186.7 C 464.8 186.7 486.4 207.8 486.4 233.9 C 486.4 260 464.8 281.1 438.2 281.1 C 437.9 281.1 437.6 281.1 437.3 281.1 C 425 296.6 405.7 306.5 384.1 306.5 C 365.4 306.5 348.4 299 336.2 287 C 322.5 295.4 306.6 300.2 289.7 300.2 C 285.7 300.2 281.8 299.9 277.9 299.4 C 277.5 320.3 258.6 337.1 235.2 337.1 C 211.6 337.1 192.5 320 192.5 298.8 C 192.5 296.4 192.7 294.1 193.2 291.9 C 185 294.3 176.1 295.6 166.7 295.6 Z" style="fill: rgb(255, 255, 255);"/>
    <path d="M 168.8 284.7 C 129.5 284.7 97.7 261.3 97.7 232.4 C 97.7 212.2 113.2 194.7 136 186 C 135.9 185 135.9 184.1 135.9 183.1 C 135.9 161.9 155 144.8 178.6 144.8 C 188.6 144.8 197.8 147.9 205.1 153 C 218.8 116.3 252.5 90.3 291.8 90.3 C 334.7 90.3 370.9 121.2 381.8 163.3 C 383.2 163.2 384.7 163.2 386.2 163.2 C 402 163.2 416.5 168.5 428 177.4 C 431.9 176.3 436 175.8 440.3 175.8 C 466.9 175.8 488.5 196.9 488.5 223 C 488.5 249.1 466.9 270.2 440.3 270.2 C 440 270.2 439.7 270.2 439.4 270.2 C 427.1 285.7 407.8 295.6 386.2 295.6 C 367.5 295.6 350.5 288.1 338.3 276.1 C 324.6 284.5 308.7 289.3 291.8 289.3 C 287.8 289.3 283.9 289 280 288.5 C 279.6 309.4 260.7 326.2 237.3 326.2 C 213.7 326.2 194.6 309.1 194.6 287.9 C 194.6 285.5 194.8 283.2 195.3 281 C 187.1 283.4 178.2 284.7 168.8 284.7 Z" style="fill: rgb(225, 250, 251);"/>
    <path d="M 167 288 C 127.7 288 95.9 264.6 95.9 235.7 C 95.9 215.5 111.4 198 134.2 189.3 C 134.1 188.3 134.1 187.4 134.1 186.4 C 134.1 165.2 153.2 148.1 176.8 148.1 C 186.8 148.1 196 151.2 203.3 156.3 C 217 119.6 250.7 93.6 290 93.6 C 332.9 93.6 369.1 124.5 380 166.6 C 381.4 166.5 382.9 166.5 384.4 166.5 C 400.2 166.5 414.7 171.8 426.2 180.7 C 430.1 179.6 434.2 179.1 438.5 179.1 C 465.1 179.1 486.7 200.2 486.7 226.3 C 486.7 252.4 465.1 273.5 438.5 273.5 C 438.2 273.5 437.9 273.5 437.6 273.5 C 425.3 289 406 298.9 384.4 298.9 C 365.7 298.9 348.7 291.4 336.5 279.4 C 322.8 287.8 306.9 292.6 290 292.6 C 286 292.6 282.1 292.3 278.2 291.8 C 277.8 312.7 258.9 329.5 235.5 329.5 C 211.9 329.5 192.8 312.4 192.8 291.2 C 192.8 288.8 193 286.5 193.5 284.3 C 185.3 286.7 176.4 288 167 288 Z" style="fill: rgb(255, 255, 255);"/>
    <path d="M 166.1 292.4 C 126.8 292.4 95 269 95 240.1 C 95 219.9 110.5 202.4 133.3 193.7 C 133.2 192.7 133.2 191.8 133.2 190.8 C 133.2 169.6 152.3 152.5 175.9 152.5 C 185.9 152.5 195.1 155.6 202.4 160.7 C 216.1 124 249.8 98 289.1 98 C 332 98 368.2 128.9 379.1 171 C 380.5 170.9 382 170.9 383.5 170.9 C 399.3 170.9 413.8 176.2 425.3 185.1 C 429.2 184 433.3 183.5 437.6 183.5 C 464.2 183.5 485.8 204.6 485.8 230.7 C 485.8 256.8 464.2 277.9 437.6 277.9 C 437.3 277.9 437 277.9 436.7 277.9 C 424.4 293.4 405.1 303.3 383.5 303.3 C 364.8 303.3 347.8 295.8 335.6 283.8 C 321.9 292.2 306 297 289.1 297 C 285.1 297 281.2 296.7 277.3 296.2 C 276.9 317.1 258 333.9 234.6 333.9 C 211 333.9 191.9 316.8 191.9 295.6 C 191.9 293.2 192.1 290.9 192.6 288.7 C 184.4 291.1 175.5 292.4 166.1 292.4 Z" style="fill: rgb(189, 252, 255);"/>
    <path d="M 165.1 299.2 C 125.8 299.2 94 275.8 94 246.9 C 94 226.7 109.5 209.2 132.3 200.5 C 132.2 199.5 132.2 198.6 132.2 197.6 C 132.2 176.4 151.3 159.3 174.9 159.3 C 184.9 159.3 194.1 162.4 201.4 167.5 C 215.1 130.8 248.8 104.8 288.1 104.8 C 331 104.8 367.2 135.7 378.1 177.8 C 379.5 177.7 381 177.7 382.5 177.7 C 398.3 177.7 412.8 183 424.3 191.9 C 428.2 190.8 432.3 190.3 436.6 190.3 C 463.2 190.3 484.8 211.4 484.8 237.5 C 484.8 263.6 463.2 284.7 436.6 284.7 C 436.3 284.7 436 284.7 435.7 284.7 C 423.4 300.2 404.1 310.1 382.5 310.1 C 363.8 310.1 346.8 302.6 334.6 290.6 C 320.9 299 305 303.8 288.1 303.8 C 284.1 303.8 280.2 303.5 276.3 303 C 275.9 323.9 257 340.7 233.6 340.7 C 210 340.7 190.9 323.6 190.9 302.4 C 190.9 300 191.1 297.7 191.6 295.5 C 183.4 297.9 174.5 299.2 165.1 299.2 Z" style="fill: rgb(225, 250, 251);"/>
    <path d="M 166.7 295.6 C 127.4 295.6 95.6 272.2 95.6 243.3 C 95.6 223.1 111.1 205.6 133.9 196.9 C 133.8 195.9 133.8 195 133.8 194 C 133.8 172.8 152.9 155.7 176.5 155.7 C 186.5 155.7 195.7 158.8 203 163.9 C 216.7 127.2 250.4 101.2 289.7 101.2 C 332.6 101.2 368.8 132.1 379.7 174.2 C 381.1 174.1 382.6 174.1 384.1 174.1 C 399.9 174.1 414.4 179.4 425.9 188.3 C 429.8 187.2 433.9 186.7 438.2 186.7 C 464.8 186.7 486.4 207.8 486.4 233.9 C 486.4 260 464.8 281.1 438.2 281.1 C 437.9 281.1 437.6 281.1 437.3 281.1 C 425 296.6 405.7 306.5 384.1 306.5 C 365.4 306.5 348.4 299 336.2 287 C 322.5 295.4 306.6 300.2 289.7 300.2 C 285.7 300.2 281.8 299.9 277.9 299.4 C 277.5 320.3 258.6 337.1 235.2 337.1 C 211.6 337.1 192.5 320 192.5 298.8 C 192.5 296.4 192.7 294.1 193.2 291.9 C 185 294.3 176.1 295.6 166.7 295.6 Z" style="fill: rgb(255, 255, 255);"/>
    <path d="M 168.8 284.7 C 129.5 284.7 97.7 261.3 97.7 232.4 C 97.7 212.2 113.2 194.7 136 186 C 135.9 185 135.9 184.1 135.9 183.1 C 135.9 161.9 155 144.8 178.6 144.8 C 188.6 144.8 197.8 147.9 205.1 153 C 218.8 116.3 252.5 90.3 291.8 90.3 C 334.7 90.3 370.9 121.2 381.8 163.3 C 383.2 163.2 384.7 163.2 386.2 163.2 C 402 163.2 416.5 168.5 428 177.4 C 431.9 176.3 436 175.8 440.3 175.8 C 466.9 175.8 488.5 196.9 488.5 223 C 488.5 249.1 466.9 270.2 440.3 270.2 C 440 270.2 439.7 270.2 439.4 270.2 C 427.1 285.7 407.8 295.6 386.2 295.6 C 367.5 295.6 350.5 288.1 338.3 276.1 C 324.6 284.5 308.7 289.3 291.8 289.3 C 287.8 289.3 283.9 289 280 288.5 C 279.6 309.4 260.7 326.2 237.3 326.2 C 213.7 326.2 194.6 309.1 194.6 287.9 C 194.6 285.5 194.8 283.2 195.3 281 C 187.1 283.4 178.2 284.7 168.8 284.7 Z" style="fill: rgb(225, 250, 251);"/>
    <path d="M 167 288 C 127.7 288 95.9 264.6 95.9 235.7 C 95.9 215.5 111.4 198 134.2 189.3 C 134.1 188.3 134.1 187.4 134.1 186.4 C 134.1 165.2 153.2 148.1 176.8 148.1 C 186.8 148.1 196 151.2 203.3 156.3 C 217 119.6 250.7 93.6 290 93.6 C 332.9 93.6 369.1 124.5 380 166.6 C 381.4 166.5 382.9 166.5 384.4 166.5 C 400.2 166.5 414.7 171.8 426.2 180.7 C 430.1 179.6 434.2 179.1 438.5 179.1 C 465.1 179.1 486.7 200.2 486.7 226.3 C 486.7 252.4 465.1 273.5 438.5 273.5 C 438.2 273.5 437.9 273.5 437.6 273.5 C 425.3 289 406 298.9 384.4 298.9 C 365.7 298.9 348.7 291.4 336.5 279.4 C 322.8 287.8 306.9 292.6 290 292.6 C 286 292.6 282.1 292.3 278.2 291.8 C 277.8 312.7 258.9 329.5 235.5 329.5 C 211.9 329.5 192.8 312.4 192.8 291.2 C 192.8 288.8 193 286.5 193.5 284.3 C 185.3 286.7 176.4 288 167 288 Z" style="fill: rgb(255, 255, 255);"/>
    <path d="M 166.1 292.4 C 126.8 292.4 95 269 95 240.1 C 95 219.9 110.5 202.4 133.3 193.7 C 133.2 192.7 133.2 191.8 133.2 190.8 C 133.2 169.6 152.3 152.5 175.9 152.5 C 185.9 152.5 195.1 155.6 202.4 160.7 C 216.1 124 249.8 98 289.1 98 C 332 98 368.2 128.9 379.1 171 C 380.5 170.9 382 170.9 383.5 170.9 C 399.3 170.9 413.8 176.2 425.3 185.1 C 429.2 184 433.3 183.5 437.6 183.5 C 464.2 183.5 485.8 204.6 485.8 230.7 C 485.8 256.8 464.2 277.9 437.6 277.9 C 437.3 277.9 437 277.9 436.7 277.9 C 424.4 293.4 405.1 303.3 383.5 303.3 C 364.8 303.3 347.8 295.8 335.6 283.8 C 321.9 292.2 306 297 289.1 297 C 285.1 297 281.2 296.7 277.3 296.2 C 276.9 317.1 258 333.9 234.6 333.9 C 211 333.9 191.9 316.8 191.9 295.6 C 191.9 293.2 192.1 290.9 192.6 288.7 C 184.4 291.1 175.5 292.4 166.1 292.4 Z" style="fill: rgb(189, 252, 255);"/>
  </g>
  <g>
    <path id="Forma_8" data-name="Forma 8" class="cls-1" d="M 231.4 607.6 C 233.6 608.1 66.8 547.7 -13.5 505.6 C -37.5 493 -143.5 437.7 -48.8 429 C 46.1 420.3 125.2 438.1 125.2 438.1 C 125.2 438.1 235.5 448.8 317.2 509 C 398.8 569.1 331.9 625.8 331.9 625.8 C 331.9 625.8 415.6 668.3 414.3 691 C 413 713.7 325 675.7 325 675.7 C 304.4 665 245.6 637.6 231.4 607.6 Z" style="fill-rule: evenodd; fill: rgb(188, 188, 188); fill-opacity: 0.44;">
      <title>contono preto</title>
    </path>
    <path id="path-1" data-name="Forma 8" class="cls-1" d="M 475 342.7 C 476.5 343.2 402.3 282.8 386.5 240.7 C 381.8 228.1 360.6 172.8 468.7 164.1 C 576.9 155.4 628.7 173.2 628.7 173.2 C 628.7 173.2 722.6 183.9 712 244.1 C 701.5 304.2 547.6 360.9 547.6 360.9 C 547.6 360.9 566.1 403.4 530 426.1 C 493.9 448.8 464.2 410.8 464.2 410.8 C 460 400.1 443.2 372.7 475 342.7 Z" style="fill-rule: evenodd;">
      <title>contono preto</title>
    </path>
    <g style="" transform="matrix(0.567103, 0, 0, 0.567103, -1.212337, 139.060013)">
      <title>aes.</title>
      <circle id="Elipse_1" data-name="Elipse 1" class="cls-3" cx="889" cy="430" r="48" style="fill: rgb(255, 255, 255);">
        <title>ponto</title>
      </circle>
    </g>
    <g style="" transform="matrix(0.567103, 0, 0, 0.567103, -1.212337, 139.060013)">
      <title>balão</title>
      <g>
        <title>azul</title>
        <path id="Forma_5" data-name="Forma 5" class="cls-4" d="M 723.9 176.8 C 757.2 237.6 863.5 331.1 863.5 331.1 L 815 208 C 790.5 155.5 799 87 799 87 C 683.5 104.3 710.5 152.4 723.9 176.8 Z" style="fill-opacity: 0.8; fill: rgb(0, 116, 255); fill-rule: evenodd;">
          <title>azul 1</title>
        </path>
      </g>
      <path id="Forma_6" data-name="Forma 6" class="cls-5" d="M 909 334 C 966.8 202.8 1035 87 1035 87 C 1035 87 922.3 71.1 856 81 C 789.7 90.9 909 334 909 334 Z" style="fill: rgb(255, 0, 0); fill-rule: evenodd;">
        <title>vermelho</title>
      </path>
      <path id="Forma_7" data-name="Forma 7" class="cls-6" d="M 944 357 C 944 357 1046.4 101.4 1084 95 C 1113.1 99.3 1227.1 107.2 1219 176 C 1210 251.7 944 357 944 357 Z" style="fill: rgb(255, 234, 0); fill-rule: evenodd;">
        <title>amarelo</title>
      </path>
    </g>
  </g>
</svg>