<?xml version="1.0" encoding="utf-8"?>
<svg viewBox="17.6 51.7 140.2 37.8" xmlns="http://www.w3.org/2000/svg">
  <path d="M 23.1 83.8 L 21.1 83.8 L 21.1 89.1 C 20.9 89.1 20.7 89.2 20.4 89.2 C 20.1 89.3 19.8 89.3 19.4 89.3 C 18.7 89.3 18.3 89.2 18 88.9 C 17.8 88.7 17.6 88.2 17.6 87.7 L 17.6 74.4 C 17.6 74.1 17.7 73.8 17.9 73.7 C 18 73.5 18.3 73.4 18.7 73.3 C 18.9 73.2 19.3 73.1 19.6 73 C 19.9 73 20.2 72.9 20.7 72.9 C 21 72.8 21.4 72.8 21.7 72.8 C 22.2 72.8 22.5 72.8 22.8 72.8 C 25.1 72.8 26.9 73.2 28 74.3 C 29.2 75.2 29.8 76.5 29.8 78.3 C 29.8 79.9 29.2 81.3 28.1 82.3 C 27 83.3 25.3 83.8 23.1 83.8 Z M 21 81.1 L 22.9 81.1 C 24 81.1 24.8 80.8 25.4 80.4 C 26 79.9 26.3 79.2 26.3 78.3 C 26.3 77.3 26 76.6 25.5 76.2 C 24.9 75.8 24.1 75.5 22.9 75.5 C 22.2 75.5 21.5 75.6 21 75.7 L 21 81.1 Z M 34.5 89.2 C 34 89.2 33.6 89 33.2 88.7 C 32.9 88.3 32.8 87.9 32.8 87.4 L 32.8 75 C 32.8 74.4 32.9 73.9 33.2 73.6 C 33.6 73.3 34 73.1 34.5 73.1 L 43.3 73.1 C 43.4 73.2 43.5 73.4 43.5 73.7 C 43.6 73.9 43.6 74.2 43.6 74.4 C 43.6 74.9 43.5 75.2 43.4 75.5 C 43.1 75.8 42.8 75.8 42.5 75.8 L 36.1 75.8 L 36.1 79.6 L 42.5 79.6 C 42.6 79.8 42.7 79.9 42.8 80.1 C 42.8 80.4 42.9 80.6 42.9 80.9 C 42.9 81.9 42.5 82.3 41.7 82.3 L 36.1 82.3 L 36.1 86.4 L 43.5 86.4 C 43.5 86.6 43.6 86.8 43.6 86.9 C 43.7 87.2 43.8 87.4 43.8 87.7 C 43.8 88.7 43.4 89.2 42.6 89.2 L 34.5 89.2 Z M 50.4 83.5 L 50.4 89.1 C 50.3 89.1 50 89.2 49.7 89.2 C 49.5 89.3 49.1 89.3 48.8 89.3 C 48.2 89.3 47.6 89.2 47.4 88.9 C 47.1 88.7 47 88.2 47 87.7 L 47 74.4 C 47 74.1 47.1 73.8 47.3 73.7 C 47.5 73.5 47.6 73.4 48 73.3 C 48.6 73 49.2 73 50 72.9 C 50.8 72.8 51.6 72.8 52.4 72.8 C 54.6 72.8 56.4 73.2 57.6 74.2 C 58.7 75.1 59.3 76.4 59.3 78.1 C 59.3 79.2 59 80.2 58.5 81 C 57.9 81.9 57.1 82.5 56 82.9 C 56.8 83.9 57.6 84.8 58.3 85.8 C 59 86.7 59.5 87.4 59.9 87.9 C 59.7 88.3 59.5 88.7 59.2 88.9 C 58.7 89.2 58.4 89.4 57.9 89.4 C 57.4 89.4 57 89.2 56.7 89 C 56.5 88.8 56.1 88.4 55.9 88 L 52.9 83.5 L 50.4 83.5 Z M 50.4 80.8 L 52.5 80.8 C 53.6 80.8 54.4 80.6 55 80.2 C 55.6 79.8 55.9 79.1 55.9 78.2 C 55.9 76.4 54.6 75.5 52.3 75.5 C 51.9 75.5 51.6 75.5 51.3 75.6 C 51 75.6 50.6 75.7 50.4 75.7 L 50.4 80.8 Z M 67.5 86.8 C 68.5 86.8 69.2 86.5 69.7 86.1 C 70.2 85.7 70.4 85.3 70.4 84.7 C 70.4 84 70.3 83.6 69.8 83.3 C 69.5 83 68.9 82.7 68.2 82.5 L 66.5 81.9 C 65.8 81.8 65.2 81.5 64.7 81.3 C 64.1 81 63.6 80.6 63.3 80.3 C 62.8 79.9 62.6 79.5 62.4 79.1 C 62.1 78.5 62.1 78 62.1 77.3 C 62.1 75.9 62.6 74.8 63.6 73.9 C 64.8 73.1 66.2 72.7 68.1 72.7 C 68.8 72.7 69.5 72.8 70.1 72.9 C 70.7 73 71.3 73.1 71.7 73.3 C 72.2 73.6 72.5 73.7 72.8 74.1 C 73.1 74.4 73.1 74.7 73.1 75.1 C 73.1 75.4 73.1 75.8 73 76 C 72.8 76.3 72.5 76.4 72.4 76.6 C 71.9 76.3 71.3 76 70.6 75.8 C 69.9 75.6 69.2 75.5 68.3 75.5 C 67.5 75.5 66.8 75.7 66.2 76 C 65.8 76.3 65.5 76.8 65.5 77.3 C 65.5 77.8 65.7 78.1 66.1 78.4 C 66.3 78.6 66.9 78.9 67.6 79.1 L 69.1 79.6 C 70.6 80 71.8 80.6 72.6 81.4 C 73.5 82.2 73.9 83.3 73.9 84.7 C 73.9 85.4 73.7 86.1 73.5 86.7 C 73.2 87.2 72.8 87.7 72.3 88.1 C 71.7 88.6 71 88.9 70.3 89.2 C 69.5 89.4 68.5 89.5 67.6 89.5 C 66.8 89.5 66 89.5 65.3 89.3 C 64.7 89.2 64.1 89 63.5 88.8 C 63.1 88.5 62.7 88.2 62.4 87.9 C 62.1 87.6 62 87.2 62 86.8 C 62 86.4 62.1 86.1 62.4 85.8 C 62.6 85.5 62.8 85.3 63.2 85.2 C 63.6 85.5 64.2 85.9 64.9 86.2 C 65.6 86.6 66.5 86.8 67.5 86.8 Z" style="white-space: pre; fill: rgb(5, 59, 168);"/>
  <path d="M 92.1 81.1 C 92.1 82.5 91.9 83.7 91.5 84.7 C 91.1 85.8 90.5 86.7 89.8 87.4 C 89.1 88.1 88.2 88.6 87.3 89 C 86.3 89.4 85.3 89.5 84.1 89.5 C 82.9 89.5 81.9 89.4 80.9 89 C 79.9 88.6 79.1 88.1 78.4 87.4 C 77.7 86.7 77.1 85.8 76.7 84.7 C 76.3 83.7 76.1 82.5 76.1 81.1 C 76.1 79.7 76.3 78.5 76.7 77.5 C 77.1 76.4 77.7 75.6 78.4 74.9 C 79.1 74.1 79.9 73.6 80.9 73.2 C 82 72.9 83 72.7 84.1 72.7 C 85.2 72.7 86.2 72.9 87.3 73.2 C 88.2 73.6 89 74.1 89.8 74.9 C 90.5 75.6 91 76.4 91.5 77.5 C 91.9 78.5 92.1 79.7 92.1 81.1 Z M 88.6 81.1 C 88.6 79.2 88.2 77.8 87.4 76.9 C 86.6 75.9 85.4 75.5 84.1 75.5 C 82.7 75.5 81.6 75.9 80.8 76.9 C 80 77.8 79.6 79.2 79.6 81.1 C 79.6 82.9 80 84.3 80.8 85.3 C 81.6 86.2 82.7 86.8 84.1 86.8 C 85.4 86.8 86.6 86.2 87.4 85.3 C 88.2 84.3 88.6 82.9 88.6 81.1 Z M 97.1 89.3 C 96.4 89.3 95.9 89.2 95.7 88.9 C 95.4 88.7 95.3 88.3 95.3 87.7 L 95.3 73.7 C 95.5 73.5 95.8 73.2 96.2 73.1 C 96.5 73 97 72.9 97.4 72.9 C 97.9 72.9 98.5 73 98.9 73.2 C 99.3 73.4 99.7 73.7 100 74.4 L 103.8 81.2 C 104.1 81.8 104.5 82.5 104.8 83.2 C 105.2 83.8 105.4 84.4 105.7 85 L 105.8 85 C 105.7 84 105.6 82.9 105.6 81.9 C 105.6 81 105.5 80 105.5 79.1 L 105.5 73 C 105.7 73 106 73 106.2 73 C 106.5 73 106.8 72.9 107.1 72.9 C 107.7 72.9 108.2 73 108.5 73.2 C 108.8 73.5 108.9 73.9 108.9 74.4 L 108.9 88.7 C 108.7 88.8 108.4 89 108.1 89.1 C 107.7 89.3 107.3 89.3 106.8 89.3 C 106.2 89.3 105.8 89.2 105.4 89 C 104.9 88.8 104.6 88.4 104.2 87.9 L 100.4 81.1 C 100 80.5 99.7 79.8 99.4 79.1 C 99.1 78.4 98.8 77.8 98.5 77.2 L 98.4 77.2 C 98.5 78.2 98.5 79.2 98.5 80.2 C 98.5 81.3 98.5 82.2 98.5 83.1 L 98.5 89.1 C 98.5 89.1 98.2 89.2 97.9 89.2 C 97.7 89.3 97.4 89.3 97.1 89.3 Z" style="fill: rgb(3, 178, 243); white-space: pre;"/>
  <path d="M 122.6 88 L 121.9 85.4 L 116 85.4 C 115.8 86 115.6 86.7 115.4 87.4 C 115.1 88.1 115 88.7 114.8 89.1 C 114.6 89.2 114.4 89.3 114.3 89.3 C 114.1 89.4 113.8 89.4 113.5 89.4 C 112.9 89.4 112.4 89.3 112.1 89 C 111.8 88.8 111.6 88.4 111.6 88 C 111.6 87.8 111.6 87.6 111.7 87.4 C 111.7 87.2 111.8 86.9 111.9 86.7 C 112.1 86.2 112.3 85.6 112.5 84.9 C 112.7 84.2 112.9 83.4 113.2 82.6 C 113.6 81.9 113.8 81 114.2 80.1 C 114.4 79.2 114.8 78.4 115 77.6 C 115.3 76.8 115.7 76 115.9 75.3 C 116.2 74.5 116.4 73.9 116.6 73.5 C 116.8 73.3 117.1 73.2 117.6 73 C 118.1 73 118.5 72.9 119 72.9 C 119.6 72.9 120.1 73 120.6 73.1 C 121.2 73.4 121.5 73.7 121.6 74.1 C 121.9 75.1 122.4 76.1 122.8 77.4 C 123.2 78.6 123.6 79.9 124 81.3 C 124.5 82.6 124.9 84 125.3 85.2 C 125.7 86.5 126 87.6 126.4 88.7 C 126.2 88.8 126 89 125.7 89.2 C 125.3 89.3 125 89.4 124.6 89.4 C 124 89.4 123.5 89.2 123.3 89 C 123 88.8 122.8 88.4 122.6 88 Z M 119.1 75.9 L 119 75.9 C 118.8 76.4 118.6 76.8 118.4 77.4 C 118.3 77.9 118 78.5 117.8 79.1 C 117.7 79.7 117.4 80.3 117.2 80.9 C 117.1 81.5 116.8 82 116.6 82.6 L 121.2 82.6 L 119.1 75.9 Z" style="white-space: pre; fill: rgb(5, 59, 168);"/>
  <g style="" transform="matrix(0.891824, 0, 0, 0.891824, 43.062717, 26.968082)">
    <circle style="fill: none; fill-opacity: 1; stroke: rgb(5, 59, 168); stroke-width: 3.289; stroke-linejoin: round; stroke-miterlimit: 4; stroke-dasharray: none; stroke-opacity: 1; paint-order: markers stroke;" id="circle1007" cx="110.4" cy="46.9" r="13.5"/>
    <path style="fill: none; stroke: rgb(5, 59, 168); stroke-width: 3.289; stroke-linejoin: miter; stroke-miterlimit: 4; stroke-dasharray: none; stroke-opacity: 1; stroke-linecap: round;" d="M 92.2 68.2 C 104.3 62.5 118.5 62.5 128.7 68.2" id="path1013"/>
  </g>
  <rect style="fill: rgb(3, 178, 243); fill-opacity: 1; stroke-linejoin: round; stroke-miterlimit: 4; stroke-dasharray: none; stroke-opacity: 1; paint-order: markers stroke; stroke: rgb(255, 255, 255); stroke-width: 2px;" id="rect1009" width="18.9" height="4.1" x="132.6" y="51.7" rx="1.5" ry="1.5"/>
  <path id="path1011" style="color: rgb(0, 0, 0); font: medium sans-serif; font-feature-settings: normal; font-variation-settings: normal; text-indent: 0px; text-align: start; text-decoration: none solid rgb(0, 0, 0); letter-spacing: normal; word-spacing: normal; text-transform: none; writing-mode: lr-tb; direction: ltr; text-orientation: mixed; dominant-baseline: auto; baseline-shift: baseline; text-anchor: start; white-space: normal; shape-margin: 0px; inline-size: 0px; clip-rule: nonzero; display: inline; overflow: visible; visibility: visible; opacity: 1; isolation: auto; mix-blend-mode: normal; color-interpolation: srgb; color-interpolation-filters: linearrgb; vector-effect: none; fill: rgb(11, 106, 228); fill-opacity: 1; fill-rule: nonzero; stroke: none; stroke-width: 3.77953; stroke-linecap: butt; stroke-linejoin: round; stroke-miterlimit: 4; stroke-dasharray: none; stroke-dashoffset: 0; stroke-opacity: 1; paint-order: markers stroke; color-rendering: auto; image-rendering: auto; shape-rendering: auto; text-rendering: auto; stop-color: rgb(0, 0, 0); stop-opacity: 1;" d="M 137.9 60.5 L 137 61.1 C 134.3 62.7 132.4 65.8 132.4 69.2 C 132.4 73 134.7 76.3 137.9 77.8 L 137.9 73.5 C 136.8 72.4 136 70.9 136 69.2 C 136 67.5 136.8 66 137.9 64.9 Z"/>
  <path id="path1015" style="color: rgb(0, 0, 0); font: medium sans-serif; font-feature-settings: normal; font-variation-settings: normal; text-indent: 0px; text-align: start; text-decoration: none solid rgb(0, 0, 0); letter-spacing: normal; word-spacing: normal; text-transform: none; writing-mode: lr-tb; direction: ltr; text-orientation: mixed; dominant-baseline: auto; baseline-shift: baseline; text-anchor: start; white-space: normal; shape-margin: 0px; inline-size: 0px; clip-rule: nonzero; display: inline; overflow: visible; visibility: visible; opacity: 1; isolation: auto; mix-blend-mode: normal; color-interpolation: srgb; color-interpolation-filters: linearrgb; vector-effect: none; fill: rgb(3, 178, 243); fill-opacity: 1; fill-rule: nonzero; stroke-linecap: butt; stroke-linejoin: round; stroke-miterlimit: 4; stroke-dasharray: none; stroke-dashoffset: 0; stroke-opacity: 1; paint-order: markers stroke; color-rendering: auto; image-rendering: auto; shape-rendering: auto; text-rendering: auto; stop-color: rgb(0, 0, 0); stop-opacity: 1; stroke: rgb(255, 255, 255); stroke-width: 2px;" d="M 142.5 57 L 139.1 59.5 L 139.1 64.1 C 139.9 63.7 140.8 63.4 141.8 63.4 C 144.9 63.4 147.4 66 147.4 69.2 C 147.4 72.3 144.9 75 141.8 75 C 140.8 75 139.9 74.7 139.1 74.4 L 139.1 78.2 C 140 78.5 140.8 78.5 141.8 78.5 C 146.8 78.5 151.1 74.4 151.1 69.2 C 151.1 65.1 148.4 61.6 144.8 60.4 L 148.8 57 Z"/>
</svg>