<?xml version="1.0" encoding="utf-8"?>
<svg id="Agrupar_1" data-name="Agrupar 1" width="1280" height="567" viewBox="0 0 1280 567" xmlns="http://www.w3.org/2000/svg">
  <defs>
    <style>
      .cls-1, .cls-2, .cls-4, .cls-5, .cls-6 {
        fill-rule: evenodd;
      }

      .cls-2, .cls-3 {
        fill: #fff;
      }

      .cls-4 {
        fill: #0074ff;
      }

      .cls-5 {
        fill: red;
      }

      .cls-6 {
        fill: #ffea00;
      }
    </style>
  </defs>
  <g>
    <title>logo aes balão color</title>
    <path id="Forma_8" data-name="Forma 8" class="cls-1" d="M 67 337 C 69.6 338 52.1 333 38 327 C 40.9 313.5 36.7 241.5 106 197 C 175.3 152.5 255.5 184.3 282 202 C 308.5 219.7 323 255 323 255 C 323 255 357.6 179.5 453 177 C 548.4 174.5 582 240 582 240 C 612.7 185.2 682 179 682 179 C 682 179 636.3 59.4 827 44 C 1017.7 28.6 1109 60 1109 60 C 1109 60 1274.6 78.9 1256 185 C 1237.4 291.1 966 391 966 391 C 966 391 998.7 466 935 506 C 871.3 546 819 479 819 479 C 690.7 576.9 578 468 578 468 C 475.4 575.3 356 483 356 483 L 355 496 C 285.4 544.2 227 499 227 499 C 47.1 576.1 10.8 390 67 337 Z" style="">
      <title>contono preto</title>
    </path>
    <g style="">
      <title>aes.</title>
      <circle id="Elipse_1" data-name="Elipse 1" class="cls-3" cx="889" cy="430" r="48" style="">
        <title>ponto</title>
      </circle>
      <path id="Forma_1" data-name="Forma 1" class="cls-2" d="M 147 314 C 146.9 314.9 82 297 82 297 C 82 297 89.7 248.2 130 230 C 170.3 211.8 226.2 216.4 256 234 C 286 249.3 293.9 286.8 295 296 C 296.1 305.2 296 408 296 408 C 296 408 297.1 429.8 324 421 C 326.2 421.2 320 469 320 469 C 320 469 253.1 499.8 230 440 C 194.5 489.7 122.4 480.7 102.5 460 C 82.6 439.4 63.1 394.9 101 357 C 135 328.8 176.8 336.4 218.9 320.7 C 225.6 274.8 160.2 252.6 147 314 Z M 218 366 C 204.3 372.6 139.2 371.6 161 414 C 194 439.4 226.6 402 218 366 Z" style=""/>
      <path id="Forma_3" data-name="Forma 3" class="cls-2" d="M 598 429 L 633 383 C 633 383 660.5 414.9 697 419 C 733.5 423.1 751.8 397.8 724 386 C 692.6 372.6 656 385.4 615 341 C 585.9 289.2 617.5 225.4 696 219 C 774.5 212.6 812 260 812 260 C 812 260 778 308.2 777 307 C 745.7 271.2 681.2 268.3 681 291 C 680.8 316.2 725.1 312.6 772 329 C 818.9 345.4 816.7 387.7 813.4 407.3 C 807.3 445.9 782.6 476.1 705 477 C 627.4 477.9 598 429 598 429 Z" style="">
        <title>s</title>
      </path>
      <path id="Forma_2" data-name="Forma 2" class="cls-2" d="M 505 389 C 505.6 387.8 566 411 566 411 C 566 411 552.3 475 455 477 C 357.7 479.1 343.2 383 341.3 374.4 C 339.4 365.8 327.5 213.3 463 220 C 598.5 226.7 569 369 569 369 C 569 369 416.2 367.6 416 369 C 410.8 410.1 476.5 443.4 505 389 Z M 497 323 C 502.4 275.1 427.8 251.8 416 323 C 416 323 497 325.1 497 323 Z" style=""/>
    </g>
    <g style="">
      <title>balão</title>
      <g>
        <title>azul</title>
        <path id="Forma_4" data-name="Forma 4" class="cls-4" d="M 844 286 L 830 302 L 861 328 C 855.5 316 844 286 844 286 Z">
          <title>azul 2</title>
        </path>
        <path id="Forma_5" data-name="Forma 5" class="cls-4" d="M 724 177 C 770.2 175.9 815 208 815 208 C 790.5 155.5 799 87 799 87 C 683.5 104.3 724 177 724 177 Z">
          <title>azul 1</title>
        </path>
      </g>
      <path id="Forma_6" data-name="Forma 6" class="cls-5" d="M 909 334 C 966.8 202.8 1035 87 1035 87 C 1035 87 922.3 71.1 856 81 C 789.7 90.9 909 334 909 334 Z">
        <title>vermelho</title>
      </path>
      <path id="Forma_7" data-name="Forma 7" class="cls-6" d="M 944 357 C 944 357 1046.4 101.4 1084 95 C 1113.1 99.3 1227.1 107.2 1219 176 C 1210 251.7 944 357 944 357 Z">
        <title>amarelo</title>
      </path>
    </g>
  </g>
</svg>