<?xml version="1.0" encoding="utf-8"?>
<svg viewBox="42.6 87.1 152.4 43.6" xmlns="http://www.w3.org/2000/svg">
  <g style="" transform="matrix(1.021498, 0, 0, 1.021498, 63.558678, 58.975483)">
    <title>360#ffffff</title>
    <g transform="matrix(0.978954, 0, 0, 0.978954, -13.238699, -17.45484)">
      <title>pessoa</title>
      <circle style="fill: none; fill-opacity: 1; stroke-width: 3.289; stroke-linejoin: round; stroke-miterlimit: 4; stroke-dasharray: none; stroke-opacity: 1; paint-order: markers stroke; stroke: rgb(0, 75, 118);" id="circle-3" cx="126.3" cy="65.7" r="13.8">
        <title>cabeça</title>
      </circle>
      <path style="fill: none; stroke-width: 3.289; stroke-linejoin: miter; stroke-miterlimit: 4; stroke-dasharray: none; stroke-opacity: 1; stroke-linecap: round; stroke: rgb(0, 75, 118);" d="M 107.7 87.5 C 120.1 81.7 134.6 81.7 145 87.5" id="path-7">
        <title>corpo</title>
      </path>
    </g>
    <g>
      <title>360</title>
      <rect style="fill-opacity: 1; stroke-linejoin: round; stroke-miterlimit: 4; stroke-dasharray: none; stroke-opacity: 1; paint-order: markers stroke; stroke-width: 2px; stroke: rgb(255, 255, 255); fill: rgb(3, 178, 243);" id="rect-3" width="21.1" height="4.6" x="100.2" y="27.5" rx="1.7" ry="1.7">
        <title>3</title>
      </rect>
      <path id="path-8" style="color: rgb(0, 0, 0); font: medium sans-serif; font-feature-settings: normal; font-variation-settings: normal; text-indent: 0px; text-align: start; text-decoration: none solid rgb(0, 0, 0); letter-spacing: normal; word-spacing: normal; text-transform: none; writing-mode: lr-tb; direction: ltr; text-orientation: mixed; dominant-baseline: auto; baseline-shift: baseline; text-anchor: start; white-space: normal; shape-margin: 0px; inline-size: 0px; clip-rule: nonzero; display: inline; overflow: visible; opacity: 1; isolation: auto; mix-blend-mode: normal; color-interpolation: srgb; color-interpolation-filters: linearrgb; vector-effect: none; fill-opacity: 1; fill-rule: nonzero; stroke-linecap: butt; stroke-linejoin: round; stroke-miterlimit: 4; stroke-dasharray: none; stroke-dashoffset: 0; stroke-opacity: 1; paint-order: markers stroke; color-rendering: auto; image-rendering: auto; shape-rendering: auto; text-rendering: auto; stop-color: rgb(0, 0, 0); stop-opacity: 1; stroke-width: 2px; stroke: rgb(255, 255, 255); fill: rgb(3, 178, 243);" d="M 111.3 33.5 L 107.6 36.3 L 107.6 41.4 C 108.4 41 109.4 40.7 110.5 40.7 C 114 40.7 116.9 43.5 116.9 47.2 C 116.9 50.7 114 53.6 110.5 53.6 C 109.4 53.6 108.4 53.3 107.6 52.9 L 107.6 57.2 C 108.5 57.5 109.4 57.6 110.5 57.6 C 116.2 57.6 121 52.9 121 47.2 C 121 42.6 117.9 38.6 113.9 37.3 L 118.4 33.5 Z">
        <title>6</title>
      </path>
      <path id="path-9" style="color: rgb(0, 0, 0); font: medium sans-serif; font-feature-settings: normal; font-variation-settings: normal; text-indent: 0px; text-align: start; text-decoration: none solid rgb(0, 0, 0); letter-spacing: normal; word-spacing: normal; text-transform: none; writing-mode: lr-tb; direction: ltr; text-orientation: mixed; dominant-baseline: auto; baseline-shift: baseline; text-anchor: start; white-space: normal; shape-margin: 0px; inline-size: 0px; clip-rule: nonzero; display: inline; overflow: visible; opacity: 1; isolation: auto; mix-blend-mode: normal; color-interpolation: srgb; color-interpolation-filters: linearrgb; vector-effect: none; fill-opacity: 1; fill-rule: nonzero; stroke: none; stroke-width: 3.77953; stroke-linecap: butt; stroke-linejoin: round; stroke-miterlimit: 4; stroke-dasharray: none; stroke-dashoffset: 0; stroke-opacity: 1; paint-order: markers stroke; color-rendering: auto; image-rendering: auto; shape-rendering: auto; text-rendering: auto; stop-color: rgb(0, 0, 0); stop-opacity: 1; fill: rgb(11, 106, 228);" d="M 106.2 37.4 L 105.2 38.1 C 102.1 39.9 100 43.3 100 47.2 C 100 51.4 102.6 55.1 106.2 56.7 L 106.2 52 C 104.9 50.8 104 49.1 104 47.2 C 104 45.2 104.9 43.5 106.2 42.4 Z">
        <title>0</title>
      </path>
    </g>
    <path d="M -14.4 63.7 L -16.7 63.7 L -16.7 69.7 C -16.8 69.7 -17.1 69.8 -17.4 69.8 C -17.8 69.9 -18.1 69.9 -18.5 69.9 C -19.2 69.9 -19.8 69.8 -20.1 69.5 C -20.4 69.2 -20.5 68.8 -20.5 68.1 L -20.5 53.2 C -20.5 52.9 -20.4 52.6 -20.2 52.4 C -20 52.2 -19.8 52 -19.4 51.9 C -19.1 51.8 -18.7 51.7 -18.3 51.6 C -18 51.6 -17.6 51.5 -17.1 51.4 C -16.7 51.4 -16.3 51.4 -15.9 51.3 C -15.5 51.3 -15.1 51.3 -14.7 51.3 C -12.1 51.3 -10.2 51.9 -8.8 53 C -7.5 54.1 -6.9 55.6 -6.9 57.5 C -6.9 59.4 -7.5 60.9 -8.8 62 C -10.1 63.2 -11.9 63.7 -14.4 63.7 Z M -16.7 60.6 L -14.6 60.6 C -13.4 60.6 -12.5 60.4 -11.8 59.9 C -11.1 59.4 -10.8 58.6 -10.8 57.5 C -10.8 56.5 -11.1 55.7 -11.7 55.2 C -12.4 54.7 -13.3 54.4 -14.5 54.4 C -15.4 54.4 -16.1 54.5 -16.7 54.6 L -16.7 60.6 Z M -2.9 69.8 C -3.5 69.8 -4 69.6 -4.4 69.2 C -4.7 68.8 -4.9 68.3 -4.9 67.7 L -4.9 53.8 C -4.9 53.1 -4.7 52.6 -4.4 52.3 C -4 51.9 -3.5 51.7 -2.9 51.7 L 6.9 51.7 C 7 51.9 7.1 52.1 7.2 52.3 C 7.3 52.6 7.3 52.9 7.3 53.2 C 7.3 53.7 7.2 54.1 6.9 54.4 C 6.7 54.7 6.4 54.8 6 54.8 L -1.2 54.8 L -1.2 59 L 6 59 C 6.1 59.2 6.2 59.4 6.3 59.6 C 6.4 59.9 6.4 60.1 6.4 60.5 C 6.4 61.5 6 62.1 5.1 62.1 L -1.2 62.1 L -1.2 66.6 L 7 66.6 C 7.1 66.8 7.2 67 7.3 67.3 C 7.4 67.6 7.4 67.8 7.4 68.2 C 7.4 69.2 7 69.8 6.1 69.8 L -2.9 69.8 Z M 13.5 63.4 L 13.5 69.7 C 13.3 69.7 13.1 69.8 12.7 69.8 C 12.4 69.9 12.1 69.9 11.7 69.9 C 10.9 69.9 10.4 69.8 10.1 69.5 C 9.8 69.2 9.7 68.8 9.7 68.1 L 9.7 53.2 C 9.7 52.9 9.8 52.6 10 52.4 C 10.1 52.2 10.4 52 10.8 51.9 C 11.4 51.7 12.2 51.5 13 51.4 C 13.9 51.4 14.8 51.3 15.7 51.3 C 18.3 51.3 20.2 51.9 21.5 52.9 C 22.8 54 23.5 55.5 23.5 57.4 C 23.5 58.6 23.2 59.7 22.5 60.6 C 21.9 61.5 21 62.2 19.8 62.7 C 20.7 63.9 21.5 64.9 22.3 66 C 23.1 67 23.7 67.8 24.1 68.3 C 23.9 68.9 23.7 69.3 23.3 69.5 C 22.9 69.8 22.4 70 22 70 C 21.4 70 20.9 69.8 20.6 69.5 C 20.2 69.3 19.9 68.9 19.6 68.4 L 16.3 63.4 L 13.5 63.4 Z M 13.4 60.4 L 15.9 60.4 C 17 60.4 17.9 60.2 18.6 59.7 C 19.3 59.2 19.6 58.4 19.6 57.4 C 19.6 55.4 18.3 54.4 15.6 54.4 C 15.2 54.4 14.8 54.4 14.5 54.5 C 14.1 54.5 13.8 54.6 13.4 54.6 L 13.4 60.4 Z M 31.2 67 C 32.4 67 33.2 66.8 33.7 66.3 C 34.3 65.9 34.5 65.3 34.5 64.7 C 34.5 64.1 34.3 63.6 33.9 63.2 C 33.5 62.8 32.9 62.5 32 62.3 L 30.1 61.7 C 29.4 61.4 28.7 61.2 28.1 60.9 C 27.5 60.6 26.9 60.2 26.5 59.8 C 26.1 59.4 25.7 58.9 25.5 58.4 C 25.3 57.9 25.2 57.2 25.2 56.5 C 25.2 54.9 25.8 53.6 27 52.7 C 28.2 51.7 29.8 51.3 31.9 51.3 C 32.7 51.3 33.5 51.3 34.2 51.4 C 34.9 51.6 35.5 51.8 36 52 C 36.5 52.2 36.9 52.5 37.2 52.8 C 37.5 53.2 37.6 53.5 37.6 53.9 C 37.6 54.3 37.6 54.7 37.4 55 C 37.2 55.3 36.9 55.5 36.7 55.7 C 36.2 55.3 35.6 55 34.8 54.8 C 34 54.6 33.2 54.4 32.2 54.4 C 31.2 54.4 30.4 54.6 29.9 55 C 29.4 55.3 29.1 55.8 29.1 56.5 C 29.1 57 29.3 57.4 29.6 57.6 C 30 57.9 30.6 58.2 31.4 58.4 L 33.1 59 C 34.8 59.5 36.1 60.2 37.1 61.1 C 38 62 38.5 63.2 38.5 64.7 C 38.5 65.5 38.3 66.2 38 66.9 C 37.7 67.6 37.2 68.2 36.6 68.6 C 36 69.1 35.3 69.5 34.4 69.8 C 33.5 70 32.5 70.2 31.3 70.2 C 30.4 70.2 29.6 70.1 28.8 69.9 C 28.1 69.8 27.4 69.6 26.8 69.3 C 26.3 69 25.9 68.7 25.6 68.3 C 25.2 68 25.1 67.6 25.1 67.1 C 25.1 66.7 25.2 66.3 25.5 66 C 25.8 65.7 26.1 65.4 26.4 65.3 C 26.9 65.7 27.6 66.1 28.4 66.5 C 29.2 66.8 30.1 67 31.2 67 Z M 57.7 60.7 C 57.7 62.2 57.5 63.6 57 64.8 C 56.5 66 55.9 67 55.1 67.8 C 54.3 68.6 53.4 69.2 52.3 69.6 C 51.2 70 50 70.2 48.7 70.2 C 47.4 70.2 46.2 70 45.1 69.6 C 44 69.2 43 68.6 42.2 67.8 C 41.4 67 40.8 66 40.4 64.8 C 39.9 63.6 39.7 62.2 39.7 60.7 C 39.7 59.2 39.9 57.8 40.4 56.6 C 40.8 55.5 41.5 54.5 42.3 53.7 C 43.1 52.9 44 52.3 45.1 51.9 C 46.2 51.5 47.4 51.3 48.7 51.3 C 49.9 51.3 51.1 51.5 52.2 51.9 C 53.3 52.3 54.3 52.9 55.1 53.7 C 55.9 54.5 56.5 55.5 57 56.6 C 57.4 57.8 57.7 59.2 57.7 60.7 Z M 53.7 60.7 C 53.7 58.6 53.3 57.1 52.4 56 C 51.4 54.9 50.2 54.4 48.7 54.4 C 47.2 54.4 45.9 54.9 45 56 C 44.1 57.1 43.6 58.6 43.6 60.7 C 43.6 62.8 44.1 64.3 45 65.4 C 45.9 66.5 47.1 67 48.7 67 C 50.2 67 51.4 66.5 52.4 65.4 C 53.3 64.3 53.7 62.8 53.7 60.7 Z M 61.8 69.9 C 61.1 69.9 60.6 69.8 60.3 69.5 C 60 69.2 59.9 68.8 59.9 68.2 L 59.9 52.4 C 60.1 52.1 60.4 51.9 60.8 51.7 C 61.2 51.6 61.7 51.5 62.2 51.5 C 62.8 51.5 63.4 51.6 63.9 51.8 C 64.4 52 64.8 52.5 65.2 53.1 L 69.4 60.8 C 69.8 61.5 70.2 62.2 70.6 63 C 70.9 63.8 71.2 64.5 71.5 65.1 L 71.6 65 C 71.5 63.9 71.5 62.8 71.4 61.7 C 71.4 60.6 71.4 59.5 71.4 58.4 L 71.4 51.7 C 71.6 51.7 71.8 51.6 72.1 51.6 C 72.5 51.5 72.8 51.5 73.1 51.5 C 73.9 51.5 74.4 51.6 74.7 51.9 C 75 52.2 75.1 52.6 75.1 53.2 L 75.1 69.2 C 74.9 69.4 74.6 69.6 74.2 69.7 C 73.8 69.8 73.3 69.9 72.8 69.9 C 72.2 69.9 71.6 69.8 71.1 69.6 C 70.7 69.4 70.2 69 69.9 68.3 L 65.6 60.6 C 65.2 60 64.8 59.2 64.5 58.4 C 64.1 57.7 63.8 57 63.5 56.3 L 63.3 56.3 C 63.4 57.4 63.5 58.6 63.5 59.7 C 63.5 60.8 63.6 61.9 63.6 62.9 L 63.6 69.7 C 63.4 69.7 63.2 69.8 62.8 69.8 C 62.5 69.9 62.2 69.9 61.8 69.9 Z M 89.2 68.4 L 88.3 65.5 L 81.7 65.5 C 81.5 66.2 81.2 67 81 67.7 C 80.8 68.5 80.6 69.2 80.4 69.7 C 80.2 69.8 80 69.8 79.8 69.9 C 79.5 70 79.2 70 78.9 70 C 78.2 70 77.7 69.9 77.3 69.6 C 77 69.3 76.8 69 76.8 68.5 C 76.8 68.2 76.8 68 76.9 67.8 C 77 67.5 77 67.3 77.1 67 C 77.3 66.4 77.5 65.8 77.8 65 C 78 64.2 78.3 63.3 78.6 62.4 C 78.9 61.5 79.3 60.6 79.6 59.6 C 80 58.6 80.3 57.7 80.6 56.7 C 81 55.8 81.3 55 81.6 54.2 C 81.9 53.4 82.2 52.7 82.4 52.1 C 82.6 52 83 51.8 83.5 51.7 C 84 51.6 84.5 51.5 85 51.5 C 85.7 51.5 86.4 51.6 86.9 51.8 C 87.5 52 87.9 52.3 88 52.8 C 88.4 53.9 88.9 55.1 89.3 56.5 C 89.8 58 90.3 59.4 90.8 60.9 C 91.3 62.4 91.7 63.9 92.2 65.3 C 92.6 66.8 93 68.1 93.4 69.2 C 93.2 69.4 92.9 69.6 92.6 69.7 C 92.2 69.9 91.8 70 91.3 70 C 90.7 70 90.2 69.8 89.9 69.6 C 89.6 69.4 89.4 69 89.2 68.4 Z M 85.2 54.9 L 85 54.9 C 84.8 55.4 84.6 55.9 84.4 56.5 C 84.2 57.1 84 57.8 83.8 58.4 C 83.6 59.1 83.3 59.8 83.1 60.4 C 82.8 61.1 82.6 61.8 82.4 62.4 L 87.6 62.4 L 85.2 54.9 Z" style="white-space: pre; fill: rgb(0, 75, 118);">
      <title>PERSONA</title>
    </path>
  </g>
</svg>