<?xml version="1.0" encoding="utf-8"?>
<svg viewBox="-379.5 -88.6 894.5 546.7" xmlns="http://www.w3.org/2000/svg" xmlns:bx="https://boxy-svg.com">
  <rect x="223.9" y="-40.5" width="25.1" height="70.5" style="" transform="matrix(0.707087, 0.707126, -0.707126, 0.707087, -103.941216, -150.785782)"/>
  <path d="M 214 74.2 m -57.5 0 a 57.5 57.5 0 1 0 115 0 a 57.5 57.5 0 1 0 -115 0 Z M 214 74.2 m -31.1 0 a 31.1 31.1 0 0 1 62.2 0 a 31.1 31.1 0 0 1 -62.2 0 Z" style="" transform="matrix(0.999996, 0.002995, -0.002995, 0.999996, -174.900528, 11.198547)" bx:shape="ring 214 74.2 31.1 31.1 57.5 57.5 1@5594daf1"/>
  <path d="M 211.7 78 m -111.8 0 a 111.8 111.8 0 1 0 223.6 0 a 111.8 111.8 0 1 0 -223.6 0 Z M 211.7 78 m -80.4 0 a 80.4 80.4 0 0 1 160.8 0 a 80.4 80.4 0 0 1 -160.8 0 Z" style="" transform="matrix(0.999996, 0.002995, -0.002995, 0.999996, -174.625299, 10.746881)" bx:shape="ring 211.7 78 80.4 80.4 111.8 111.8 1@2ca8990e"/>
  <rect x="157.4" y="-3.8" width="25.1" height="140.1" style="fill: rgb(255, 255, 255);" transform="matrix(0.999996, 0.002995, -0.002995, 0.999996, -149.444824, 20.11026)"/>
  <path d="M 220.9 512.7 m -253.2 0 a 253.2 253.2 0 1 0 506.4 0 a 253.2 253.2 0 1 0 -506.4 0 Z M 220.9 512.7 m -214.3 0 a 214.3 214.3 0 0 1 428.6 0 a 214.3 214.3 0 0 1 -428.6 0 Z" style="" transform="matrix(0.999996, 0.002995, -0.002995, 0.999996, -175.565787, -41.01853)" bx:shape="ring 220.9 512.7 214.3 214.3 253.2 253.2 1@94cda441"/>
  <rect x="503.2" y="172.5" width="40.5" height="66.4" style="fill: rgb(255, 255, 255);" transform="matrix(0.882094, -0.471074, 0.471074, 0.882094, -555.953491, 56.011707)"/>
  <path d="M -133.5 250.6 L -54.1 366 L 173.9 319.7 L 224.9 242.9 L 602.6 735.5 L -476.8 716.7 L -133.5 250.6 Z" style="fill: rgb(255, 255, 255);"/>
  <rect x="286" y="-40.5" width="32.1" height="70.5" style="fill: rgb(255, 255, 255);" transform="matrix(0.707087, 0.707126, -0.707126, 0.707087, -111.515549, -195.509827)"/>
  <rect x="157.4" y="-2" width="25.1" height="75.1" style="fill: rgb(255, 255, 255);" transform="matrix(-0.000028, 1, -1, -0.000028, 100.067963, -166.597916)"/>
  <rect x="203.2" y="-2.7" width="32.4" height="100.9" style="" transform="matrix(0.014669, 0.999892, -1.000428, -0.021855, 112.474625, -239.351196)" rx="15.7" ry="15.7"/>
  <path d="M -5.1 -5 L -4.1 -5 C 4.4 -5 10.9 2 10.6 10.7 L -20.8 10.7 C -20.5 2 -13.5 -5 -5.1 -5 Z" style="" transform="matrix(0.470908, 0.882182, -0.882182, 0.470908, -0.181509, 6.00264)"/>
  <path d="M 107.5 17.5 L 108.5 17.5 C 117 17.5 123.5 24.5 123.2 33.2 L 91.8 33.2 C 92.1 24.5 99.1 17.5 107.5 17.5 Z" style="" transform="matrix(0.709486, -0.704719, 0.704719, 0.709486, 13.367042, 83.12536)"/>
  <path d="M -130.7 304.5 C -129 294.3 -119.7 286 -109.6 286 C -99.4 286 -91.5 297.2 -91.9 308.2 L -130.7 304.5 Z" style="" transform="matrix(-0.628502, -0.777808, 0.777808, -0.628502, -412.327178, 397.2636)"/>
  <path d="M 179.9 290.2 C 181.6 300.4 190.9 308.7 201 308.7 C 211.2 308.7 219.1 297.5 218.7 286.5 L 179.9 290.2 Z" style="" transform="matrix(0.628502, -0.777808, 0.777808, 0.628502, -157.433403, 265.58056)"/>
</svg>