<?xml version="1.0" encoding="utf-8"?>
<svg viewBox="27.7 74.4 186.2 70.6" xmlns="http://www.w3.org/2000/svg">
  <path d="M 48.8 124.9 L 46.5 124.9 L 46.5 131 C 46.4 131 46.1 131.1 45.8 131.1 C 45.4 131.2 45.1 131.2 44.6 131.2 C 43.9 131.2 43.3 131.1 43 130.8 C 42.7 130.5 42.6 130.1 42.6 129.4 L 42.6 114.2 C 42.6 113.9 42.7 113.6 42.9 113.4 C 43.1 113.2 43.3 113 43.7 112.9 C 44 112.8 44.4 112.7 44.8 112.6 C 45.2 112.6 45.6 112.4 46.1 112.3 C 46.5 112.3 46.9 112.3 47.3 112.2 C 47.7 112.2 48.1 112.2 48.5 112.2 C 51.2 112.2 53.1 112.9 54.6 114 C 55.9 115.1 56.5 116.6 56.5 118.6 C 56.5 120.5 55.9 122.1 54.6 123.2 C 53.2 124.4 51.4 124.9 48.8 124.9 Z M 46.5 121.7 L 48.6 121.7 C 49.9 121.7 50.8 121.5 51.5 121 C 52.2 120.5 52.5 119.7 52.5 118.6 C 52.5 117.6 52.2 116.7 51.6 116.2 C 50.9 115.7 50 115.4 48.7 115.4 C 47.8 115.4 47.1 115.5 46.5 115.6 L 46.5 121.7 Z M 60.6 131.1 C 60 131.1 59.5 130.9 59 130.5 C 58.7 130.1 58.5 129.6 58.5 129 L 58.5 114.8 C 58.5 114.1 58.7 113.6 59 113.3 C 59.5 112.9 60 112.7 60.6 112.7 L 70.6 112.7 C 70.7 112.9 70.8 113.1 70.9 113.3 C 71 113.6 71 113.9 71 114.2 C 71 114.7 70.9 115.1 70.6 115.4 C 70.4 115.7 70.1 115.8 69.7 115.8 L 62.3 115.8 L 62.3 120.1 L 69.7 120.1 C 69.8 120.3 69.9 120.5 70 120.7 C 70.1 121 70.1 121.2 70.1 121.6 C 70.1 122.7 69.7 123.3 68.7 123.3 L 62.3 123.3 L 62.3 127.9 L 70.7 127.9 C 70.8 128.1 70.9 128.3 71 128.6 C 71.1 128.9 71.1 129.1 71.1 129.5 C 71.1 130.5 70.7 131.1 69.8 131.1 L 60.6 131.1 Z M 77.3 124.6 L 77.3 131 C 77.1 131 76.9 131.1 76.5 131.1 C 76.2 131.2 75.9 131.2 75.5 131.2 C 74.7 131.2 74.2 131.1 73.9 130.8 C 73.6 130.5 73.4 130.1 73.4 129.4 L 73.4 114.2 C 73.4 113.9 73.6 113.6 73.8 113.4 C 73.9 113.2 74.2 113 74.6 112.9 C 75.2 112.7 76 112.4 76.8 112.3 C 77.7 112.3 78.7 112.2 79.6 112.2 C 82.2 112.2 84.2 112.9 85.5 113.9 C 86.8 115 87.5 116.5 87.5 118.5 C 87.5 119.7 87.2 120.8 86.5 121.7 C 85.9 122.7 85 123.4 83.8 123.9 C 84.7 125.1 85.5 126.1 86.3 127.3 C 87.1 128.3 87.7 129.1 88.2 129.6 C 88 130.2 87.7 130.6 87.3 130.8 C 86.9 131.1 86.4 131.3 86 131.3 C 85.4 131.3 84.9 131.1 84.6 130.8 C 84.2 130.6 83.9 130.2 83.6 129.7 L 80.2 124.6 L 77.3 124.6 Z M 77.2 121.5 L 79.8 121.5 C 80.9 121.5 81.8 121.3 82.5 120.8 C 83.3 120.3 83.6 119.5 83.6 118.5 C 83.6 116.4 82.2 115.4 79.5 115.4 C 79.1 115.4 78.7 115.4 78.4 115.5 C 77.9 115.5 77.6 115.6 77.2 115.6 L 77.2 121.5 Z M 95.4 128.3 C 96.6 128.3 97.5 128.1 98 127.6 C 98.6 127.2 98.8 126.5 98.8 125.9 C 98.8 125.3 98.6 124.8 98.2 124.4 C 97.8 124 97.1 123.7 96.2 123.5 L 94.3 122.9 C 93.6 122.6 92.9 122.4 92.2 122.1 C 91.6 121.7 91 121.3 90.6 120.9 C 90.2 120.5 89.8 120 89.6 119.5 C 89.4 119 89.3 118.3 89.3 117.6 C 89.3 115.9 89.9 114.6 91.1 113.7 C 92.3 112.7 94 112.2 96.1 112.2 C 96.9 112.2 97.8 112.2 98.5 112.3 C 99.2 112.6 99.8 112.8 100.3 113 C 100.8 113.2 101.2 113.5 101.5 113.8 C 101.8 114.2 101.9 114.5 101.9 114.9 C 101.9 115.3 101.9 115.7 101.7 116 C 101.5 116.3 101.2 116.5 101 116.7 C 100.5 116.3 99.9 116 99.1 115.8 C 98.3 115.6 97.5 115.4 96.4 115.4 C 95.4 115.4 94.6 115.6 94.1 116 C 93.6 116.3 93.3 116.8 93.3 117.6 C 93.3 118.1 93.5 118.5 93.8 118.7 C 94.2 119 94.8 119.3 95.6 119.5 L 97.4 120.1 C 99.1 120.6 100.4 121.3 101.4 122.3 C 102.4 123.2 102.9 124.4 102.9 125.9 C 102.9 126.8 102.7 127.5 102.4 128.2 C 102.1 128.9 101.5 129.5 100.9 129.9 C 100.3 130.4 99.6 130.8 98.7 131.1 C 97.8 131.3 96.7 131.6 95.5 131.6 C 94.6 131.6 93.8 131.4 93 131.2 C 92.2 131.1 91.5 130.9 90.9 130.6 C 90.4 130.3 90 130 89.7 129.6 C 89.3 129.3 89.2 128.9 89.2 128.4 C 89.2 128 89.3 127.6 89.6 127.3 C 89.9 127 90.2 126.6 90.5 126.5 C 91 127 91.7 127.4 92.6 127.8 C 93.4 128.1 94.3 128.3 95.4 128.3 Z M 122.5 121.8 C 122.5 123.4 122.3 124.8 121.8 126 C 121.3 127.3 120.6 128.3 119.8 129.1 C 119 129.9 118.1 130.5 117 130.9 C 115.8 131.3 114.6 131.6 113.3 131.6 C 112 131.6 110.7 131.3 109.6 130.9 C 108.5 130.5 107.5 129.9 106.6 129.1 C 105.8 128.3 105.2 127.3 104.8 126 C 104.3 124.8 104.1 123.4 104.1 121.8 C 104.1 120.3 104.3 118.9 104.8 117.7 C 105.2 116.5 105.9 115.5 106.7 114.7 C 107.6 113.9 108.5 113.3 109.6 112.9 C 110.7 112.4 112 112.2 113.3 112.2 C 114.5 112.2 115.7 112.4 116.9 112.9 C 118 113.3 119 113.9 119.8 114.7 C 120.6 115.5 121.3 116.5 121.8 117.7 C 122.2 118.9 122.5 120.3 122.5 121.8 Z M 118.4 121.8 C 118.4 119.7 118 118.2 117.1 117 C 116 115.9 114.8 115.4 113.3 115.4 C 111.8 115.4 110.4 115.9 109.5 117 C 108.6 118.2 108.1 119.7 108.1 121.8 C 108.1 124 108.6 125.5 109.5 126.6 C 110.4 127.8 111.7 128.3 113.3 128.3 C 114.8 128.3 116 127.8 117.1 126.6 C 118 125.5 118.4 124 118.4 121.8 Z M 126.7 131.2 C 126 131.2 125.4 131.1 125.1 130.8 C 124.8 130.5 124.7 130.1 124.7 129.5 L 124.7 113.4 C 124.9 113.1 125.2 112.9 125.6 112.7 C 126.1 112.6 126.6 112.4 127.1 112.4 C 127.7 112.4 128.3 112.6 128.8 112.8 C 129.3 113 129.7 113.5 130.1 114.1 L 134.4 121.9 C 134.8 122.7 135.2 123.4 135.7 124.2 C 136 125 136.3 125.7 136.6 126.3 L 136.7 126.2 C 136.6 125.1 136.6 124 136.5 122.9 C 136.5 121.7 136.5 120.6 136.5 119.5 L 136.5 112.7 C 136.7 112.7 136.9 112.6 137.2 112.6 C 137.6 112.4 137.9 112.4 138.2 112.4 C 139 112.4 139.5 112.6 139.8 112.9 C 140.2 113.2 140.3 113.6 140.3 114.2 L 140.3 130.5 C 140.1 130.7 139.7 130.9 139.3 131 C 138.9 131.1 138.4 131.2 137.9 131.2 C 137.3 131.2 136.7 131.1 136.2 130.9 C 135.8 130.7 135.2 130.3 134.9 129.6 L 130.6 121.7 C 130.1 121.1 129.7 120.3 129.4 119.5 C 129 118.8 128.7 118.1 128.4 117.4 L 128.2 117.4 C 128.3 118.5 128.4 119.7 128.4 120.8 C 128.4 121.9 128.5 123.1 128.5 124.1 L 128.5 131 C 128.3 131 128.1 131.1 127.7 131.1 C 127.4 131.2 127.1 131.2 126.7 131.2 Z M 154.7 129.7 L 153.7 126.8 L 147 126.8 C 146.8 127.5 146.5 128.3 146.3 129 C 146.1 129.8 145.9 130.5 145.7 131 C 145.5 131.1 145.3 131.1 145.1 131.2 C 144.7 131.3 144.4 131.3 144.1 131.3 C 143.4 131.3 142.9 131.2 142.5 130.9 C 142.2 130.6 142 130.3 142 129.8 C 142 129.5 142 129.3 142.1 129.1 C 142.2 128.8 142.2 128.6 142.3 128.3 C 142.5 127.7 142.7 127.1 143 126.2 C 143.2 125.4 143.5 124.5 143.8 123.6 C 144.1 122.7 144.5 121.7 144.9 120.7 C 145.3 119.7 145.6 118.8 145.9 117.8 C 146.3 116.8 146.6 116 146.9 115.2 C 147.2 114.4 147.5 113.7 147.7 113.1 C 147.9 113 148.3 112.8 148.8 112.7 C 149.3 112.6 149.9 112.4 150.4 112.4 C 151.1 112.4 151.8 112.6 152.3 112.8 C 152.9 113 153.3 113.3 153.4 113.8 C 153.8 114.9 154.4 116.1 154.8 117.6 C 155.3 119.1 155.8 120.5 156.3 122.1 C 156.8 123.6 157.2 125.1 157.7 126.5 C 158.1 128.1 158.5 129.4 158.9 130.5 C 158.7 130.7 158.4 130.9 158.1 131 C 157.7 131.2 157.3 131.3 156.8 131.3 C 156.2 131.3 155.7 131.1 155.4 130.9 C 155.1 130.7 154.9 130.3 154.7 129.7 Z M 150.6 115.9 L 150.4 115.9 C 150.2 116.4 150 116.9 149.8 117.6 C 149.6 118.2 149.3 118.9 149.1 119.5 C 148.9 120.2 148.6 120.9 148.4 121.5 C 148.1 122.3 147.9 123 147.7 123.6 L 153 123.6 L 150.6 115.9 Z" style="white-space: pre; fill: rgb(0, 75, 118);">
    <title>PERSONA</title>
  </path>
  <g transform="matrix(0.981095, 0, 0, 0.981095, 51.432392, 43.227165)" style="">
    <title>pessoa</title>
    <circle style="fill: none; fill-opacity: 1; stroke-linejoin: round; stroke-miterlimit: 4; stroke-dasharray: none; stroke-opacity: 1; paint-order: markers stroke; stroke: rgb(0, 75, 118); stroke-width: 4px;" id="circle-3" cx="126.3" cy="63.9" r="13.9">
      <title>cabeça</title>
    </circle>
    <path style="fill: none; stroke-linejoin: miter; stroke-miterlimit: 4; stroke-dasharray: none; stroke-opacity: 1; stroke-linecap: round; stroke: rgb(0, 75, 118); stroke-width: 4px;" d="M 107.6 87.8 C 120 82 134.5 82 144.9 87.8" id="path-7">
      <title>corpo</title>
    </path>
  </g>
  <g transform="matrix(0.965195, 0, 0, 0.965195, 68.697464, 60.506519)" style="">
    <title>360</title>
    <path id="path-8" style="color: rgb(0, 0, 0); font: medium sans-serif; font-feature-settings: normal; font-variation-settings: normal; text-indent: 0px; text-align: start; text-decoration: none solid rgb(0, 0, 0); letter-spacing: normal; word-spacing: normal; text-transform: none; writing-mode: lr-tb; direction: ltr; text-orientation: mixed; dominant-baseline: auto; baseline-shift: baseline; text-anchor: start; white-space: normal; shape-margin: 0px; inline-size: 0px; clip-rule: nonzero; display: inline; overflow: visible; opacity: 1; isolation: auto; mix-blend-mode: normal; color-interpolation: srgb; color-interpolation-filters: linearrgb; vector-effect: none; fill-opacity: 1; fill-rule: nonzero; stroke-linecap: butt; stroke-linejoin: round; stroke-miterlimit: 4; stroke-dasharray: none; stroke-dashoffset: 0; stroke-opacity: 1; paint-order: markers stroke; color-rendering: auto; image-rendering: auto; shape-rendering: auto; text-rendering: auto; stop-color: rgb(0, 0, 0); stop-opacity: 1; stroke-width: 3.10818px; fill: rgb(255, 255, 255);" d="M 110.1 32.7 L 104.5 37.1 L 104.5 45 C 105.7 44.3 107.3 43.8 109 43.8 C 114.4 43.8 118.6 48 118.6 53.7 C 118.6 59.2 120.3 40.4 114.1 38.7 L 121.1 32.7 L 110.1 32.7 Z">
      <title>6</title>
    </path>
    <path id="path-1" style="color: rgb(0, 0, 0); font: medium sans-serif; font-feature-settings: normal; font-variation-settings: normal; text-indent: 0px; text-align: start; text-decoration: none solid rgb(0, 0, 0); letter-spacing: normal; word-spacing: normal; text-transform: none; writing-mode: lr-tb; direction: ltr; text-orientation: mixed; dominant-baseline: auto; baseline-shift: baseline; text-anchor: start; white-space: normal; shape-margin: 0px; inline-size: 0px; clip-rule: nonzero; display: inline; overflow: visible; opacity: 1; isolation: auto; mix-blend-mode: normal; color-interpolation: srgb; color-interpolation-filters: linearrgb; vector-effect: none; fill-opacity: 1; fill-rule: nonzero; stroke-linecap: butt; stroke-linejoin: round; stroke-miterlimit: 4; stroke-dasharray: none; stroke-dashoffset: 0; stroke-opacity: 1; paint-order: markers stroke; color-rendering: auto; image-rendering: auto; shape-rendering: auto; text-rendering: auto; stop-color: rgb(0, 0, 0); stop-opacity: 1; fill: rgb(3, 178, 243); stroke-width: 3.10818px;" d="M 111.3 33.5 L 107.6 36.3 L 107.6 41.5 C 108.4 41 109.4 40.7 110.5 40.7 C 114 40.7 116.9 43.5 116.9 47.1 C 116.9 50.7 114 53.6 110.5 53.6 C 109.4 53.6 108.4 53.3 107.6 53 L 107.6 57.2 C 108.5 57.5 109.4 57.6 110.5 57.6 C 116.2 57.6 121 53 121 47.1 C 121 42.6 117.9 38.5 113.9 37.3 L 118.4 33.5 Z">
      <title>6</title>
    </path>
    <g transform="matrix(1.126144, 0, 0, 1, -14.460719, 0.416973)" style="">
      <title>3</title>
      <rect style="fill-opacity: 1; stroke-linejoin: round; stroke-miterlimit: 4; stroke-dasharray: none; stroke-opacity: 1; paint-order: markers stroke; stroke-width: 1.03606px; fill: rgb(255, 255, 255);" id="rect-1" width="20.1" height="4.6" x="100.1" y="28.4" rx="1.6" ry="1.7">
        <title>3</title>
      </rect>
      <rect style="fill-opacity: 1; stroke-linejoin: round; stroke-miterlimit: 4; stroke-dasharray: none; stroke-opacity: 1; paint-order: markers stroke; fill: rgb(3, 178, 243); stroke-width: 1.03606px;" id="rect-3" width="18.7" height="4.6" x="101.6" y="27.3" rx="1.5" ry="1.7">
        <title>3</title>
      </rect>
    </g>
    <path id="path-9" style="color: rgb(0, 0, 0); font: medium sans-serif; font-feature-settings: normal; font-variation-settings: normal; text-indent: 0px; text-align: start; text-decoration: none solid rgb(0, 0, 0); letter-spacing: normal; word-spacing: normal; text-transform: none; writing-mode: lr-tb; direction: ltr; text-orientation: mixed; dominant-baseline: auto; baseline-shift: baseline; text-anchor: start; white-space: normal; shape-margin: 0px; inline-size: 0px; clip-rule: nonzero; display: inline; overflow: visible; opacity: 1; isolation: auto; mix-blend-mode: normal; color-interpolation: srgb; color-interpolation-filters: linearrgb; vector-effect: none; fill-opacity: 1; fill-rule: nonzero; stroke: none; stroke-width: 3.77953; stroke-linecap: butt; stroke-linejoin: round; stroke-miterlimit: 4; stroke-dasharray: none; stroke-dashoffset: 0; stroke-opacity: 1; paint-order: markers stroke; color-rendering: auto; image-rendering: auto; shape-rendering: auto; text-rendering: auto; stop-color: rgb(0, 0, 0); stop-opacity: 1; fill: rgb(11, 106, 228);" d="M 106.2 37.4 L 105.2 38.1 C 102.1 39.9 100 43.3 100 47.2 C 100 51.4 102.6 55.1 106.2 56.7 L 106.2 52 C 104.9 50.8 104 49.1 104 47.2 C 104 45.2 104.9 43.5 106.2 42.4 Z">
      <title>0</title>
    </path>
  </g>
</svg>