<?xml version="1.0" encoding="utf-8"?>
<svg viewBox="48.728 181.56 451.272 181.476" xmlns="http://www.w3.org/2000/svg">
  <g style="isolation: isolate;">
    <rect width="500" height="500" style="fill: rgb(26, 112, 132);"/>
    <path d="M 163.873 280.846 C 163.873 271.086 161.463 263.426 156.643 257.866 C 151.823 252.306 143.36 247.056 131.253 242.116 C 119.14 237.169 107.956 232.163 97.703 227.096 C 87.443 222.029 78.606 216.159 71.193 209.486 C 63.78 202.813 58.096 195.089 54.143 186.316 C 50.19 177.549 48.213 166.923 48.213 154.436 C 48.213 133.556 55.256 116.349 69.343 102.816 C 83.43 89.289 102.21 81.413 125.683 79.186 L 125.683 40.076 L 155.163 40.076 L 155.163 79.926 C 177.776 83.266 195.536 92.566 208.443 107.826 C 221.356 123.086 227.813 142.456 227.813 165.936 L 165.163 165.936 C 165.163 153.083 162.693 143.196 157.753 136.276 C 152.813 129.356 145.77 125.896 136.623 125.896 C 128.47 125.896 122.136 128.459 117.623 133.586 C 113.116 138.713 110.863 145.789 110.863 154.816 C 110.863 163.956 113.456 171.213 118.643 176.586 C 123.836 181.966 132.176 187.096 143.663 191.976 C 155.156 196.856 166 201.923 176.193 207.176 C 186.386 212.423 195.193 218.383 202.613 225.056 C 210.026 231.729 215.833 239.516 220.033 248.416 C 224.233 257.309 226.333 267.996 226.333 280.476 C 226.333 301.609 219.63 318.849 206.223 332.196 C 192.816 345.536 174.56 353.319 151.453 355.546 L 151.453 392.806 L 121.983 392.806 L 121.983 355.366 C 95.043 352.519 74.376 343.283 59.983 327.656 C 45.583 312.023 38.383 291.416 38.383 265.836 L 100.853 265.836 C 100.853 279.923 103.973 290.643 110.213 297.996 C 116.453 305.349 125.32 309.026 136.813 309.026 C 145.213 309.026 151.823 306.523 156.643 301.516 C 161.463 296.509 163.873 289.619 163.873 280.846 Z" transform="matrix(1, 0, 0, 1, 0, 0)" style="fill: rgb(255, 255, 255); fill-opacity: 0.09; stroke: rgb(255, 255, 255); stroke-opacity: 0.32; white-space: pre;"/>
    <path d="M 193.876 410.578 C 193.876 405.931 192.729 402.285 190.436 399.638 C 188.143 396.985 184.113 394.481 178.346 392.128 C 172.573 389.775 167.246 387.391 162.366 384.978 C 157.479 382.565 153.269 379.771 149.736 376.598 C 146.209 373.418 143.503 369.738 141.616 365.558 C 139.736 361.378 138.796 356.318 138.796 350.378 C 138.796 340.431 142.149 332.235 148.856 325.788 C 155.563 319.341 164.509 315.588 175.696 314.528 L 175.696 295.908 L 189.726 295.908 L 189.726 314.888 C 200.499 316.475 208.963 320.901 215.116 328.168 C 221.263 335.441 224.336 344.668 224.336 355.848 L 194.496 355.848 C 194.496 349.728 193.319 345.018 190.966 341.718 C 188.613 338.425 185.259 336.778 180.906 336.778 C 177.019 336.778 174.003 337.998 171.856 340.438 C 169.709 342.885 168.636 346.255 168.636 350.548 C 168.636 354.901 169.869 358.361 172.336 360.928 C 174.809 363.488 178.783 365.928 184.256 368.248 C 189.729 370.575 194.893 372.988 199.746 375.488 C 204.606 377.988 208.799 380.828 212.326 384.008 C 215.859 387.188 218.626 390.895 220.626 395.128 C 222.626 399.368 223.626 404.461 223.626 410.408 C 223.626 420.468 220.436 428.678 214.056 435.038 C 207.669 441.391 198.973 445.098 187.966 446.158 L 187.966 463.908 L 173.926 463.908 L 173.926 446.068 C 161.099 444.715 151.256 440.315 144.396 432.868 C 137.543 425.428 134.116 415.615 134.116 403.428 L 163.866 403.428 C 163.866 410.141 165.353 415.248 168.326 418.748 C 171.293 422.248 175.513 423.998 180.986 423.998 C 184.993 423.998 188.143 422.808 190.436 420.428 C 192.729 418.041 193.876 414.758 193.876 410.578 Z" transform="matrix(1, 0, 0, 1, 0, 0)" style="fill: rgb(255, 255, 255); fill-opacity: 0.09; stroke: rgb(255, 255, 255); stroke-opacity: 0.32; white-space: pre;"/>
    <path d="M 263.644 342.995 C 263.644 339.135 262.694 336.108 260.794 333.915 C 258.887 331.715 255.541 329.638 250.754 327.685 C 245.974 325.732 241.557 323.755 237.504 321.755 C 233.451 319.755 229.957 317.435 227.024 314.795 C 224.097 312.162 221.851 309.108 220.284 305.635 C 218.724 302.168 217.944 297.972 217.944 293.045 C 217.944 284.792 220.727 277.992 226.294 272.645 C 231.861 267.298 239.284 264.185 248.564 263.305 L 248.564 247.855 L 260.204 247.855 L 260.204 263.595 C 269.144 264.915 276.164 268.592 281.264 274.625 C 286.364 280.652 288.914 288.305 288.914 297.585 L 264.164 297.585 C 264.164 292.505 263.187 288.598 261.234 285.865 C 259.281 283.132 256.497 281.765 252.884 281.765 C 249.657 281.765 247.154 282.778 245.374 284.805 C 243.594 286.832 242.704 289.625 242.704 293.185 C 242.704 296.798 243.727 299.668 245.774 301.795 C 247.827 303.922 251.124 305.948 255.664 307.875 C 260.204 309.802 264.487 311.802 268.514 313.875 C 272.547 315.955 276.027 318.312 278.954 320.945 C 281.887 323.585 284.184 326.662 285.844 330.175 C 287.504 333.688 288.334 337.912 288.334 342.845 C 288.334 351.198 285.684 358.012 280.384 363.285 C 275.084 368.558 267.871 371.635 258.744 372.515 L 258.744 387.235 L 247.094 387.235 L 247.094 372.435 C 236.447 371.315 228.281 367.665 222.594 361.485 C 216.907 355.312 214.064 347.172 214.064 337.065 L 238.744 337.065 C 238.744 342.632 239.977 346.865 242.444 349.765 C 244.911 352.672 248.414 354.125 252.954 354.125 C 256.274 354.125 258.887 353.138 260.794 351.165 C 262.694 349.185 263.644 346.462 263.644 342.995 Z" transform="matrix(1, 0, 0, 1, 0, 0)" style="fill: rgb(255, 255, 255); fill-opacity: 0.09; stroke: rgb(255, 255, 255); stroke-opacity: 0.32; white-space: pre;"/>
    <path d="M 317.53 391.487 C 317.53 388.26 316.733 385.727 315.14 383.887 C 313.547 382.054 310.75 380.32 306.75 378.687 C 302.75 377.054 299.057 375.4 295.67 373.727 C 292.277 372.054 289.357 370.114 286.91 367.907 C 284.463 365.7 282.587 363.15 281.28 360.257 C 279.973 357.357 279.32 353.847 279.32 349.727 C 279.32 342.827 281.647 337.14 286.3 332.667 C 290.953 328.2 297.157 325.6 304.91 324.867 L 304.91 311.947 L 314.65 311.947 L 314.65 325.107 C 322.117 326.207 327.983 329.28 332.25 334.327 C 336.517 339.367 338.65 345.764 338.65 353.517 L 317.95 353.517 C 317.95 349.27 317.133 346.007 315.5 343.727 C 313.873 341.44 311.547 340.297 308.52 340.297 C 305.827 340.297 303.737 341.144 302.25 342.837 C 300.757 344.53 300.01 346.867 300.01 349.847 C 300.01 352.867 300.867 355.264 302.58 357.037 C 304.3 358.817 307.057 360.514 310.85 362.127 C 314.65 363.734 318.233 365.407 321.6 367.147 C 324.967 368.88 327.873 370.847 330.32 373.047 C 332.773 375.254 334.693 377.827 336.08 380.767 C 337.467 383.707 338.16 387.237 338.16 391.357 C 338.16 398.337 335.947 404.034 331.52 408.447 C 327.087 412.854 321.053 415.424 313.42 416.157 L 313.42 428.467 L 303.69 428.467 L 303.69 416.097 C 294.79 415.157 287.963 412.107 283.21 406.947 C 278.45 401.78 276.07 394.974 276.07 386.527 L 296.71 386.527 C 296.71 391.18 297.74 394.72 299.8 397.147 C 301.86 399.574 304.79 400.787 308.59 400.787 C 311.363 400.787 313.547 399.96 315.14 398.307 C 316.733 396.654 317.53 394.38 317.53 391.487 Z" transform="matrix(1, 0, 0, 1, 0, 0)" style="fill: rgb(255, 255, 255); fill-opacity: 0.09; stroke: rgb(255, 255, 255); stroke-opacity: 0.32; white-space: pre;"/>
    <path d="M 265.865 223.434 C 265.865 216.987 264.272 211.924 261.085 208.244 C 257.905 204.571 252.315 201.104 244.315 197.844 C 236.315 194.577 228.925 191.271 222.145 187.924 C 215.372 184.577 209.535 180.697 204.635 176.284 C 199.735 171.877 195.978 166.774 193.365 160.974 C 190.752 155.181 189.445 148.161 189.445 139.914 C 189.445 126.121 194.102 114.754 203.415 105.814 C 212.722 96.874 225.128 91.667 240.635 90.194 L 240.635 64.354 L 260.105 64.354 L 260.105 90.684 C 275.052 92.891 286.788 99.034 295.315 109.114 C 303.848 119.201 308.115 131.997 308.115 147.504 L 266.725 147.504 C 266.725 139.017 265.092 132.487 261.825 127.914 C 258.558 123.341 253.905 121.054 247.865 121.054 C 242.478 121.054 238.295 122.747 235.315 126.134 C 232.335 129.527 230.845 134.204 230.845 140.164 C 230.845 146.204 232.558 151.001 235.985 154.554 C 239.412 158.101 244.922 161.487 252.515 164.714 C 260.108 167.941 267.272 171.287 274.005 174.754 C 280.745 178.227 286.562 182.167 291.455 186.574 C 296.355 190.981 300.195 196.124 302.975 202.004 C 305.748 207.884 307.135 214.947 307.135 223.194 C 307.135 237.154 302.705 248.541 293.845 257.354 C 284.992 266.174 272.932 271.317 257.665 272.784 L 257.665 297.404 L 238.185 297.404 L 238.185 272.664 C 220.392 270.784 206.738 264.681 197.225 254.354 C 187.712 244.027 182.955 230.414 182.955 213.514 L 224.225 213.514 C 224.225 222.821 226.288 229.904 230.415 234.764 C 234.535 239.617 240.392 242.044 247.985 242.044 C 253.538 242.044 257.905 240.391 261.085 237.084 C 264.272 233.777 265.865 229.227 265.865 223.434 Z" transform="matrix(1, 0, 0, 1, 0, 0)" style="fill: rgb(255, 255, 255); fill-opacity: 0.09; stroke: rgb(255, 255, 255); stroke-opacity: 0.32; white-space: pre;"/>
    <path d="M 356.045 353.453 C 356.045 351.533 355.572 350.03 354.625 348.943 C 353.678 347.85 352.015 346.82 349.635 345.853 C 347.262 344.88 345.068 343.896 343.055 342.903 C 341.042 341.91 339.308 340.756 337.855 339.443 C 336.402 338.136 335.285 336.623 334.505 334.903 C 333.732 333.176 333.345 331.09 333.345 328.643 C 333.345 324.543 334.725 321.166 337.485 318.513 C 340.252 315.86 343.938 314.313 348.545 313.873 L 348.545 306.193 L 354.335 306.193 L 354.335 314.023 C 358.768 314.676 362.255 316.5 364.795 319.493 C 367.328 322.486 368.595 326.286 368.595 330.893 L 356.295 330.893 C 356.295 328.373 355.812 326.433 354.845 325.073 C 353.872 323.72 352.488 323.043 350.695 323.043 C 349.095 323.043 347.852 323.546 346.965 324.553 C 346.078 325.56 345.635 326.946 345.635 328.713 C 345.635 330.506 346.145 331.933 347.165 332.993 C 348.185 334.046 349.822 335.053 352.075 336.013 C 354.328 336.966 356.458 337.96 358.465 338.993 C 360.465 340.02 362.192 341.19 363.645 342.503 C 365.098 343.81 366.238 345.336 367.065 347.083 C 367.892 348.83 368.305 350.93 368.305 353.383 C 368.305 357.53 366.988 360.91 364.355 363.523 C 361.722 366.143 358.138 367.673 353.605 368.113 L 353.605 375.423 L 347.825 375.423 L 347.825 368.073 C 342.538 367.52 338.482 365.706 335.655 362.633 C 332.828 359.566 331.415 355.523 331.415 350.503 L 343.675 350.503 C 343.675 353.27 344.288 355.373 345.515 356.813 C 346.735 358.26 348.475 358.983 350.735 358.983 C 352.382 358.983 353.678 358.49 354.625 357.503 C 355.572 356.523 356.045 355.173 356.045 353.453 Z" transform="matrix(1, 0, 0, 1, 0, 0)" style="fill: rgb(255, 255, 255); fill-opacity: 0.09; stroke: rgb(255, 255, 255); stroke-opacity: 0.32; white-space: pre;"/>
    <path d="M 350.661 419.701 C 350.661 418.161 350.278 416.951 349.511 416.071 C 348.751 415.191 347.414 414.361 345.501 413.581 C 343.588 412.801 341.821 412.011 340.201 411.211 C 338.581 410.404 337.184 409.474 336.011 408.421 C 334.838 407.368 333.938 406.148 333.311 404.761 C 332.684 403.374 332.371 401.694 332.371 399.721 C 332.371 396.421 333.484 393.701 335.711 391.561 C 337.938 389.421 340.908 388.178 344.621 387.831 L 344.621 381.641 L 349.281 381.641 L 349.281 387.941 C 352.854 388.468 355.661 389.938 357.701 392.351 C 359.741 394.764 360.761 397.828 360.761 401.541 L 350.861 401.541 C 350.861 399.508 350.471 397.944 349.691 396.851 C 348.911 395.758 347.798 395.211 346.351 395.211 C 345.064 395.211 344.064 395.618 343.351 396.431 C 342.638 397.238 342.281 398.354 342.281 399.781 C 342.281 401.228 342.691 402.374 343.511 403.221 C 344.331 404.074 345.648 404.884 347.461 405.651 C 349.281 406.424 350.994 407.228 352.601 408.061 C 354.214 408.888 355.608 409.828 356.781 410.881 C 357.954 411.941 358.871 413.171 359.531 414.571 C 360.198 415.978 360.531 417.668 360.531 419.641 C 360.531 422.981 359.471 425.708 357.351 427.821 C 355.231 429.928 352.344 431.158 348.691 431.511 L 348.691 437.401 L 344.031 437.401 L 344.031 431.481 C 339.778 431.028 336.511 429.568 334.231 427.101 C 331.958 424.628 330.821 421.371 330.821 417.331 L 340.691 417.331 C 340.691 419.558 341.184 421.251 342.171 422.411 C 343.158 423.571 344.561 424.151 346.381 424.151 C 347.708 424.151 348.751 423.758 349.511 422.971 C 350.278 422.178 350.661 421.088 350.661 419.701 Z" transform="matrix(1, 0, 0, 1, 0, 0)" style="fill: rgb(255, 255, 255); fill-opacity: 0.09; stroke: rgb(255, 255, 255); stroke-opacity: 0.32; white-space: pre;"/>
  </g>
  <path d="M 45.373 319.165 C 240.128 379.055 496.899 260.472 514.759 319.165 C 519.747 335.557 514.759 370.391 514.759 370.391 L 45.373 370.391 C 45.373 370.391 28.417 313.951 45.373 319.165 Z" style="fill: rgb(255, 255, 255);"/>
</svg>