<?xml version="1.0" encoding="utf-8"?>
<svg viewBox="22.505 147.137 450.985 172.53" xmlns="http://www.w3.org/2000/svg">
  <rect width="450.985" height="172.53" style="fill: rgb(17, 122, 71);" x="22.505" y="147.137"/>
  <path d="M 92.763 254.148 C 92.763 250.675 91.906 247.948 90.193 245.968 C 88.48 243.995 85.47 242.128 81.163 240.368 C 76.856 238.608 72.876 236.828 69.223 235.028 C 65.576 233.228 62.436 231.141 59.803 228.768 C 57.163 226.395 55.14 223.648 53.733 220.528 C 52.326 217.408 51.623 213.628 51.623 209.188 C 51.623 201.761 54.13 195.641 59.143 190.828 C 64.15 186.015 70.83 183.215 79.183 182.428 L 79.183 168.518 L 89.663 168.518 L 89.663 182.688 C 97.703 183.875 104.02 187.181 108.613 192.608 C 113.206 198.035 115.503 204.925 115.503 213.278 L 93.223 213.278 C 93.223 208.705 92.343 205.188 90.583 202.728 C 88.83 200.268 86.326 199.038 83.073 199.038 C 80.173 199.038 77.92 199.948 76.313 201.768 C 74.713 203.595 73.913 206.111 73.913 209.318 C 73.913 212.571 74.833 215.155 76.673 217.068 C 78.52 218.975 81.486 220.798 85.573 222.538 C 89.66 224.271 93.516 226.071 97.143 227.938 C 100.77 229.805 103.9 231.925 106.533 234.298 C 109.173 236.671 111.24 239.441 112.733 242.608 C 114.226 245.775 114.973 249.575 114.973 254.008 C 114.973 261.528 112.59 267.658 107.823 272.398 C 103.056 277.145 96.563 279.915 88.343 280.708 L 88.343 293.958 L 77.863 293.958 L 77.863 280.638 C 68.283 279.631 60.933 276.348 55.813 270.788 C 50.693 265.228 48.133 257.901 48.133 248.808 L 70.353 248.808 C 70.353 253.815 71.46 257.625 73.673 260.238 C 75.893 262.858 79.046 264.168 83.133 264.168 C 86.126 264.168 88.48 263.278 90.193 261.498 C 91.906 259.718 92.763 257.268 92.763 254.148 Z" transform="matrix(1, 0, 0, 1, 0, 0)" style="fill: rgb(1, 97, 12); stroke: rgb(5, 60, 0); stroke-linecap: round; stroke-miterlimit: 12; stroke-opacity: 0.51; stroke-width: 3px; white-space: pre;"/>
</svg>